<?xml version="1.0" encoding="UTF-8"?>
<svg width="17px" height="17px" viewBox="0 0 17 17" version="1.1" xmlns="http://www.w3.org/2000/svg" xmlns:xlink="http://www.w3.org/1999/xlink">
    <!-- Generator: Sketch 52.4 (67378) - http://www.bohemiancoding.com/sketch -->
    <g id="Alert-System" stroke="none" stroke-width="1" fill="none" fill-rule="evenodd">
        <g id="alert-messages-final" transform="translate(-401.000000, -514.000000)" fill="#2E2A26" fill-rule="nonzero">
            <path d="M417.095499,529.749638 C417.151848,529.862472 417.147674,529.998237 417.084716,530.107068 C417.021758,530.215898 416.909061,530.282507 416.787319,530.282507 L401.482675,530.282507 C401.360934,530.282507 401.248236,530.215534 401.185278,530.106704 C401.122321,529.997873 401.118147,529.862472 401.174843,529.749638 L408.827165,514.462405 C408.94682,514.222541 409.323175,514.222541 409.443177,514.462405 L417.095499,529.749638 Z M408.064168,525.742246 L408.064168,527.389305 L410.122992,527.389305 L410.122992,525.742246 L408.064168,525.742246 Z M408.064168,520.389305 L408.064168,524.506952 L410.122992,524.506952 L410.122992,520.389305 L408.064168,520.389305 Z" id="Combined-Shape-Copy"></path>
        </g>
    </g>
</svg>
