<svg xmlns="http://www.w3.org/2000/svg" xmlns:xlink="http://www.w3.org/1999/xlink" x="0px" y="0px" width="16px" height="16px" viewBox="0 0 16 16"><g transform="translate(0, 0)"><rect x="8" y="3" width="8" height="2" fill="#444444"></rect>
<path d="M5,1H1A1,1,0,0,0,0,2V6A1,1,0,0,0,1,7H5A1,1,0,0,0,6,6V2A1,1,0,0,0,5,1ZM4,5H2V3H4Z" fill="#444444"></path>
<rect data-color="color-2" x="8" y="11" width="8" height="2" fill="#444444"></rect>
<path data-color="color-2" d="M5.707,9.293a1,1,0,0,0-1.414,0L3,10.586,1.707,9.293A1,1,0,1,0,.293,10.707L1.586,12,.293,13.293a1,1,0,1,0,1.414,1.414L3,13.414l1.293,1.293a1,1,0,1,0,1.414-1.414L4.414,12l1.293-1.293A1,1,0,0,0,5.707,9.293Z" fill="#444444"></path></g></svg>
