<?xml version="1.0" encoding="UTF-8"?>
<svg width="35px" height="35px" viewBox="0 0 35 35" version="1.1" xmlns="http://www.w3.org/2000/svg" xmlns:xlink="http://www.w3.org/1999/xlink">
    <!-- Generator: Sketch 47.1 (45422) - http://www.bohemiancoding.com/sketch -->
    <desc>Created with Sketch.</desc>
    <defs></defs>
    <g id="Page-1" stroke="none" stroke-width="1" fill="none" fill-rule="evenodd">
        <g id="Artboard" transform="translate(-189.000000, -35.000000)" fill="#FFFFFF">
            <g id="Group" transform="translate(168.000000, 15.000000)">
                <path d="M53.6423781,43.3109333 C54.5734819,43.9180795 55.2941504,44.7266058 55.6775461,45.5952456 C56.0955339,46.5720897 56.1041819,47.6631495 55.7207862,48.5077439 C55.386396,49.2681794 54.7147329,49.8362518 53.7836292,50.1368193 C52.9274749,50.434381 52.0626727,50.434381 51.1517476,50.1398249 C50.2840627,49.8723199 49.3039535,49.3282929 48.1451184,48.4716758 C47.0093448,47.6391041 45.9254593,46.6682713 44.6340213,45.333752 C44.1093746,44.7837136 43.5645491,44.1855845 43.0139584,43.572427 C42.1549215,43.6716142 41.1863429,43.8249036 39.9179663,44.0683632 C38.5631094,44.3208398 36.8825104,44.6664923 34.7435661,45.324735 C33.7605742,45.6283081 32.780465,45.9559265 31.8464785,46.3045847 C31.7138755,46.5119763 31.5812725,46.7193678 31.4659655,46.8967025 C29.6729422,49.6709398 27.9116283,51.8470478 26.392459,53.1965955 C25.2826294,54.1914737 24.241984,54.7595461 23.2215173,54.9489035 C23.1062104,54.9639319 22.9130712,55 22.693988,55 C22.2356428,55 21.6360465,54.8587333 21.2612989,54.1734396 C20.9845622,53.6083729 20.924026,52.8719827 21.0969865,52.0754791 C21.2901256,51.1407144 21.7945936,50.2901086 22.6795746,49.3944177 C23.7692254,48.276307 25.4065844,47.1311451 27.294736,46.1783464 C28.2489011,45.6944329 29.3962055,45.1984967 30.6357554,44.7205945 C32.0453831,42.4212538 34.0978471,38.7723654 35.5507149,34.7808301 C35.7294407,34.2909052 35.8879878,33.8099974 36.0523002,33.3260839 C35.5910723,32.2199958 35.3056876,31.2822254 35.0866043,30.4767048 C34.7032087,29.0490096 34.4552987,27.7685924 34.3486397,26.6685157 C34.2535115,25.6165297 34.2765729,24.5555267 34.4034106,23.5065465 C34.5417789,22.4846173 34.7464488,21.7993236 35.0837217,21.2823476 C35.3921678,20.8014398 35.8360996,20.4437645 36.4097518,20.2243503 C36.7181979,20.098112 36.9516945,20.0740666 37.1131243,20.0560326 C37.398509,20.0079418 37.7156032,19.950834 38.1162949,20.0740666 C38.390149,20.1702482 38.6582377,20.3175262 38.9638011,20.4888496 C40.2321778,21.0959958 40.1255188,22.1299477 39.9323797,23.843182 L39.8603128,24.534487 C39.6441122,26.6474759 39.053164,29.8635473 38.0298147,33.2058569 C38.1105296,33.4072371 38.2085405,33.6146286 38.3209648,33.8190144 C39.0992868,35.3489025 40.2206471,37.0982049 41.5668559,38.8745583 C42.2183403,39.7401924 42.9707183,40.6719514 43.760571,41.5766593 C44.9741768,41.4834834 46.1877827,41.4834834 47.3667964,41.588682 C48.5429275,41.6878693 49.7334719,41.8892494 50.8144747,42.1657715 C51.9963712,42.4633332 52.8755868,42.8180028 53.6423781,43.3109333 Z M35.5904855,29.7431507 C35.6091521,29.8269647 35.6301521,29.9107787 35.6534855,30 C36.1294855,27.8965393 36.4188188,25.9850397 36.5401521,24.684571 L36.5984855,24.0492069 C36.6428188,23.5490267 36.6941521,23.0434391 36.6848188,22.8163302 L36.6801521,22.8325523 C36.5401521,22.7325162 36.2741521,22.5405552 36.1668188,22.5 C36.1621521,22.5 35.9638188,22.5459625 35.9521521,22.5459625 C35.8751521,22.5594809 35.8261521,22.5621846 35.7491521,22.600036 C35.5788188,22.667628 35.4621521,22.767664 35.3851521,22.9028479 C35.2568188,23.1326604 35.1471521,23.554434 35.0794855,24.1681687 C34.9908188,24.9765681 34.9744855,25.8011896 35.0398188,26.6122927 C35.1144855,27.5072098 35.3011521,28.5562365 35.5881521,29.7377433 L35.5904855,29.7431507 Z M36.5033557,35 C35.3725421,37.8306092 33.9272931,40.4494799 32.6666667,42.5 C32.9407159,42.4219911 33.2349582,42.3384101 33.5176616,42.2576152 C35.7504415,41.6223997 37.4899329,41.2908618 38.8890263,41.0429049 C39.4919345,40.9426077 40.1467679,40.8311664 40.8333333,40.7308692 C40.3313906,40.1764487 39.8525256,39.6220282 39.4198163,39.092682 C38.2745791,37.6829495 37.2735782,36.2843611 36.500471,35.002786 L36.5033557,35 Z M24.4506424,49.1471963 C23.6632118,49.8921111 23.4606482,50.3896372 23.3864699,50.7359813 C23.3351158,50.9586311 23.3294097,51.134552 23.3351158,51.25 C23.3550868,51.25 23.3779109,51.2472512 23.395029,51.2417537 C24.0740452,51.1235569 24.8215336,50.7359813 25.6660243,50.0350467 C26.4420428,49.3945849 27.6260417,48.256597 29.1666667,46.25 C28.949838,46.3407092 28.7444213,46.4369159 28.5475637,46.5276251 C26.2537442,47.5996427 24.9927141,48.6304288 24.4506424,49.1471963 Z M52.2850023,44.0020207 C51.7326094,43.624267 51.0697378,43.3424507 50.1535739,43.1026071 C49.2185477,42.8447752 48.1945998,42.6588964 47.1760411,42.5749511 C46.6317319,42.5179883 46.0685606,42.5 45.5,42.5 C45.6670652,42.6828808 45.8314358,42.8687596 45.9823334,43.0396482 C47.1221491,44.2988272 48.0625644,45.2042369 49.0433987,45.9777326 C49.9541735,46.6942654 50.7356074,47.1649586 51.3526708,47.3688257 C51.8727285,47.5427123 52.3227267,47.5427123 52.7942817,47.3748217 C53.2038609,47.2309156 53.451764,47.0270485 53.5703264,46.7542264 C53.6834996,46.4874003 53.7320024,45.9927228 53.5164344,45.4380844 C53.3197286,44.9314148 52.8616467,44.4097549 52.2876969,44.0050188 L52.2850023,44.0020207 Z" id="Combined-Shape"></path>
            </g>
        </g>
    </g>
</svg>
