<?xml version="1.0" encoding="utf-8"?>
<!-- Generator: Adobe Illustrator 21.1.0, SVG Export Plug-In . SVG Version: 6.00 Build 0)  -->
<svg version="1.1" id="Layer_1" xmlns="http://www.w3.org/2000/svg" xmlns:xlink="http://www.w3.org/1999/xlink" x="0px" y="0px"
	 viewBox="0 0 32 32" style="enable-background:new 0 0 32 32;" xml:space="preserve">
<style type="text/css">
	.stpdf0{clip-path:url(#SVGID_pdf_2_);fill:#C02728;}
	.stpdf1{clip-path:url(#SVGID_pdf_4_);fill:#FFFFFF;}
</style>
<g>
	<g>
		<defs>
			<path id="SVGID_pdf_1_" d="M1.7,0h28.6C31.2,0,32,0.8,32,1.7v28.6c0,0.9-0.8,1.7-1.7,1.7H1.7C0.8,32,0,31.2,0,30.3V1.7
				C0,0.8,0.8,0,1.7,0z"/>
		</defs>
		<clipPath id="SVGID_pdf_2_">
			<use xlink:href="#SVGID_pdf_1_"  style="overflow:visible;"/>
		</clipPath>
		<rect x="-2.1" y="-2.1" class="stpdf0" width="36.3" height="36.3"/>
	</g>
	<g>
		<defs>
			<path id="SVGID_pdf_3_" d="M22.1,18.6c-0.2-0.2-0.5-0.3-0.9-0.4c-0.4-0.1-0.8-0.2-1.3-0.2c-0.2,0-0.5,0-0.7,0
				c0.1,0.1,0.1,0.2,0.2,0.2c0.5,0.5,0.9,0.9,1.3,1.3c0.4,0.3,0.7,0.5,1,0.6c0.2,0.1,0.4,0.1,0.6,0c0.2-0.1,0.3-0.1,0.3-0.3
				c0-0.1,0.1-0.3,0-0.6C22.5,19,22.3,18.7,22.1,18.6L22.1,18.6z M10.2,20.8c-0.3,0.3-0.4,0.5-0.5,0.7c0,0.1,0,0.2,0,0.2
				c0,0,0,0,0,0c0.3-0.1,0.6-0.2,1-0.5c0.3-0.3,0.8-0.8,1.5-1.6c-0.1,0-0.2,0.1-0.3,0.1C11,20.1,10.5,20.5,10.2,20.8z M15.4,14.7
				c-0.5,1.2-1.1,2.3-1.6,3.2c0.1,0,0.2-0.1,0.4-0.1c1-0.3,1.7-0.4,2.3-0.5c0.3,0,0.5-0.1,0.8-0.1c-0.2-0.2-0.4-0.5-0.6-0.7
				C16.1,15.9,15.7,15.3,15.4,14.7L15.4,14.7z M15,12.5c0,0,0,0.1,0,0.1c0.2-0.9,0.3-1.7,0.4-2.3l0-0.3c0-0.2,0-0.4,0-0.5l0,0
				c-0.1,0-0.2-0.1-0.2-0.1c0,0-0.1,0-0.1,0c0,0-0.1,0-0.1,0c-0.1,0-0.1,0.1-0.2,0.1c-0.1,0.1-0.1,0.3-0.1,0.5c0,0.3,0,0.7,0,1
				C14.8,11.5,14.8,12,15,12.5L15,12.5z M22.7,18.3c0.4,0.3,0.7,0.6,0.9,1c0.2,0.4,0.2,0.9,0,1.2c-0.1,0.3-0.4,0.6-0.8,0.7
				c-0.4,0.1-0.7,0.1-1.1,0c-0.4-0.1-0.8-0.3-1.3-0.7c-0.5-0.4-0.9-0.8-1.5-1.3c-0.2-0.2-0.5-0.5-0.7-0.8c-0.4,0-0.8,0.1-1.3,0.2
				c-0.6,0.1-1.3,0.3-2.2,0.5c-0.4,0.1-0.8,0.3-1.2,0.4c-0.1,0.1-0.1,0.2-0.2,0.3c-0.8,1.2-1.5,2.1-2.2,2.7
				c-0.5,0.4-0.9,0.7-1.4,0.7c0,0-0.1,0-0.2,0c-0.2,0-0.5-0.1-0.6-0.4c-0.1-0.2-0.1-0.6-0.1-0.9c0.1-0.4,0.3-0.8,0.7-1.1
				c0.5-0.5,1.2-1,2-1.4c0.4-0.2,0.9-0.4,1.4-0.6c0.6-1,1.5-2.5,2.1-4.2c0.1-0.2,0.1-0.4,0.2-0.6c-0.2-0.5-0.3-0.9-0.4-1.2
				c-0.2-0.6-0.3-1.2-0.3-1.6c0-0.4,0-0.9,0-1.3c0.1-0.4,0.1-0.7,0.3-0.9c0.1-0.2,0.3-0.4,0.6-0.5c0.1-0.1,0.2-0.1,0.3-0.1
				c0.1,0,0.3,0,0.4,0c0.1,0,0.2,0.1,0.4,0.2c0.5,0.3,0.5,0.7,0.4,1.4l0,0.3c-0.1,0.9-0.3,2.3-0.8,3.7c0,0.1,0.1,0.2,0.1,0.3
				c0.3,0.7,0.8,1.4,1.4,2.2c0.3,0.4,0.6,0.8,0.9,1.2c0.5,0,1,0,1.5,0c0.5,0,1,0.1,1.5,0.2C22,17.9,22.3,18.1,22.7,18.3z"/>
		</defs>
		<clipPath id="SVGID_pdf_4_">
			<use xlink:href="#SVGID_pdf_3_"  style="overflow:visible;"/>
		</clipPath>
		<rect x="6.6" y="6.2" class="stpdf1" width="19.2" height="19.2"/>
	</g>
</g>
</svg>
