<?xml version="1.0" encoding="UTF-8"?>
<svg width="16px" height="16px" viewBox="0 0 16 16" version="1.1" xmlns="http://www.w3.org/2000/svg" xmlns:xlink="http://www.w3.org/1999/xlink">
    <!-- Generator: Sketch 49.3 (51167) - http://www.bohemiancoding.com/sketch -->
    <desc>Created with Sketch.</desc>
    <defs></defs>
    <g id="Page-1" stroke="none" stroke-width="1" fill="none" fill-rule="evenodd">
        <g id="Artboard-Copy" transform="translate(-286.000000, -35.000000)" fill="#FFFFFF">
            <path d="M300.92223,45.6564267 C301.347877,45.9339792 301.677326,46.3035912 301.852593,46.7006837 C302.043673,47.147241 302.047626,47.6460112 301.872359,48.0321115 C301.719495,48.3797392 301.412449,48.6394294 300.986802,48.7768317 C300.595417,48.9128599 300.200079,48.9128599 299.783656,48.7782057 C299.387,48.6559177 298.93895,48.4072196 298.409197,48.0156232 C297.889986,47.635019 297.394496,47.1912097 296.804124,46.5811438 C296.564286,46.3296977 296.315222,46.0562672 296.063524,45.7759666 C295.670821,45.8213094 295.228042,45.8913845 294.648213,46.0026803 C294.02885,46.1180982 293.260576,46.2761108 292.282773,46.5770217 C291.833405,46.715798 291.385355,46.8655664 290.95839,47.024953 C290.897772,47.1197606 290.837153,47.2145681 290.784441,47.2956355 C289.964774,48.5638582 289.159601,49.5586504 288.465124,50.1755865 C287.957773,50.630388 287.48205,50.8900782 287.015551,50.9766416 C286.962839,50.9835117 286.874547,51 286.774394,51 C286.564865,51 286.290764,50.9354209 286.119451,50.6221438 C285.992943,50.3638276 285.965269,50.0271921 286.044337,49.6630761 C286.132629,49.2357552 286.363243,48.8469068 286.767806,48.4374481 C287.265932,47.9263118 288.014439,47.4028092 288.877594,46.9672441 C289.313783,46.7460265 289.838265,46.5193128 290.404917,46.3008432 C291.049318,45.249716 291.987587,43.5816527 292.651755,41.7569509 C292.733459,41.5329853 292.805937,41.3131417 292.881052,41.091924 C292.670204,40.5862838 292.539743,40.1575888 292.439591,39.7893508 C292.264324,39.1366901 292.150994,38.5513565 292.102235,38.0484643 C292.058748,37.5675564 292.06929,37.0825265 292.127273,36.6029927 C292.190528,36.135825 292.284091,35.8225479 292.438273,35.5862161 C292.579277,35.3663725 292.782217,35.2028638 293.044458,35.1025601 C293.185462,35.0448512 293.292203,35.033859 293.366,35.0256149 C293.496461,35.0036305 293.641419,34.9775241 293.824592,35.033859 C293.949782,35.0778277 294.072337,35.1451548 294.212023,35.2234741 C294.791853,35.5010267 294.743094,35.9736904 294.654802,36.7568832 L294.621857,37.0729084 C294.523023,38.0388461 294.252875,39.5090502 293.785058,41.0369631 C293.821956,41.1290227 293.866761,41.2238302 293.918155,41.3172637 C294.27396,42.0166412 294.786582,42.8163222 295.401991,43.6283695 C295.699813,44.024088 296.043757,44.4500349 296.404832,44.8636157 C296.959624,44.821021 297.514415,44.821021 298.053393,44.8691118 C298.591053,44.9144545 299.135301,45.006514 299.629474,45.1329241 C300.16977,45.2689523 300.571697,45.431087 300.92223,45.6564267 Z M292.669936,39.4540117 C292.67847,39.4923267 292.68807,39.5306417 292.698736,39.5714286 C292.916336,38.6098465 293.048603,37.7360181 293.10407,37.1415182 L293.130736,36.851066 C293.151003,36.6224122 293.17447,36.3912864 293.170203,36.2874652 L293.16807,36.294881 C293.10407,36.2491503 292.98247,36.1613966 292.933403,36.1428571 C292.93127,36.1428571 292.840603,36.1638686 292.83527,36.1638686 C292.80007,36.1700484 292.77767,36.1712844 292.74247,36.1885879 C292.664603,36.2194871 292.61127,36.2652178 292.57607,36.3270162 C292.517403,36.4320733 292.46727,36.6248841 292.436336,36.9054486 C292.395803,37.2750026 292.388336,37.6519724 292.418203,38.0227624 C292.452336,38.4318673 292.53767,38.9114224 292.66887,39.4515398 L292.669936,39.4540117 Z M293.087248,41.8571429 C292.570305,43.1511356 291.90962,44.3483337 291.333333,45.2857143 C291.458613,45.2500531 291.593124,45.2118446 291.72236,45.1749098 C292.743059,44.8845256 293.538255,44.7329654 294.177841,44.6196137 C294.453456,44.5737635 294.752808,44.5228189 295.066667,44.4769688 C294.837207,44.2235194 294.618297,43.97007 294.420487,43.7280832 C293.89695,43.083634 293.43935,42.4442793 293.08593,41.8584165 L293.087248,41.8571429 Z M287.577437,48.3244326 C287.217468,48.6649651 287.124868,48.8924056 287.090958,49.0507343 C287.067481,49.1525171 287.064873,49.232938 287.067481,49.2857143 C287.076611,49.2857143 287.087045,49.2844577 287.09487,49.2819446 C287.405278,49.2279117 287.746987,49.0507343 288.13304,48.7303071 C288.487791,48.4375245 289.029048,47.9173015 289.733333,47 C289.634212,47.0414671 289.540307,47.0854473 289.450315,47.1269143 C288.401712,47.6169795 287.825241,48.088196 287.577437,48.3244326 Z M300.301715,45.9723523 C300.049193,45.7996649 299.746166,45.6708346 299.327348,45.5611918 C298.899908,45.4433258 298.431817,45.3583526 297.96619,45.3199777 C297.717363,45.2939375 297.459913,45.2857143 297.2,45.2857143 C297.276373,45.3693169 297.351513,45.4542901 297.420495,45.5324106 C297.941554,46.1080353 298.371458,46.5219369 298.819839,46.8755349 C299.236194,47.2030928 299.593421,47.4182668 299.875507,47.5114632 C300.113247,47.5909542 300.318961,47.5909542 300.534529,47.5142042 C300.721765,47.4484185 300.835092,47.3552222 300.889292,47.2305035 C300.941028,47.1085259 300.963201,46.8823876 300.864656,46.6288386 C300.774733,46.3972182 300.565324,46.1587451 300.302947,45.9737229 L300.301715,45.9723523 Z" id="Combined-Shape-Copy"></path>
        </g>
    </g>
</svg>
