<?xml version="1.0" encoding="UTF-8"?>
<svg width="16px" height="16px" viewBox="0 0 16 16" version="1.1" xmlns="http://www.w3.org/2000/svg" xmlns:xlink="http://www.w3.org/1999/xlink">
    <!-- Generator: Sketch 53.2 (72643) - https://sketchapp.com -->
    <g id="Design-v3" stroke="none" stroke-width="1" fill="none" fill-rule="evenodd">
        <g id="Microsoft_Word_2013_logo" fill-rule="nonzero">
            <path d="M8.32858365,1.0658141e-14 L9.38816283,1.0658141e-14 C9.38816283,0.473089701 9.38816283,0.94440753 9.38816283,1.41749723 C11.2840654,1.42812846 13.1781961,1.39800664 15.0723267,1.42812846 C15.4763134,1.38737542 15.7934784,1.70099668 15.7562691,2.10498339 C15.786391,5.59557032 15.7491817,9.08792913 15.7739879,12.5785161 C15.7562691,12.9364341 15.8094253,13.3333333 15.6021163,13.6504983 C15.3434231,13.834773 15.0085394,13.8117386 14.7073212,13.8259136 C12.9336778,13.8170543 11.1618062,13.820598 9.38816283,13.820598 C9.38816283,14.2936877 9.38816283,14.7650055 9.38816283,15.2380952 L8.28074312,15.2380952 C5.58395464,14.745515 2.88007867,14.2936877 0.177974574,13.820598 C0.176202702,9.68682171 0.177974574,5.5530454 0.177974574,1.42104097 C2.89425364,0.946179402 5.61230458,0.48372093 8.32858365,1.0658141e-14 Z M3.83866117,5.0799557 C3.59059916,6.23875969 3.33544966,7.39756368 3.08561577,8.55636766 C2.92614733,7.42591362 2.71883836,6.30254707 2.53633559,5.17386489 C2.23334556,5.18449612 1.92858365,5.19689922 1.62559362,5.2110742 C1.90023371,6.77386489 2.24574866,8.32248062 2.53987934,9.88172757 C2.88185054,9.9047619 3.22382175,9.92602436 3.56402109,9.94374308 C3.80145187,8.80620155 4.07077635,7.67220377 4.27808532,6.52757475 C4.48893803,7.70586932 4.76357812,8.8717608 4.99923703,10.0447398 C5.3500676,10.0199336 5.79303548,10.1811739 6.08893803,10.027021 C6.5265903,8.32070875 6.87742086,6.58959025 7.27786383,4.87264673 C6.9252614,4.89390919 6.57088709,4.91339978 6.21651278,4.92580288 C6.00211632,6.15370986 5.78063238,7.37984496 5.5804109,8.60952381 C5.3252614,7.41882614 5.08428687,6.22458472 4.84862795,5.02857143 C4.51197236,5.04629014 4.17531677,5.06046512 3.83866117,5.0799557 Z" id="Combined-Shape" fill="#444444"></path>
            <path d="M9.38816283,1.94905869 C11.3372215,1.94905869 13.2862802,1.94905869 15.2353389,1.94905869 C15.2353389,5.72846069 15.2353389,9.50963455 15.2353389,13.2890365 C13.2862802,13.2890365 11.3372215,13.2890365 9.38816283,13.2890365 C9.38816283,12.8159468 9.38816283,12.344629 9.38816283,11.8715393 C10.9243755,11.8715393 12.4588162,11.8715393 13.9950288,11.8715393 C13.9950288,11.6358804 13.9950288,11.3984496 13.9950288,11.1627907 C12.4588162,11.1627907 10.9243755,11.1627907 9.38816283,11.1627907 C9.38816283,10.8668882 9.38816283,10.5727575 9.38816283,10.2768549 C10.9243755,10.2768549 12.4588162,10.2768549 13.9950288,10.2768549 C13.9950288,10.041196 13.9950288,9.80376523 13.9950288,9.56810631 C12.4588162,9.56810631 10.9243755,9.56810631 9.38816283,9.56810631 C9.38816283,9.27220377 9.38816283,8.97807309 9.38816283,8.68217054 C10.9243755,8.68217054 12.4588162,8.68217054 13.9950288,8.68217054 C13.9950288,8.44651163 13.9950288,8.20908084 13.9950288,7.97342193 C12.4588162,7.97342193 10.9243755,7.97342193 9.38816283,7.97342193 C9.38816283,7.67751938 9.38816283,7.3833887 9.38816283,7.08748616 C10.9243755,7.08748616 12.4588162,7.08748616 13.9950288,7.08748616 C13.9950288,6.85182724 13.9950288,6.61439646 13.9950288,6.37873754 C12.4588162,6.37873754 10.9243755,6.37873754 9.38816283,6.37873754 C9.38816283,6.08283499 9.38816283,5.78870432 9.38816283,5.49280177 C10.9243755,5.49280177 12.4588162,5.49280177 13.9950288,5.49280177 C13.9950288,5.25714286 13.9950288,5.01971207 13.9950288,4.78405316 C12.4588162,4.78405316 10.9243755,4.78405316 9.38816283,4.78405316 C9.38816283,4.48815061 9.38816283,4.19401993 9.38816283,3.89811739 C10.9243755,3.89811739 12.4588162,3.89811739 13.9950288,3.89811739 C13.9950288,3.66245847 13.9950288,3.42502769 13.9950288,3.18936877 C12.4588162,3.18936877 10.9243755,3.18936877 9.38816283,3.18936877 C9.38816283,2.7765227 9.38816283,2.36190476 9.38816283,1.94905869 Z" id="path46" fill="#FFFFFF"></path>
        </g>
    </g>
</svg>
