<?xml version="1.0" encoding="UTF-8"?>
<svg width="32px" height="32px" viewBox="0 0 32 32" version="1.1" xmlns="http://www.w3.org/2000/svg" xmlns:xlink="http://www.w3.org/1999/xlink">
    <!-- Generator: Sketch 54.1 (76490) - https://sketchapp.com -->
    <g id="Page-1" stroke="none" stroke-width="1" fill="none" fill-rule="evenodd">
        <path d="M28.4,22.1 C28,21.7 27.3,21.5 26.5,21.2 C25.6,21 24.8,20.8 23.7,20.8 C23.3,20.8 22.6,20.8 22.2,20.8 C22.4,21 22.4,21.2 22.6,21.2 C23.7,22.3 24.5,23.1 25.4,24 C26.3,24.6 26.9,25.1 27.5,25.3 C27.9,25.5 28.4,25.5 28.8,25.3 C29.2,25.1 29.4,25.1 29.4,24.7 C29.4,24.5 29.6,24.1 29.4,23.4 C29.3,22.9 28.8,22.3 28.4,22.1 L28.4,22.1 Z M3,26.8 C2.4,27.4 2.1,27.9 1.9,28.3 C1.9,28.5 1.9,28.7 1.9,28.7 L1.9,28.7 C2.5,28.5 3.2,28.3 4,27.6 C4.6,27 5.7,25.9 7.2,24.2 C7,24.2 6.8,24.4 6.6,24.4 C4.8,25.3 3.6,26.1 3,26.8 Z M14.2,13.7 C13.1,16.3 11.8,18.6 10.8,20.5 C11,20.5 11.2,20.3 11.7,20.3 C13.8,19.7 15.3,19.4 16.6,19.2 C17.2,19.2 17.7,19 18.3,19 C17.9,18.6 17.4,17.9 17,17.5 C15.7,16.3 14.8,15 14.2,13.7 L14.2,13.7 Z M13.2,9 L13.2,9.2 C13.6,7.3 13.8,5.6 14.1,4.3 L14.1,3.7 C14.1,3.3 14.1,2.8 14.1,2.6 L14.1,2.6 C13.9,2.6 13.7,2.4 13.7,2.4 L13.5,2.4 L13.3,2.4 C13.1,2.4 13.1,2.6 12.9,2.6 C12.7,2.8 12.7,3.2 12.7,3.7 C12.7,4.3 12.7,5.2 12.7,5.8 C12.9,6.9 12.9,8 13.2,9 L13.2,9 Z M29.8,21.4 C30.7,22 31.3,22.7 31.7,23.5 C32.1,24.4 32.1,25.4 31.7,26.1 C31.5,26.7 30.8,27.4 30,27.6 C29.1,27.8 28.5,27.8 27.6,27.6 C26.7,27.4 25.9,27 24.8,26.1 C23.7,25.2 22.9,24.4 21.6,23.3 C21.2,22.9 20.5,22.2 20.1,21.6 C19.2,21.6 18.4,21.8 17.3,22 C16,22.2 14.5,22.6 12.6,23.1 C11.7,23.3 10.9,23.7 10,24 C9.8,24.2 9.8,24.4 9.6,24.6 C7.9,27.2 6.4,29.1 4.9,30.4 C3.9,31.3 3.1,31.9 2,31.9 C2,31.9 1.8,31.9 1.6,31.9 C1.2,31.9 0.5,31.7 0.3,31 C0,30.6 0,29.8 0,29.1 C0.2,28.2 0.6,27.4 1.5,26.7 C2.6,25.6 4.1,24.6 5.8,23.7 C6.7,23.3 7.7,22.8 8.8,22.4 C10.1,20.3 12,17.1 13.3,13.4 C13.5,13 13.5,12.5 13.7,12.1 C13.3,11 13.1,10.2 12.8,9.5 C12.4,8.2 12.2,6.9 12.2,6.1 C12.2,5.2 12.2,4.2 12.2,3.3 C12.4,2.4 12.4,1.8 12.8,1.4 C13,1 13.4,0.5 14.1,0.3 C14.3,0.1 14.5,0.1 14.7,0.1 C14.9,0.1 15.3,0.1 15.6,0.1 C15.9,0.1 16,0.3 16.5,0.5 C17.6,1.1 17.6,2 17.4,3.5 L17.4,4.1 C17.2,6 16.8,9 15.8,12 C15.8,12.2 16,12.4 16,12.6 C16.6,14.1 17.7,15.6 19,17.3 C19.6,18.2 20.3,19 20.9,19.9 C22,19.9 23,19.9 24.1,19.9 C25.2,19.9 26.2,20.1 27.3,20.3 C28.2,20.6 28.8,21 29.8,21.4 Z" id="SVGID_pdf_1_" fill="#444444" fill-rule="nonzero"></path>
    </g>
</svg>
