<?xml version="1.0" encoding="UTF-8"?>
<svg width="16px" height="16px" viewBox="0 0 16 16" version="1.1" xmlns="http://www.w3.org/2000/svg" xmlns:xlink="http://www.w3.org/1999/xlink">
    <!-- Generator: Sketch 53.2 (72643) - https://sketchapp.com -->
    <g id="Design-v3" stroke="none" stroke-width="1" fill="none" fill-rule="evenodd">
        <g id="cl-excel-icon" fill="#444444" fill-rule="nonzero">
            <path d="M8.36804987,0 L9.44768101,0 C9.44768101,0.496744183 9.44768101,0.991627886 9.44768101,1.48837211 C11.2670593,1.48837211 13.0864377,1.49209303 14.905816,1.48279072 C15.2129838,1.49581394 15.5510501,1.47348837 15.8182316,1.66139534 C16.0054403,1.93674418 15.9836296,2.28651163 15.9963525,2.60279072 C15.9872647,5.83255813 15.9908998,9.0604651 15.9927174,12.2883721 C15.9836296,12.8297675 16.0417915,13.3823256 15.9309204,13.9162791 C15.8582179,14.3032558 15.4038277,14.3125581 15.1002951,14.3255814 C13.2173021,14.3311628 11.3324915,14.3218605 9.44768101,14.3255814 C9.44768101,14.8837209 9.44768101,15.4418605 9.44768101,16 L8.31897573,16 C5.54901312,15.4846512 2.77359776,15.0083721 0,14.5116279 C0,10.1711628 0,5.83069769 0,1.49023255 C2.78995579,0.993488366 5.57991163,0.504186057 8.36804987,0 Z M9.44768101,2.04651163 C9.44768101,2.41860466 9.44768101,2.79069769 9.44768101,3.16279072 C9.93296974,3.16279072 10.4164409,3.16279072 10.9017296,3.16279072 C10.9017296,3.59627909 10.9017296,4.03162789 10.9017296,4.4651163 C10.4164409,4.4651163 9.93296974,4.4651163 9.44768101,4.4651163 C9.44768101,4.71255813 9.44768101,4.96186048 9.44768101,5.20930231 C9.93296974,5.20930231 10.4164409,5.20930231 10.9017296,5.20930231 C10.9017296,5.64279072 10.9017296,6.07813952 10.9017296,6.51162789 C10.4164409,6.51162789 9.93296974,6.51162789 9.44768101,6.51162789 C9.44768101,6.75906976 9.44768101,7.00837211 9.44768101,7.25581394 C9.93296974,7.25581394 10.4164409,7.25581394 10.9017296,7.25581394 C10.9017296,7.68930231 10.9017296,8.12465115 10.9017296,8.55813952 C10.4164409,8.55813952 9.93296974,8.55813952 9.44768101,8.55813952 C9.44768101,8.80558139 9.44768101,9.0548837 9.44768101,9.30232558 C9.93296974,9.30232558 10.4164409,9.30232558 10.9017296,9.30232558 C10.9017296,9.73581394 10.9017296,10.1711628 10.9017296,10.6046512 C10.4164409,10.6046512 9.93296974,10.6046512 9.44768101,10.6046512 C9.44768101,10.852093 9.44768101,11.1013953 9.44768101,11.3488372 C9.93296974,11.3488372 10.4164409,11.3488372 10.9017296,11.3488372 C10.9017296,11.7823256 10.9017296,12.2176744 10.9017296,12.6511628 C10.4164409,12.6511628 9.93296974,12.6511628 9.44768101,12.6511628 C9.44768101,13.0232558 9.44768101,13.3953488 9.44768101,13.7674419 C11.4469979,13.7674419 13.4463147,13.7674419 15.4456316,13.7674419 C15.4456316,9.8604651 15.4456316,5.95348837 15.4456316,2.04651163 C13.4463147,2.04651163 11.4469979,2.04651163 9.44768101,2.04651163 Z M5.38361509,4.90604649 L5.38361509,4.90604649 C5.07644731,5.67069769 4.71838779,6.4148837 4.47846981,7.20558139 C4.25490981,6.4595349 3.95864741,5.74139534 3.68783086,5.01395351 C3.28796745,5.03627909 2.88810409,5.0604651 2.48824073,5.08465115 C2.90991483,6.03720928 3.35885234,6.97674418 3.76780352,7.9348837 C3.2861499,8.8651163 2.83539483,9.80837211 2.36828169,10.7441861 C2.76632754,10.7609302 3.16437335,10.7776744 3.56241915,10.7832558 C3.84595863,10.0427907 4.19856544,9.33023255 4.44575369,8.5748837 C4.66749614,9.38604649 5.0437312,10.1358139 5.35271653,10.9116279 C5.79074866,10.9432558 6.22696329,10.9711628 6.66499543,10.9972093 C6.16334866,9.95534885 5.65261408,8.92093024 5.15278487,7.87906976 C5.64716137,6.8651163 6.13426766,5.84744187 6.61955639,4.82976745 C6.2069701,4.85023255 5.79438382,4.87627909 5.38361509,4.90604649 Z M11.628754,3.16279072 C12.4775548,3.16279072 13.3245381,3.16279072 14.1733391,3.16279072 C14.1733391,3.59627909 14.1733391,4.03162789 14.1733391,4.4651163 C13.3245381,4.4651163 12.4775548,4.4651163 11.628754,4.4651163 C11.628754,4.03162789 11.628754,3.59627909 11.628754,3.16279072 L11.628754,3.16279072 Z M11.628754,5.20930231 C12.4775548,5.20930231 13.3245381,5.20930231 14.1733391,5.20930231 C14.1733391,5.64279072 14.1733391,6.07813952 14.1733391,6.51162789 C13.3245381,6.51162789 12.4775548,6.51162789 11.628754,6.51162789 C11.628754,6.07813952 11.628754,5.64279072 11.628754,5.20930231 L11.628754,5.20930231 Z M11.628754,7.25581394 C12.4775548,7.25581394 13.3245381,7.25581394 14.1733391,7.25581394 C14.1733391,7.68930231 14.1733391,8.12465115 14.1733391,8.55813952 C13.3245381,8.55813952 12.4775548,8.55813952 11.628754,8.55813952 C11.628754,8.12465115 11.628754,7.68930231 11.628754,7.25581394 L11.628754,7.25581394 Z M11.628754,9.30232558 C12.4775548,9.30232558 13.3245381,9.30232558 14.1733391,9.30232558 C14.1733391,9.73581394 14.1733391,10.1711628 14.1733391,10.6046512 C13.3245381,10.6046512 12.4775548,10.6046512 11.628754,10.6046512 C11.628754,10.1711628 11.628754,9.73581394 11.628754,9.30232558 L11.628754,9.30232558 Z M11.628754,11.3488372 C12.4775548,11.3488372 13.3245381,11.3488372 14.1733391,11.3488372 C14.1733391,11.7823256 14.1733391,12.2176744 14.1733391,12.6511628 C13.3245381,12.6511628 12.4775548,12.6511628 11.628754,12.6511628 C11.628754,12.2176744 11.628754,11.7823256 11.628754,11.3488372 L11.628754,11.3488372 Z" id="Combined-Shape"></path>
        </g>
    </g>
</svg>
