<?xml version="1.0" encoding="utf-8"?>
<!-- Generator: Adobe Illustrator 21.1.0, SVG Export Plug-In . SVG Version: 6.00 Build 0)  -->
<svg version="1.1" id="Layer_1" xmlns="http://www.w3.org/2000/svg" xmlns:xlink="http://www.w3.org/1999/xlink" x="0px" y="0px"
	 viewBox="0 0 32 32" style="enable-background:new 0 0 32 32;" xml:space="preserve">
<style type="text/css">
	.stword0{clip-path:url(#SVGID_word_2_);fill:#2A5699;}
	.stword1{clip-path:url(#SVGID_word_4_);fill:#FFFFFF;}
</style>
<g>
	<g>
		<defs>
			<path id="SVGID_word_1_" d="M1.7,0h28.6C31.2,0,32,0.8,32,1.7v28.6c0,0.9-0.8,1.7-1.7,1.7H1.7C0.8,32,0,31.2,0,30.3V1.7
				C0,0.8,0.8,0,1.7,0z"/>
		</defs>
		<clipPath id="SVGID_word_2_">
			<use xlink:href="#SVGID_word_1_"  style="overflow:visible;"/>
		</clipPath>
		<rect x="-2.1" y="-2.1" class="stword0" width="36.3" height="36.3"/>
	</g>
	<g>
		<defs>
			<path id="SVGID_word_3_" d="M12.3,13.3L12.3,13.3c-0.2,1.1-0.5,2.3-0.7,3.4c-0.2-1.1-0.4-2.2-0.5-3.3c-0.3,0-0.6,0-0.9,0
				c0.3,1.5,0.6,3,0.9,4.6c0.3,0,0.7,0,1,0.1c0.2-1.1,0.5-2.2,0.7-3.3c0.2,1.2,0.5,2.3,0.7,3.4c0.3,0,0.8,0.1,1,0
				c0.4-1.7,0.8-3.4,1.1-5.1c-0.3,0-0.7,0-1,0.1c-0.2,1.2-0.4,2.4-0.6,3.6c-0.2-1.2-0.5-2.3-0.7-3.5C12.9,13.3,12.6,13.3,12.3,13.3z
				 M17.6,10.2c0,0.4,0,0.8,0,1.2c1.5,0,2.9,0,4.4,0c0,0.2,0,0.5,0,0.7c-1.5,0-2.9,0-4.4,0c0,0.3,0,0.6,0,0.9c1.5,0,2.9,0,4.4,0
				c0,0.2,0,0.5,0,0.7c-1.5,0-2.9,0-4.4,0c0,0.3,0,0.6,0,0.9c1.5,0,2.9,0,4.4,0c0,0.2,0,0.5,0,0.7c-1.5,0-2.9,0-4.4,0
				c0,0.3,0,0.6,0,0.9c1.5,0,2.9,0,4.4,0c0,0.2,0,0.5,0,0.7c-1.5,0-2.9,0-4.4,0c0,0.3,0,0.6,0,0.9c1.5,0,2.9,0,4.4,0
				c0,0.2,0,0.5,0,0.7c-1.5,0-2.9,0-4.4,0c0,0.3,0,0.6,0,0.9c1.5,0,2.9,0,4.4,0c0,0.2,0,0.5,0,0.7c-1.5,0-2.9,0-4.4,0
				c0,0.5,0,0.9,0,1.4c1.9,0,3.7,0,5.6,0c0-3.7,0-7.4,0-11.1C21.3,10.2,19.4,10.2,17.6,10.2z M16.6,8.3h1c0,0.5,0,0.9,0,1.4
				c1.8,0,3.6,0,5.4,0c0.4,0,0.7,0.3,0.7,0.7c0,3.4,0,6.8,0,10.3c0,0.4,0,0.7-0.2,1.1c-0.2,0.2-0.6,0.2-0.9,0.2c-1.7,0-3.4,0-5.1,0
				c0,0.5,0,0.9,0,1.4h-1.1c-2.6-0.5-5.2-0.9-7.8-1.4c0-4.1,0-8.1,0-12.2C11.3,9.2,14,8.8,16.6,8.3z"/>
		</defs>
		<clipPath id="SVGID_word_4_">
			<use xlink:href="#SVGID_word_3_"  style="overflow:visible;"/>
		</clipPath>
		<rect x="6.6" y="6.2" class="stword1" width="19.2" height="19.2"/>
	</g>
</g>
</svg>
