<?xml version="1.0" encoding="UTF-8"?>
<svg width="36px" height="36px" viewBox="0 0 36 36" version="1.1" xmlns="http://www.w3.org/2000/svg" xmlns:xlink="http://www.w3.org/1999/xlink">
    <!-- Generator: Sketch 47.1 (45422) - http://www.bohemiancoding.com/sketch -->
    <desc>Created with Sketch.</desc>
    <defs></defs>
    <g id="Page-1" stroke="none" stroke-width="1" fill="none" fill-rule="evenodd">
        <g id="Artboard" transform="translate(-189.000000, -125.000000)" fill-rule="nonzero" fill="#FFFFFF">
            <g id="Group-3" transform="translate(169.000000, 106.000000)">
                <g id="word">
                    <path d="M38.7921411,19.5 L41.1698897,19.5 C41.1698897,20.5866279 41.1698897,21.669186 41.1698897,22.755814 C45.4243897,22.7802326 49.6749135,22.7110465 53.9254374,22.7802326 C54.8320037,22.6866279 55.5437379,23.4069767 55.4602383,24.3348837 C55.5278332,32.3523256 55.4443336,40.3738372 55.5,48.3912791 C55.4602383,49.2133721 55.5795234,50.125 55.1143117,50.8534884 C54.5337911,51.2767442 53.7822953,51.2238372 53.1063467,51.2563953 C49.1262023,51.2360465 45.1500341,51.244186 41.1698897,51.244186 C41.1698897,52.330814 41.1698897,53.4133721 41.1698897,54.5 L38.6847845,54.5 C32.6330565,53.3686047 26.5654237,52.330814 20.5017672,51.244186 C20.497791,41.7494186 20.5017672,32.2546512 20.5017672,22.7639535 C26.5972331,21.6732558 32.6966752,20.6110465 38.7921411,19.5 Z M41.1698897,23.9767442 C41.1698897,24.925 41.1698897,25.8773256 41.1698897,26.8255814 C44.6172275,26.8255814 48.0605892,26.8255814 51.5079271,26.8255814 C51.5079271,27.3668605 51.5079271,27.9122093 51.5079271,28.4534884 C48.0605892,28.4534884 44.6172275,28.4534884 41.1698897,28.4534884 C41.1698897,29.1331395 41.1698897,29.8087209 41.1698897,30.4883721 C44.6172275,30.4883721 48.0605892,30.4883721 51.5079271,30.4883721 C51.5079271,31.0296512 51.5079271,31.575 51.5079271,32.1162791 C48.0605892,32.1162791 44.6172275,32.1162791 41.1698897,32.1162791 C41.1698897,32.7959302 41.1698897,33.4715116 41.1698897,34.1511628 C44.6172275,34.1511628 48.0605892,34.1511628 51.5079271,34.1511628 C51.5079271,34.6924419 51.5079271,35.2377907 51.5079271,35.7790698 C48.0605892,35.7790698 44.6172275,35.7790698 41.1698897,35.7790698 C41.1698897,36.4587209 41.1698897,37.1343023 41.1698897,37.8139535 C44.6172275,37.8139535 48.0605892,37.8139535 51.5079271,37.8139535 C51.5079271,38.3552326 51.5079271,38.9005814 51.5079271,39.4418605 C48.0605892,39.4418605 44.6172275,39.4418605 41.1698897,39.4418605 C41.1698897,40.1215116 41.1698897,40.797093 41.1698897,41.4767442 C44.6172275,41.4767442 48.0605892,41.4767442 51.5079271,41.4767442 C51.5079271,42.0180233 51.5079271,42.5633721 51.5079271,43.1046512 C48.0605892,43.1046512 44.6172275,43.1046512 41.1698897,43.1046512 C41.1698897,43.7843023 41.1698897,44.4598837 41.1698897,45.1395349 C44.6172275,45.1395349 48.0605892,45.1395349 51.5079271,45.1395349 C51.5079271,45.680814 51.5079271,46.2261628 51.5079271,46.7674419 C48.0605892,46.7674419 44.6172275,46.7674419 41.1698897,46.7674419 C41.1698897,47.8540698 41.1698897,48.9366279 41.1698897,50.0232558 C45.5436747,50.0232558 49.9174598,50.0232558 54.2912449,50.0232558 C54.2912449,41.3424419 54.2912449,32.6575581 54.2912449,23.9767442 C49.9174598,23.9767442 45.5436747,23.9767442 41.1698897,23.9767442 Z M28.7165308,31.1680233 L28.7165308,31.1680233 C28.1598672,33.8296512 27.587299,36.4912791 27.0266593,39.152907 C26.6688041,36.5563953 26.2035924,33.9761628 25.7940471,31.3837209 C25.1141223,31.4081395 24.4302214,31.4366279 23.7502966,31.469186 C24.3666027,35.0587209 25.1419555,38.6156977 25.8019994,42.197093 C26.5693999,42.25 27.3368004,42.2988372 28.1002247,42.3395349 C28.6330312,39.7267442 29.2374088,37.122093 29.7026205,34.4930233 C30.1757845,37.1994186 30.7920906,39.8773256 31.320921,42.5715116 C32.1082023,42.5145349 33.1022443,42.8848837 33.7662644,42.530814 C34.748378,38.6116279 35.5356593,34.6354651 36.4342733,30.6918605 C35.6430158,30.7406977 34.8477822,30.7854651 34.0525485,30.8139535 C33.5714322,33.6343023 33.0744111,36.4505814 32.6251041,39.275 C32.0525359,36.5401163 31.511777,33.797093 30.9829467,31.05 C30.2274747,31.0906977 29.4720027,31.1232558 28.7165308,31.1680233 Z" id="Combined-Shape"></path>
                </g>
            </g>
        </g>
    </g>
</svg>
