<?xml version="1.0" encoding="UTF-8"?>
<svg width="510px" height="478px" viewBox="0 0 510 478" version="1.1" xmlns="http://www.w3.org/2000/svg" xmlns:xlink="http://www.w3.org/1999/xlink">
    <!-- Generator: Sketch 53.2 (72643) - https://sketchapp.com -->
    <title>Shape</title>
    <desc>Created with Sketch.</desc>
    <g id="Page-1" stroke="none" stroke-width="1" fill="none" fill-rule="evenodd">
        <path d="M490.6,477.6 L19.4,477.6 C9,477.6 0.5,469.1 0.5,458.5 L0.5,113.5 C0.5,109 2.1,104.6 4.9,101.2 L83.4,7.1 C87,2.8 92.3,0.3 97.8,0.3 L412,0.3 C417.6,0.3 422.8,2.8 426.4,7.1 L504.9,101.2 C507.8,104.6 509.3,109 509.3,113.5 L509.3,458.5 C509.5,469.1 501.1,477.6 490.6,477.6 Z M314.7,133.9 L195.3,133.9 L195.3,288.8 L241.8,242.4 C249.1,235.1 260.9,235.1 268.3,242.4 L314.8,288.8 L314.8,133.9 L314.7,133.9 Z M58.9,95.7 L451.1,95.7 L403.3,38.5 L106.7,38.5 L58.9,95.7 Z M38.2,133.9 L38.2,439.5 L471.8,439.5 L471.8,133.9 L352.4,133.9 L352.4,334.4 C352.4,351.3 332.2,359.9 320.3,348 L255,282.7 L189.7,347.9 C177.8,359.8 157.6,351.3 157.6,334.3 L157.6,133.9 L38.2,133.9 Z" id="Shape" fill="#444444" fill-rule="nonzero"></path>
    </g>
</svg>