<?xml version="1.0" encoding="utf-8"?>
<!-- Generated by IcoMoon.io -->
<!DOCTYPE svg PUBLIC "-//W3C//DTD SVG 1.1//EN" "http://www.w3.org/Graphics/SVG/1.1/DTD/svg11.dtd">
<svg version="1.1" xmlns="http://www.w3.org/2000/svg" xmlns:xlink="http://www.w3.org/1999/xlink" viewBox="0 0 15.84 15.84">
<path fill="#444" d="M13.51,15H9.21a.64.64,0,0,1-.64-.63V11.56H7.27v2.81a.64.64,0,0,1-.64.63H2.33a.64.64,0,0,1-.64-.63V7.49a.64.64,0,0,1,.17-.44L7.45,1a.66.66,0,0,1,.94,0l5.59,6a.64.64,0,0,1,.17.44v6.88A.64.64,0,0,1,13.51,15ZM9.85,13.73h3v-6L7.92,2.4,3,7.74v6H6v-2.8a.64.64,0,0,1,.64-.64H9.21a.64.64,0,0,1,.64.64Z"></path>
</svg>
