<svg width="14" height="14" viewBox="0 0 14 14" fill="none" xmlns="http://www.w3.org/2000/svg">
<path d="M6.97884 0C3.14048 0 0 3.15 0 6.99999C0 10.85 3.14048 14 6.97884 14C10.8172 14 13.9577 10.85 13.9577 6.99999C13.9577 3.15 10.8172 0 6.97884 0ZM6.97884 12.25C4.10007 12.25 1.74471 9.88749 1.74471 6.99999C1.74471 4.1125 4.10007 1.75 6.97884 1.75C9.85762 1.75 12.213 4.1125 12.213 6.99999C12.213 9.88749 9.85762 12.25 6.97884 12.25ZM7.8512 3.5H6.10649V7.87499H10.4683V6.12499H7.8512V3.5Z" fill="#999999"/>
</svg>
