<?xml version="1.0" encoding="UTF-8"?>
<svg width="78px" height="78px" viewBox="0 0 78 78" version="1.1" xmlns="http://www.w3.org/2000/svg" xmlns:xlink="http://www.w3.org/1999/xlink">

    <g id="Upload/Create-Brief+grid" stroke="none" stroke-width="1" fill="none" fill-rule="evenodd">
        <g id="brief-empty-2" transform="translate(-568.000000, -293.000000)" fill="#C4C4C4" fill-rule="nonzero">
            <path d="M607.034011,293.5 L607.034011,295.5 C605.068897,295.5 603.12376,295.655203 601.210795,295.961847 L600.894241,293.987057 C602.911791,293.663648 604.962778,293.5 607.034011,293.5 Z M593.93654,295.785483 L594.616864,297.666216 C592.78176,298.330035 591.005309,299.140366 589.303003,300.088298 L588.329987,298.340946 C590.125903,297.340887 592.000216,296.485916 593.93654,295.785483 Z M582.403689,302.408324 L583.683962,303.944847 C582.185931,305.193046 580.789126,306.559194 579.507905,308.029171 L578.000209,306.715073 C579.351205,305.165042 580.824057,303.724515 582.403689,302.408324 Z M573.771154,312.601568 L575.497898,313.610703 C574.514668,315.293121 573.667469,317.052296 572.965564,318.872663 L571.099479,318.15313 C571.840075,316.232421 572.733904,314.376418 573.771154,312.601568 Z M569.167126,325.010274 L571.134303,325.371127 C570.784598,327.277531 570.586154,329.21858 570.542996,331.181789 L568.543479,331.137833 C568.588977,329.068178 568.798254,327.021163 569.167126,325.010274 Z M569.051371,338.325887 L571.024582,337.999639 C571.343745,339.93 571.816688,341.823145 572.437442,343.664916 L570.542195,344.303694 C569.887164,342.360225 569.388114,340.362575 569.051371,338.325887 Z M573.481672,350.894392 L575.223472,349.91147 C576.181555,351.609256 577.274581,353.227872 578.490905,354.751742 L576.927781,355.999397 C575.645039,354.392315 574.492243,352.685188 573.481672,350.894392 Z M581.905245,361.16918 L583.211275,359.654489 C584.687969,360.927757 586.263981,362.081546 587.923881,363.10363 L586.875235,364.806668 C585.124547,363.728682 583.46248,362.511893 581.905245,361.16918 Z M593.412103,368.020461 L594.119868,366.149881 C595.938835,366.838118 597.813648,367.380068 599.729797,367.769205 L599.331756,369.729196 C597.309892,369.318589 595.331514,368.746702 593.412103,368.020461 Z M606.375731,370.494483 L606.409273,368.494764 C606.615732,368.498227 606.822409,368.499974 607.029166,368.5 C608.787764,368.5 610.526348,368.376386 612.241073,368.131523 L612.523805,370.111437 C610.71547,370.369668 608.882405,370.5 607.029039,370.5 C606.811059,370.499972 606.593284,370.498132 606.375731,370.494483 Z M619.512819,368.432323 L618.864874,366.54019 C620.710818,365.908063 622.500222,365.128587 624.217685,364.210377 L625.160644,365.974132 C623.348669,366.94287 621.460626,367.765314 619.512819,368.432323 Z M631.155861,362.008083 L629.901873,360.450035 C631.420677,359.227633 632.84029,357.885539 634.146187,356.437674 L635.631337,357.7772 C634.254327,359.303909 632.757419,360.719078 631.155861,362.008083 Z M639.958659,351.965906 L638.249492,350.927278 C639.261635,349.261696 640.139068,347.517187 640.872243,345.709367 L642.725623,346.46102 C641.95206,348.368428 641.026366,350.208886 639.958659,351.965906 Z M644.776815,339.634938 L642.816113,339.240412 C643.198586,337.339611 643.429994,335.402249 643.5061,333.441027 L645.504596,333.51858 C645.424352,335.586435 645.180284,337.62979 644.776815,339.634938 Z M645.118256,326.32307 L643.139755,326.615535 C642.853572,324.679529 642.41327,322.778834 641.824562,320.927425 L643.730525,320.32137 C644.351733,322.274984 644.816326,324.280539 645.118256,326.32307 Z M640.90488,313.681532 L639.146503,314.634479 C638.217597,312.920463 637.152364,311.283493 635.962179,309.739192 L637.546306,308.518314 C638.801521,310.146994 639.925047,311.873544 640.90488,313.681532 Z M632.656593,303.263968 L631.325053,304.756282 C629.870212,303.458179 628.314041,302.277782 626.671884,301.227571 L627.749431,299.54267 C629.481344,300.650283 631.122437,301.895095 632.656593,303.263968 Z M621.272273,296.21886 L620.532268,298.076921 C618.725009,297.35715 616.859774,296.782847 614.951227,296.360807 L615.383058,294.407982 C617.396953,294.853318 619.365233,295.459349 621.272273,296.21886 Z M608.346029,293.521947 L608.27906,295.520826 C607.866691,295.50701 607.453381,295.500059 607.039238,295.500001 L607.039518,293.500001 C607.475896,293.500062 607.911439,293.507387 608.346029,293.521947 Z M600.524037,324 C599.971753,324 599.524037,323.552285 599.524037,323 C599.524037,322.447715 599.971753,322 600.524037,322 L614.524037,322 C615.076322,322 615.524037,322.447715 615.524037,323 C615.524037,323.552285 615.076322,324 614.524037,324 L600.524037,324 Z M600.524037,330 C599.971753,330 599.524037,329.552285 599.524037,329 C599.524037,328.447715 599.971753,328 600.524037,328 L614.524037,328 C615.076322,328 615.524037,328.447715 615.524037,329 C615.524037,329.552285 615.076322,330 614.524037,330 L600.524037,330 Z M600.524037,336 C599.971753,336 599.524037,335.552285 599.524037,335 C599.524037,334.447715 599.971753,334 600.524037,334 L614.524037,334 C615.076322,334 615.524037,334.447715 615.524037,335 C615.524037,335.552285 615.076322,336 614.524037,336 L600.524037,336 Z M619.524037,346 C621.733753,346 623.524037,344.209715 623.524037,342 L603.524037,342 L603.524037,343 C603.524037,344.125791 603.152345,345.164449 602.524935,346 L619.524037,346 Z M593.524037,343 L593.524037,317 C593.524037,316.447715 593.971753,316 594.524037,316 L620.524037,316 C621.076322,316 621.524037,316.447715 621.524037,317 L621.524037,337 C621.524037,337.552285 621.076322,338 620.524037,338 C619.971753,338 619.524037,337.552285 619.524037,337 L619.524037,318 L595.524037,318 L595.524037,343 C595.524037,344.657715 596.866322,346 598.524037,346 C600.181753,346 601.524037,344.657715 601.524037,343 L601.524037,341 C601.524037,340.447715 601.971753,340 602.524037,340 L624.524037,340 C625.076322,340 625.524037,340.447715 625.524037,341 L625.524037,342 C625.524037,345.314285 622.838322,348 619.524037,348 L598.524045,348 C595.761753,348 593.524037,345.762285 593.524037,343 Z" id="Combined-Shape"></path>
        </g>
    </g>
</svg>
