<?xml version="1.0" encoding="utf-8"?>
<!-- Generator: Adobe Illustrator 24.1.0, SVG Export Plug-In . SVG Version: 6.00 Build 0)  -->
<svg version="1.1" id="Layer_1" xmlns="http://www.w3.org/2000/svg" xmlns:xlink="http://www.w3.org/1999/xlink" x="0px" y="0px"
	 viewBox="0 0 50 50" style="enable-background:new 0 0 50 50;" xml:space="preserve">
<style type="text/css">
	.st0{fill:#2E2A26;}
</style>
<g>
	<path class="st0" d="M4.5,11.5l1,0.7c0.7-1.1,1.5-2.1,2.4-3L7,8.3C6,9.3,5.2,10.3,4.5,11.5z"/>
	<path class="st0" d="M10,5.5l0.8,1c1-0.8,2.1-1.5,3.2-2.1l-0.6-1.1C12.2,4,11,4.7,10,5.5z"/>
	<path class="st0" d="M4.4,38.4c0.7,1.1,1.6,2.2,2.5,3.2l0.9-0.8c-0.9-1-1.7-2-2.4-3.1L4.4,38.4z"/>
	<path class="st0" d="M16.9,48.3c1.3,0.4,2.6,0.8,3.9,1l0.2-1.2c-1.3-0.2-2.5-0.5-3.7-1L16.9,48.3z"/>
	<path class="st0" d="M9.8,44.4c1.1,0.8,2.2,1.6,3.4,2.2l0.6-1.1c-1.1-0.6-2.2-1.3-3.2-2.1L9.8,44.4z"/>
	<path class="st0" d="M49.6,23c-0.1-1.3-0.3-2.7-0.7-4l-1.2,0.3c0.3,1.2,0.5,2.5,0.6,3.8L49.6,23z"/>
	<path class="st0" d="M1.7,25c0-0.7,0-1.3,0.1-2l-1.2-0.1c-0.1,0.7-0.1,1.4-0.1,2.1c0,0.7,0,1.3,0.1,2l1.2-0.1
		C1.7,26.2,1.7,25.6,1.7,25z"/>
	<path class="st0" d="M17.1,1.7l0.4,1.2c1.2-0.4,2.5-0.7,3.7-0.9L21,0.7C19.7,0.9,18.4,1.2,17.1,1.7z"/>
	<path class="st0" d="M1.2,18.9l1.2,0.3c0.3-1.2,0.7-2.5,1.3-3.6L2.5,15C2,16.3,1.5,17.6,1.2,18.9z"/>
	<path class="st0" d="M1.1,31c0.3,1.3,0.8,2.6,1.3,3.9l1.1-0.5c-0.5-1.2-0.9-2.4-1.2-3.7L1.1,31z"/>
	<path class="st0" d="M44.6,12.2c0.7,1.1,1.3,2.2,1.8,3.4l1.1-0.5c-0.5-1.2-1.2-2.4-1.9-3.6L44.6,12.2z"/>
	<path class="st0" d="M44.6,37.8l1,0.7c0.7-1.1,1.4-2.3,1.9-3.6l-1.1-0.5C45.9,35.6,45.3,36.7,44.6,37.8z"/>
	<path class="st0" d="M47.7,30.8l1.2,0.3c0.3-1.3,0.6-2.7,0.7-4L48.3,27C48.2,28.2,48,29.5,47.7,30.8z"/>
	<path class="st0" d="M40.2,5.6l-0.8,1c1,0.8,2,1.7,2.8,2.6l0.9-0.8C42.3,7.4,41.3,6.4,40.2,5.6z"/>
	<path class="st0" d="M25,48.4h-0.1v1.2H25c1.4,0,2.7-0.1,4.1-0.3l-0.2-1.2C27.6,48.3,26.3,48.4,25,48.4z"/>
	<path class="st0" d="M32.6,47.1l0.4,1.2c1.3-0.4,2.5-1,3.7-1.6l-0.6-1.1C35,46.2,33.8,46.7,32.6,47.1z"/>
	<path class="st0" d="M39.4,43.5l0.8,1c1.1-0.8,2.1-1.8,3-2.8l-0.9-0.8C41.4,41.8,40.4,42.7,39.4,43.5z"/>
	<path class="st0" d="M25.1,1.6c1.3,0,2.6,0.1,3.8,0.3l0.2-1.2c-1.3-0.2-2.7-0.3-4-0.3L25.1,1.6z"/>
	<path class="st0" d="M32.7,2.9c1.2,0.4,2.4,0.9,3.5,1.6l0.6-1.1c-1.2-0.6-2.4-1.2-3.7-1.6L32.7,2.9z"/>
</g>
<g>
	<path class="st0" d="M33.8,17.5h-2.5V15h-3.8v2.5h-5V15h-3.8v2.5h-2.5c-0.7,0-1.2,0.6-1.2,1.2v15c0,0.7,0.6,1.2,1.2,1.2h17.5
		c0.7,0,1.2-0.6,1.2-1.2v-15C35,18.1,34.4,17.5,33.8,17.5z M32.5,32.5h-15V21.2h15V32.5z"/>
	<rect x="20" y="23.8" class="st0" width="2.5" height="2.5"/>
	<rect x="23.8" y="23.8" class="st0" width="2.5" height="2.5"/>
	<rect x="20" y="27.5" class="st0" width="2.5" height="2.5"/>
	<rect x="23.8" y="27.5" class="st0" width="2.5" height="2.5"/>
	<rect x="27.5" y="23.8" class="st0" width="2.5" height="2.5"/>
	<rect x="27.5" y="27.5" class="st0" width="2.5" height="2.5"/>
</g>
</svg>
