<?xml version="1.0" encoding="UTF-8"?>
<svg width="12px" height="11px" viewBox="0 0 12 11" version="1.1" xmlns="http://www.w3.org/2000/svg" xmlns:xlink="http://www.w3.org/1999/xlink">
    <g id="Page-1" stroke="none" stroke-width="1" fill="none" fill-rule="evenodd">
        <g id="shuffle-98-glyph-16" fill="#444444" fill-rule="nonzero">
            <path d="M9,7.5 C7.88025,7.5 7.491,7.10025 6.8685,6.38925 L5.87175,7.5285 C6.684,8.45625 7.55625,9 9,9 L9,10.5 L12,8.25 L9,6 L9,7.5 Z" id="Path"></path>
            <path d="M2.8815,4.11075 L3.87825,2.9715 C3.09075,2.0715 2.17425,1.5 0.88875,1.5 L0,1.5 L0,3 L0.88875,3 C1.8495,3 2.31525,3.46425 2.8815,4.11075 Z" id="Path"></path>
            <path d="M9,1.5 C7.71225,1.5 6.7365,1.98375 6.039,2.781 L2.5815,6.73125 C2.15475,7.2195 1.5375,7.5 0.88875,7.5 L0,7.5 L0,9 L0.88875,9 C1.9695,9 2.9985,8.53275 3.71175,7.719 L7.1685,3.768 C7.66425,3.201 8.27775,3 9,3 L9,4.5 L12,2.25 L9,0 L9,1.5 Z" id="Path"></path>
        </g>
    </g>
</svg>
