<svg width="12" height="12" viewBox="0 0 12 12" fill="none" xmlns="http://www.w3.org/2000/svg">
<path d="M9.62623 0.292894C9.43869 0.105357 9.18434 0 8.91912 0H0.999999C0.447714 0 0 0.447715 0 1V11C0 11.5523 0.447715 12 1 12H11C11.5523 12 12 11.5523 12 11V3.08088C12 2.81566 11.8946 2.56131 11.7071 2.37377L9.62623 0.292894ZM6 10.6667C4.89667 10.6667 4 9.77 4 8.66667C4 7.56333 4.89667 6.66667 6 6.66667C7.10333 6.66667 8 7.56333 8 8.66667C8 9.77 7.10333 10.6667 6 10.6667ZM8.16667 3C8.16667 3.55228 7.71895 4 7.16667 4H2.16667C1.61438 4 1.16667 3.55228 1.16667 3V2.33333C1.16667 1.78105 1.61438 1.33333 2.16667 1.33333H7.16667C7.71895 1.33333 8.16667 1.78105 8.16667 2.33333V3Z" fill="#177DD6"/>
</svg>
