<?xml version="1.0" encoding="UTF-8"?>
<svg width="16px" height="16px" viewBox="0 0 16 16" version="1.1" xmlns="http://www.w3.org/2000/svg" xmlns:xlink="http://www.w3.org/1999/xlink">
    <!-- Generator: Sketch 47.1 (45422) - http://www.bohemiancoding.com/sketch -->

    <desc>Created with Sketch.</desc>
    <defs></defs>
    <g id="UI" stroke="none" stroke-width="1" fill="none" fill-rule="evenodd">
        <g id="16" transform="translate(-265.000000, -591.000000)" fill="#444444">
            <g id="Group-4" transform="translate(265.000000, 591.000000)">
                <path d="M14.6,5.6 L6.4,13.8 C6.9,13.9 7.5,14 8,14 C11.6,14 14.4,10.9 15.6,9.1 C16.1,8.4 16.1,7.5 15.6,6.8 C15.4,6.5 15,6.1 14.6,5.6" id="Fill-252"></path>
                <path d="M14.3,0.3 L11.6,3 C10.5,2.4 9.3,2 8,2 C4.4,2 1.6,5.1 0.4,6.9 C-0.1,7.6 -0.1,8.5 0.4,9.1 C0.9,9.9 1.8,10.9 2.8,11.8 L0.3,14.3 C-0.1,14.7 -0.1,15.3 0.3,15.7 C0.5,15.9 0.7,16 1,16 C1.3,16 1.5,15.9 1.7,15.7 L15.7,1.7 C16.1,1.3 16.1,0.7 15.7,0.3 C15.3,-0.1 14.7,-0.1 14.3,0.3 L14.3,0.3 Z M5.3,9.3 C5.1,8.9 5,8.5 5,8 C5,6.3 6.3,5 8,5 C8.5,5 8.9,5.1 9.3,5.3 L5.3,9.3 L5.3,9.3 Z" id="Fill-253"></path>
            </g>
        </g>
    </g>
</svg>
