<?xml version="1.0" encoding="utf-8"?>
<!-- Generator: Adobe Illustrator 22.0.1, SVG Export Plug-In . SVG Version: 6.00 Build 0)  -->
<svg version="1.1" id="Layer_1" xmlns="http://www.w3.org/2000/svg" xmlns:xlink="http://www.w3.org/1999/xlink" x="0px" y="0px"
	 viewBox="0 0 32 32" style="enable-background:new 0 0 32 32;" xml:space="preserve">
<style type="text/css">
	.st0{fill:#B2B2B3;}
</style>
<g>
	<path class="st0" d="M19.1,10.9c0.5,0,1,0.4,1,1v8c0,0.5-0.5,1-1,1h-8c-0.6,0-1-0.5-1-1v-8c0-0.6,0.4-1,1-1H19.1 M19.1,9.9h-8
		c-1.1,0-2,0.9-2,2v8c0,1.1,0.9,2,2,2h8c1.1,0,2-0.9,2-2v-8C21.1,10.8,20.2,9.9,19.1,9.9L19.1,9.9z"/>
</g>
</svg>
