<?xml version="1.0" encoding="utf-8"?>
<!-- Generator: Adobe Illustrator 22.0.1, SVG Export Plug-In . SVG Version: 6.00 Build 0)  -->
<svg version="1.1" id="Layer_1" xmlns="http://www.w3.org/2000/svg" xmlns:xlink="http://www.w3.org/1999/xlink" x="0px" y="0px"
	 viewBox="0 0 32 32" style="enable-background:new 0 0 32 32;" xml:space="preserve">
<style type="text/css">
	.st0{fill:#B2B2B3;}
</style>
<g>
	<path class="st0" d="M27,11.4c0.7,0,1.2,0.5,1.2,1.2v6.6c0,0.7-0.5,1.2-1.2,1.2H5.4c-0.7,0-1.2-0.5-1.2-1.2v-6.6
		c0-0.7,0.5-1.2,1.2-1.2H27 M27,10.4H5.4c-1.2,0-2.2,1-2.2,2.2v6.6c0,1.2,1,2.2,2.2,2.2H27c1.2,0,2.2-1,2.2-2.2v-6.6
		C29.2,11.4,28.2,10.4,27,10.4L27,10.4z"/>
</g>
</svg>
