<?xml version="1.0" encoding="utf-8"?>
<!-- Generator: Adobe Illustrator 21.1.0, SVG Export Plug-In . SVG Version: 6.00 Build 0)  -->
<svg version="1.1" id="Layer_1" xmlns="http://www.w3.org/2000/svg" xmlns:xlink="http://www.w3.org/1999/xlink" x="0px" y="0px"
	 viewBox="0 0 23 8" style="enable-background:new 0 0 23 8;" xml:space="preserve">
<style type="text/css">
	.st0{fill:#FFFFFF;}
</style>

<desc>Created with Sketch.</desc>
<circle class="st0" cx="11" cy="4" r="2"/>
<path class="st1" d="M20.9,3h-6.1c-0.4-1.7-2-3-3.9-3C9.1,0,7.6,1.3,7.1,3H1.5C0.7,3,0,3.7,0,4.5C0,5.3,0.7,6,1.5,6h6.1
	c0.7,1.2,2,2,3.4,2c1.5,0,2.8-0.8,3.4-2h6.5c0.8,0,1.5-0.7,1.5-1.5C22.4,3.7,21.7,3,20.9,3z M11,6C9.9,6,9,5.1,9,4c0-1.1,0.9-2,2-2
	c1.1,0,2,0.9,2,2C13,5.1,12.1,6,11,6z"/>
</svg>
