<?xml version="1.0" encoding="UTF-8"?>
<svg width="18px" height="16px" viewBox="0 0 18 16" version="1.1" xmlns="http://www.w3.org/2000/svg" xmlns:xlink="http://www.w3.org/1999/xlink">
    <!-- Generator: Sketch 45.1 (43504) - http://www.bohemiancoding.com/sketch -->

    <desc>Created with Sketch.</desc>
    <defs></defs>
    <g id="UI" stroke="none" stroke-width="1" fill="none" fill-rule="evenodd">
        <g id="16" transform="translate(-408.000000, -159.000000)" fill="#444444">
            <path d="M415,170.4 L414.3,169.7 C412.5,167.9 412.5,165.1 414.3,163.3 L417.3,160.3 C418.2,159.4 419.3,159 420.5,159 C421.7,159 422.8,159.5 423.7,160.3 C425.5,162.1 425.5,164.9 423.7,166.7 L423,167.4 L421.6,166 L422.3,165.3 C423.3,164.3 423.3,162.7 422.3,161.7 C421.3,160.7 419.7,160.7 418.7,161.7 L415.7,164.7 C414.7,165.7 414.7,167.3 415.7,168.3 L416.4,169 L415,170.4 Z M413.5,175 C412.3,175 411.2,174.5 410.3,173.7 C408.5,171.9 408.5,169.1 410.3,167.3 L411,166.6 L412.4,168 L411.7,168.7 C410.7,169.7 410.7,171.3 411.7,172.3 C412.7,173.3 414.3,173.3 415.3,172.3 L418.3,169.3 C419.3,168.3 419.3,166.7 418.3,165.7 L417.6,165 L419,163.6 L419.7,164.3 C421.5,166.1 421.5,168.9 419.7,170.7 L416.7,173.7 C415.9,174.5 414.7,175 413.5,175 Z" id="Fill-86"></path>
        </g>
    </g>
</svg>
