<?xml version="1.0" encoding="UTF-8"?>
<svg width="15px" height="10px" viewBox="0 0 15 10" version="1.1" xmlns="http://www.w3.org/2000/svg" xmlns:xlink="http://www.w3.org/1999/xlink">
    <g id="Show-owning-shared-org" stroke="none" stroke-width="1" fill="none" fill-rule="evenodd">
        <g id="1-icon-version-copy" transform="translate(-754.000000, -275.000000)" fill="#B2B2B3" fill-rule="nonzero">
            <g id="Group-5" transform="translate(502.018780, 160.000000)">
                <path d="M260.201649,123.061308 L260.201649,124.057388 L252.5,124.057388 L252.5,123.061308 C252.5,122.544441 252.726771,122.052392 253.131535,121.73149 C253.750234,121.240296 254.823331,120.634433 256.350824,120.634433 C257.878318,120.634433 258.951414,121.240296 259.570114,121.73149 C259.974878,122.052392 260.201649,122.544441 260.201649,123.061308 Z M256.350824,119.778694 C255.169296,119.778694 254.211478,118.820876 254.211478,117.639347 C254.211478,116.457818 255.169296,115.5 256.350824,115.5 C257.532353,115.5 258.490171,116.457818 258.490171,117.639347 C258.490171,118.820876 257.532353,119.778694 256.350824,119.778694 Z M262.340996,119.778694 C261.159467,119.778694 260.201649,118.820876 260.201649,117.639347 C260.201649,116.457818 261.159467,115.5 262.340996,115.5 C263.522524,115.5 264.480343,116.457818 264.480343,117.639347 C264.480343,118.820876 263.522524,119.778694 262.340996,119.778694 Z M265.560285,121.73149 C265.965049,122.052392 266.19182,122.544441 266.19182,123.061308 L266.19182,124.057388 L261.913126,124.057388 L261.913126,123.061308 C261.913126,122.205569 261.592224,121.412299 261.041129,120.796167 C261.431345,120.698613 261.860926,120.634433 262.340996,120.634433 C263.868489,120.634433 264.941586,121.240296 265.560285,121.73149 Z" id="Combined-Shape"></path>
            </g>
        </g>
    </g>
</svg>
