<?xml version="1.0" encoding="utf-8"?>
<!-- Generator: Adobe Illustrator 24.1.0, SVG Export Plug-In . SVG Version: 6.00 Build 0)  -->
<svg class="nc-icon glyph" version="1.1" id="Layer_1" xmlns="http://www.w3.org/2000/svg" xmlns:xlink="http://www.w3.org/1999/xlink" x="0px" y="0px"
	 viewBox="0 0 10 12" style="enable-background:new 0 0 10 12;" xml:space="preserve">
<style type="text/css">
	.st1{fill:none;}
</style>
<path fill="#444444" d="M9.5,5H8V3c0-0.8-0.3-1.6-0.9-2.1S5.8,0,5,0C3.3,0,2,1.3,2,3v2H0.5C0.2,5,0,5.2,0,5.5v6C0,11.8,0.2,12,0.5,12h9
	c0.3,0,0.5-0.2,0.5-0.5v-6C10,5.2,9.8,5,9.5,5z M3,3c0-1.1,0.9-2,2-2c0.5,0,1,0.2,1.4,0.6S7,2.5,7,3v2H3V3z M9,11H1V6h8V11z"/>
<rect x="-734.5" y="-422.3" class="st1" width="1486" height="899"/>
</svg>
