<?xml version="1.0" encoding="utf-8"?>
<!-- Generated by IcoMoon.io -->
<!DOCTYPE svg PUBLIC "-//W3C//DTD SVG 1.1//EN" "http://www.w3.org/Graphics/SVG/1.1/DTD/svg11.dtd">
<svg version="1.1" xmlns="http://www.w3.org/2000/svg" xmlns:xlink="http://www.w3.org/1999/xlink" viewBox="0 0 15.84 15.84">
<path fill="#444" d="M12.86,14.21H3V10.35a.64.64,0,1,1,1.27,0v2.59h7.34V10.35a.64.64,0,1,1,1.27,0Z"></path>
<path fill="#444" d="M1.49,4.93a2.7,2.7,0,0,0-.19,1A2.63,2.63,0,0,0,5.93,7.61a2.61,2.61,0,0,0,4,0A2.63,2.63,0,0,0,14.54,5.9a2.7,2.7,0,0,0-.19-1l-.06-.14-.07-.14-1.6-3H3.22l-1.6,3ZM11.91,7.25A1.36,1.36,0,0,1,10.55,5.9a.64.64,0,1,0-1.27,0,1.36,1.36,0,0,1-2.72,0,.64.64,0,1,0-1.27,0,1.36,1.36,0,0,1-2.71,0,1.41,1.41,0,0,1,.11-.54L4,2.9h7.82l1.33,2.47a1.37,1.37,0,0,1-1.25,1.88Z"></path>
</svg>
