<svg xmlns="http://www.w3.org/2000/svg" 
	xmlns:xlink="http://www.w3.org/1999/xlink" x="0px" y="0px" width="16px" height="16px" viewBox="0 0 16 16">
	<g transform="translate(0, 0)">
		<path fill="#444444" d="M16,6h-1.3C14,3.7,12.3,2,10,1.3V0H6v1.3C3.7,2,2,3.7,1.3,6H0v4h1.3C2,12.3,3.7,14,6,14.7V16h4v-1.3
	c2.3-0.7,4-2.5,4.7-4.7H16V6z M10,12.6V12H6v0.6c-1.1-0.5-2.1-1.4-2.6-2.6H4V6H3.4C3.9,4.9,4.9,3.9,6,3.4V4h4V3.4
	c1.1,0.5,2.1,1.4,2.6,2.6H12v4h0.6C12.1,11.1,11.1,12.1,10,12.6z"></path>
	</g>
</svg>
