<?xml version="1.0" encoding="UTF-8"?>
<svg width="7px" height="7px" viewBox="0 0 7 7" version="1.1" xmlns="http://www.w3.org/2000/svg" xmlns:xlink="http://www.w3.org/1999/xlink">

    <g id="Design-v2" stroke="none" stroke-width="1" fill="none" fill-rule="evenodd">
        <g id="Text-Input-2" transform="translate(-920.000000, -1182.000000)" fill="#707070" fill-rule="nonzero">
            <g id="simple-remove-copy-2" transform="translate(920.000000, 1182.000000)">
                <path d="M6.85,0.15 C6.65,-0.05 6.35,-0.05 6.15,0.15 L3.5,2.8 L0.85,0.15 C0.65,-0.05 0.35,-0.05 0.15,0.15 C-0.05,0.35 -0.05,0.65 0.15,0.85 L2.8,3.5 L0.15,6.15 C-0.05,6.35 -0.05,6.65 0.15,6.85 C0.25,6.95 0.35,7 0.5,7 C0.65,7 0.75,6.95 0.85,6.85 L3.5,4.2 L6.15,6.85 C6.25,6.95 6.4,7 6.5,7 C6.6,7 6.75,6.95 6.85,6.85 C7.05,6.65 7.05,6.35 6.85,6.15 L4.2,3.5 L6.85,0.85 C7.05,0.65 7.05,0.35 6.85,0.15 Z" id="pill-cross"></path>
            </g>
        </g>
    </g>
</svg>
