<?xml version="1.0" encoding="utf-8"?>
<!-- Generator: Adobe Illustrator 23.0.2, SVG Export Plug-In . SVG Version: 6.00 Build 0)  -->
<svg version="1.1" id="Layer_1" xmlns="http://www.w3.org/2000/svg" xmlns:xlink="http://www.w3.org/1999/xlink" x="0px" y="0px"
	 viewBox="0 0 16 16" style="enable-background:new 0 0 16 16;" xml:space="preserve">
<g transform="translate(0, 0)">
	<path fill="#444444" d="M0.3,9.7l6,6C6.5,15.9,6.7,16,7,16s0.5-0.1,0.7-0.3l8-8C15.9,7.5,16,7.3,16,7V1c0-0.6-0.4-1-1-1L9,0
		C8.7,0,8.5,0.1,8.3,0.3l-8,8C-0.1,8.7-0.1,9.3,0.3,9.7z M11,4c0-0.6,0.4-1,1-1c0.6,0,1,0.4,1,1s-0.4,1-1,1C11.4,5,11,4.6,11,4z"/>
</g>
</svg>
