<?xml version="1.0" encoding="utf-8"?>
<!-- Generated by IcoMoon.io -->
<!DOCTYPE svg PUBLIC "-//W3C//DTD SVG 1.1//EN" "http://www.w3.org/Graphics/SVG/1.1/DTD/svg11.dtd">
<svg version="1.1" xmlns="http://www.w3.org/2000/svg" xmlns:xlink="http://www.w3.org/1999/xlink" width="32" height="32" viewBox="0 0 32 32">
<path fill="#444" d="M16 0c-8.836 0-16 7.164-16 16s7.164 16 16 16c8.836 0 16-7.164 16-16s-7.164-16-16-16zM18 27.82v-5.82h-4v5.82c-5.022-0.844-8.974-4.802-9.818-9.82h5.818v-4h-5.818c0.844-5.018 4.796-8.976 9.818-9.82v5.82h4v-5.82c5.022 0.844 8.974 4.802 9.818 9.82h-5.818v4h5.818c-0.844 5.018-4.796 8.976-9.818 9.82zM14 18h4v-4h-4v4z"></path>
</svg>
