<?xml version="1.0" encoding="UTF-8"?>
<svg width="16px" height="16px" viewBox="0 0 16 16" version="1.1" xmlns="http://www.w3.org/2000/svg" xmlns:xlink="http://www.w3.org/1999/xlink">
    <!-- Generator: Sketch 45.1 (43504) - http://www.bohemiancoding.com/sketch -->

    <desc>Created with Sketch.</desc>
    <defs></defs>
    <g id="Page-1" stroke="none" stroke-width="1" fill="none" fill-rule="evenodd">
        <g id="Settings---Organaization-2-Copy-9" transform="translate(-86.000000, -162.000000)" fill="#676767">
            <g id="Group" transform="translate(76.000000, 80.000000)">
                <g id="Group-11" transform="translate(10.000000, 82.000000)">
                    <polyline id="Fill-49" points="14 10 12 10 12 12 10 12 10 14 12 14 12 16 14 16 14 14 16 14 16 12 14 12 14 10"></polyline>
                    <path d="M7,9 L7,9 C4.8,9 3,7.2 3,5 L3,4 C3,1.8 4.8,0 7,0 C9.2,0 11,1.8 11,4 L11,5 C11,7.2 9.2,9 7,9" id="Fill-47"></path>
                    <path d="M5,11 C2.2,11 0,13.2 0,16 L8,16 L8,11 L5,11" id="Fill-48"></path>
                </g>
            </g>
        </g>
    </g>
</svg>
