<svg xmlns="http://www.w3.org/2000/svg" viewBox="0 0 69.2 69.2"><path fill="#454545" d="M34.6 0C15.5 0 0 15.5 0 34.6s15.5 34.6 34.6 34.6 34.6-15.5 34.6-34.6S53.6 0 34.6 0zM3.5 34.6c0-4.5 1-8.8 2.7-12.7L21 62.6c-10.4-5.1-17.5-15.7-17.5-28zm31.1 31.1c-3.1 0-6-.4-8.8-1.3l9.3-27.1 9.6 26.2c.1.2.1.3.2.4-3.2 1.1-6.7 1.8-10.3 1.8zM38.9 20c1.9-.1 3.6-.3 3.6-.3 1.7-.2 1.5-2.7-.2-2.6 0 0-5 .4-8.3.4-3.1 0-8.2-.4-8.2-.4-1.7-.1-1.9 2.5-.2 2.6 0 0 1.6.2 3.3.3l4.8 13.3-6.8 20.4L15.5 20c1.9-.1 3.6-.3 3.6-.3 1.7-.2 1.5-2.7-.2-2.6 0 0-5 .4-8.3.4h-2c5.6-8.4 15.1-14 26-14 8.1 0 15.5 3.1 21 8.2h-.4c-3.1 0-5.2 2.7-5.2 5.5 0 2.6 1.5 4.7 3.1 7.3 1.2 2.1 2.6 4.7 2.6 8.6 0 2.7-1 5.7-2.4 10.1l-3.1 10.4L38.9 20zm11.3 41.5L59.7 34c1.8-4.4 2.4-8 2.4-11.1 0-1.1-.1-2.2-.2-3.2 2.4 4.4 3.8 9.5 3.8 14.9 0 11.4-6.2 21.5-15.5 26.9z"/></svg>