<?xml version="1.0" encoding="UTF-8"?>
<svg width="15px" height="14px" viewBox="0 0 15 14" version="1.1" xmlns="http://www.w3.org/2000/svg" xmlns:xlink="http://www.w3.org/1999/xlink">
    <!-- Generator: Sketch 47.1 (45422) - http://www.bohemiancoding.com/sketch -->
    <desc>Created with Sketch.</desc>
    <defs></defs>
    <g id="1026-1121" stroke="none" stroke-width="1" fill="none" fill-rule="evenodd">
        <g id="Ideation_research_empty_rec_in_table_hover" transform="translate(-232.000000, -617.000000)" fill="#177DD6">
            <g id="Group-10-Copy" transform="translate(152.000000, 470.000000)">
                <g id="add-note" transform="translate(80.000000, 147.000000)">
                    <path d="M3.4657,4.7071 C2.9587,4.7071 2.6207,4.3691 2.6207,3.8621 C2.6207,3.3551 2.9587,3.0181 3.4657,3.0181 C3.9727,3.0181 4.3107,3.3551 4.3107,3.8621 C4.3107,4.3691 3.9727,4.7071 3.4657,4.7071 M3.4657,8.0861 C2.9587,8.0861 2.6207,7.7491 2.6207,7.2421 C2.6207,6.7341 2.9587,6.3961 3.4657,6.3961 C3.9727,6.3961 4.3107,6.7341 4.3107,7.2421 C4.3107,7.7491 3.9727,8.0861 3.4657,8.0861 M3.4657,11.4661 C2.9587,11.4661 2.6207,11.1281 2.6207,10.6211 C2.6207,10.1141 2.9587,9.7761 3.4657,9.7761 C3.9727,9.7761 4.3107,10.1141 4.3107,10.6211 C4.3107,11.1281 3.9727,11.4661 3.4657,11.4661 M7.2127,7.4851 C7.0807,10.1471 9.1317,12.4131 11.7937,12.5451 L11.7937,13.1551 C11.7937,13.6621 11.4547,14.0001 10.9477,14.0001 L1.7757,14.0001 C1.2687,14.0001 0.9307,13.6621 0.9307,13.1551 L0.9307,1.3281 C0.9307,0.8211 1.2687,0.4831 1.7757,0.4831 L10.9477,0.4831 C11.4547,0.4831 11.7937,0.8211 11.7937,1.3281 L11.7937,2.9271 C9.3457,3.0501 7.3367,4.9861 7.2127,7.4851 Z M13,5 L13,7 L15,7 L15,9 L13,9 L13,11 L11,11 L11,9 L9,9 L9,7 L11,7 L11,5 L13,5 Z" id="Combined-Shape"></path>
                </g>
            </g>
        </g>
    </g>
</svg>
