<svg xmlns="http://www.w3.org/2000/svg" width="25" height="24" fill="none" viewBox="0 0 25 24"><path fill="#999" d="M9.47333 9C10.2993 9 10.9688 8.32843 10.9688 7.5C10.9688 6.67157 10.2993 6 9.47333 6C8.64739 6 7.97784 6.67157 7.97784 7.5C7.97784 8.32843 8.64739 9 9.47333 9Z"/><path fill="#999" d="M24.428 18H21.4371V15H18.4462V18H15.4553V21H18.4462V24H21.4371V21H24.428V18Z"/><path fill="#999" d="M12.4643 21H3.49149V3H21.4372V12H24.4281V1.5C24.4281 1.10218 24.2705 0.720644 23.9901 0.43934C23.7096 0.158035 23.3293 0 22.9326 0L1.99602 0C1.5994 0 1.21902 0.158035 0.938563 0.43934C0.658108 0.720644 0.500549 1.10218 0.500549 1.5L0.500549 22.5C0.500549 22.8978 0.658108 23.2794 0.938563 23.5607C1.21902 23.842 1.5994 24 1.99602 24H12.4643V21Z"/><path fill="#999" d="M17.8898 13.8855L15.4552 9L10.9689 15L7.97801 12L4.98712 18H14.1707C14.4126 17.0636 14.8774 16.2 15.5252 15.4834C16.173 14.7668 16.9844 14.2185 17.8898 13.8855Z"/></svg>