<svg xmlns="http://www.w3.org/2000/svg" xmlns:xlink="http://www.w3.org/1999/xlink" id="Layer_1" x="0" y="0" version="1.1" viewBox="0 0 512 512" xml:space="preserve" style="enable-background:new 0 0 512 512"><style type="text/css">.st0{fill-rule:evenodd;clip-rule:evenodd;fill:#444}</style><g><path d="M254,203.8c0.5,0.5,118.7,270,118.6,269.8c-25.9,0-51.6,0-77.4,0c0-0.8-36.7-87.9-36.3-88.3 c-27.9,0-55.6,0-83.5,0C176.1,385.6,255.2,202.9,254,203.8L254,203.8z" class="st0"/><path d="M2.4,38.3c0.6,0,181.4,0,181.5,0C184.4,38.2,3.6,473.6,3,473.1C3,472.4,2.5,38,2.4,38.3L2.4,38.3z" class="st0"/><path d="M322,38.3h187.7c0,1.1-0.1,435.5-0.1,434.9C509.6,474.7,322,38.3,322,38.3L322,38.3z" class="st0"/></g></svg>