<svg xmlns="http://www.w3.org/2000/svg" xmlns:xlink="http://www.w3.org/1999/xlink" width="16" height="16" version="1.1" viewBox="0 0 16 16"><desc>Created with Sketch.</desc><g id="Page-1" fill="none" fill-rule="evenodd" stroke="none" stroke-width="1"><g id="widget_CM" fill="#444" transform="translate(-129.000000, -193.000000)"><g id="alarm" transform="translate(129.000000, 193.000000)"><path id="Fill-27" d="M12.9,12.5 C13.6,11.5 14,10.3 14,9 C14,5.7 11.3,3 8,3 C4.7,3 2,5.7 2,9 C2,10.3 2.4,11.5 3.1,12.5 L1.3,14.3 C0.9,14.7 0.9,15.3 1.3,15.7 C1.5,15.9 1.7,16 2,16 C2.3,16 2.5,15.9 2.7,15.7 L4.5,13.9 C5.5,14.6 6.7,15 8,15 C9.3,15 10.5,14.6 11.5,13.9 L13.3,15.7 C13.5,15.9 13.8,16 14,16 C14.2,16 14.5,15.9 14.7,15.7 C15.1,15.3 15.1,14.7 14.7,14.3 L12.9,12.5 L12.9,12.5 Z M7,10 L7,6 L9,6 L9,8 L11,8 L11,10 L7,10 L7,10 Z"/><path id="Fill-28" d="M11.5,0 C10.4,0 9.4,0.4 8.7,1 C11.9,1.3 14.6,3.4 15.6,6.4 C15.8,5.8 16,5.2 16,4.5 C16,2 14,0 11.5,0"/><path id="Fill-29" d="M7.3,1 C6.6,0.4 5.6,0 4.5,0 C2,0 0,2 0,4.5 C0,5.2 0.2,5.8 0.4,6.4 C1.5,3.5 4.1,1.3 7.3,1"/></g></g></g></svg>