<svg xmlns="http://www.w3.org/2000/svg" xmlns:xlink="http://www.w3.org/1999/xlink" width="16" height="16" version="1.1" viewBox="0 0 16 16"><title>Combined Shape</title><desc>Created with Sketch.</desc><g id="Page-1" fill="none" fill-rule="evenodd" stroke="none" stroke-width="1"><g id="01-api-app-blank-state" fill="#777" transform="translate(-132.000000, -537.000000)"><g id="Group-5" transform="translate(117.500000, 70.000000)"><g id="integrations" transform="translate(14.500000, 465.500000)"><path id="Combined-Shape" d="M4,13.5 L4,17.5 L0,17.5 L0,13.5 L4,13.5 Z M10,13.5 L10,17.5 L6,17.5 L6,13.5 L10,13.5 Z M16,13.5 L16,17.5 L12,17.5 L12,13.5 L16,13.5 Z M4,7.5 L4,11.5 L0,11.5 L0,7.5 L4,7.5 Z M10,7.5 L10,11.5 L6,11.5 L6,7.5 L10,7.5 Z M16,7.5 L16,11.5 L12,11.5 L12,7.5 L16,7.5 Z M4,1.5 L4,5.5 L0,5.5 L0,1.5 L4,1.5 Z M10,1.5 L10,5.5 L6,5.5 L6,1.5 L10,1.5 Z M16,1.5 L16,5.5 L12,5.5 L12,1.5 L16,1.5 Z"/></g></g></g></g></svg>