<?xml version="1.0" encoding="UTF-8"?>
<svg width="16px" height="16px" viewBox="0 0 16 16" version="1.1" xmlns="http://www.w3.org/2000/svg" xmlns:xlink="http://www.w3.org/1999/xlink">
    <!-- Generator: Sketch 45.1 (43504) - http://www.bohemiancoding.com/sketch -->
    <desc>Created with Sketch.</desc>
    <defs></defs>
    <g id="NewsCred-Icons" stroke="none" stroke-width="1" fill="none" fill-rule="evenodd">
        <g id="16x16" transform="translate(-544.000000, -240.000000)" fill="#000000">
            <path d="M559,249 L557,249 C556.448,249 556,248.552 556,248 C556,247.448 556.448,247 557,247 L559,247 C559.552,247 560,247.448 560,248 C560,248.552 559.552,249 559,249 L559,249 Z M556.243,245.171 C555.853,245.562 555.219,245.562 554.829,245.171 C554.438,244.781 554.438,244.147 554.829,243.757 L556.243,242.343 C556.634,241.953 557.267,241.953 557.657,242.343 C558.047,242.733 558.048,243.367 557.657,243.757 L556.243,245.171 L556.243,245.171 Z M552,256 C551.448,256 551,255.552 551,255 L551,253 C551,252.448 551.448,252 552,252 C552.552,252 553,252.448 553,253 L553,255 C553,255.552 552.552,256 552,256 L552,256 Z M552,244 C551.448,244 551,243.552 551,243 L551,241 C551,240.448 551.448,240 552,240 C552.552,240 553,240.448 553,241 L553,243 C553,243.552 552.552,244 552,244 L552,244 Z M547.757,253.657 C547.366,254.047 546.733,254.047 546.343,253.657 C545.953,253.267 545.953,252.633 546.343,252.243 L547.757,250.829 C548.148,250.438 548.781,250.438 549.171,250.829 C549.562,251.219 549.562,251.853 549.171,252.243 L547.757,253.657 L547.757,253.657 Z M547.757,245.171 L546.343,243.757 C545.953,243.367 545.953,242.733 546.343,242.343 C546.733,241.953 547.367,241.953 547.757,242.343 L549.171,243.757 C549.562,244.148 549.562,244.781 549.171,245.171 C548.781,245.562 548.148,245.562 547.757,245.171 L547.757,245.171 Z M548,248 C548,248.552 547.552,249 547,249 L545,249 C544.448,249 544,248.552 544,248 C544,247.448 544.448,247 545,247 L547,247 C547.552,247 548,247.448 548,248 L548,248 Z M556.243,250.828 L557.657,252.242 C558.048,252.633 558.048,253.266 557.657,253.656 C557.266,254.046 556.633,254.046 556.243,253.656 L554.829,252.242 C554.438,251.851 554.438,251.218 554.829,250.828 C555.22,250.438 555.852,250.438 556.243,250.828 L556.243,250.828 Z" id="brightness"></path>
        </g>
    </g>
</svg>
