<svg xmlns="http://www.w3.org/2000/svg" xmlns:xlink="http://www.w3.org/1999/xlink" id="Layer_1" x="0" y="0" version="1.1" viewBox="0 0 32 32" xml:space="preserve" style="enable-background:new 0 0 32 32"><style type="text/css">.stfile0{clip-path:url(#SVGID_file_2_);fill:#34495e}.stfile1,.stfile2{clip-path:url(#SVGID_file_4_);fill:#fff}.stfile2{clip-path:url(#SVGID_file_6_)}.stfile3,.stfile4{clip-path:url(#SVGID_file_8_);fill:#fff}.stfile4{clip-path:url(#SVGID_file_10_)}</style><g><g><defs><path id="SVGID_file_1_" d="M1.7,0h28.6C31.2,0,32,0.8,32,1.7v28.6c0,0.9-0.8,1.7-1.7,1.7H1.7C0.8,32,0,31.2,0,30.3V1.7 C0,0.8,0.8,0,1.7,0z"/></defs><clipPath id="SVGID_file_2_"><use xlink:href="#SVGID_file_1_" style="overflow:visible"/></clipPath><rect width="36.3" height="36.3" x="-2.1" y="-2.1" class="stfile0"/></g><g><defs><path id="SVGID_file_3_" d="M9.8,8.6h9.9l3.3,3.3v11.7H9.8V8.6z M9,7.7v16.7h14.9V11.5l-3.8-3.8H9z"/></defs><clipPath id="SVGID_file_4_"><use xlink:href="#SVGID_file_3_" style="overflow:visible"/></clipPath><rect width="19.2" height="21" x="6.8" y="5.5" class="stfile1"/></g><g><defs><path id="SVGID_file_5_" d="M17.3,13h-4.4c-0.2,0-0.4-0.2-0.4-0.4c0-0.2,0.2-0.4,0.4-0.4h4.4c0.2,0,0.4,0.2,0.4,0.4 C17.7,12.8,17.5,13,17.3,13"/></defs><clipPath id="SVGID_file_6_"><use xlink:href="#SVGID_file_5_" style="overflow:visible"/></clipPath><rect width="9.5" height="5.1" x="10.3" y="9.9" class="stfile2"/></g><g><defs><path id="SVGID_file_7_" d="M19.9,16.5h-7c-0.2,0-0.4-0.2-0.4-0.4c0-0.2,0.2-0.4,0.4-0.4h7c0.2,0,0.4,0.2,0.4,0.4 C20.4,16.3,20.2,16.5,19.9,16.5"/></defs><clipPath id="SVGID_file_8_"><use xlink:href="#SVGID_file_7_" style="overflow:visible"/></clipPath><rect width="12.2" height="5.1" x="10.3" y="13.5" class="stfile3"/></g><g><defs><path id="SVGID_file_9_" d="M19.9,20h-7c-0.2,0-0.4-0.2-0.4-0.4c0-0.2,0.2-0.4,0.4-0.4h7c0.2,0,0.4,0.2,0.4,0.4 C20.4,19.8,20.2,20,19.9,20"/></defs><clipPath id="SVGID_file_10_"><use xlink:href="#SVGID_file_9_" style="overflow:visible"/></clipPath><rect width="12.2" height="5.1" x="10.3" y="17" class="stfile4"/></g></g></svg>