<?xml version="1.0" encoding="utf-8"?>
<!-- Generator: Adobe Illustrator 21.1.0, SVG Export Plug-In . SVG Version: 6.00 Build 0)  -->
<svg version="1.1" id="Layer_1" xmlns="http://www.w3.org/2000/svg" xmlns:xlink="http://www.w3.org/1999/xlink" x="0px" y="0px"
	 viewBox="0 0 32 32" style="enable-background:new 0 0 32 32;" xml:space="preserve">
<style type="text/css">
	.stxls0{clip-path:url(#SVGID_excel_2_);fill:#207245;}
	.stxls1{clip-path:url(#SVGID_excel_4_);fill:#FFFFFF;}
</style>
<g>
	<g>
		<defs>
			<path id="SVGID_excel_1_" d="M1.7,0h28.6C31.2,0,32,0.8,32,1.7v28.6c0,0.9-0.8,1.7-1.7,1.7H1.7C0.8,32,0,31.2,0,30.3V1.7
				C0,0.8,0.8,0,1.7,0z"/>
		</defs>
		<clipPath id="SVGID_excel_2_">
			<use xlink:href="#SVGID_excel_1_"  style="overflow:visible;"/>
		</clipPath>
		<rect x="-2.1" y="-2.1" class="stxls0" width="36.3" height="36.3"/>
	</g>
	<g>
		<defs>
			<path id="SVGID_excel_3_" d="M19.8,19.1c0.8,0,1.6,0,2.4,0c0,0.4,0,0.8,0,1.2c-0.8,0-1.6,0-2.4,0C19.8,19.9,19.8,19.5,19.8,19.1z
				 M19.8,17.2c0.8,0,1.6,0,2.4,0c0,0.4,0,0.8,0,1.2c-0.8,0-1.6,0-2.4,0C19.8,18,19.8,17.6,19.8,17.2z M19.8,15.3c0.8,0,1.6,0,2.4,0
				c0,0.4,0,0.8,0,1.2c-0.8,0-1.6,0-2.4,0C19.8,16.1,19.8,15.7,19.8,15.3z M19.8,13.4c0.8,0,1.6,0,2.4,0c0,0.4,0,0.8,0,1.2
				c-0.8,0-1.6,0-2.4,0C19.8,14.2,19.8,13.8,19.8,13.4z M19.8,11.5c0.8,0,1.6,0,2.4,0c0,0.4,0,0.8,0,1.2c-0.8,0-1.6,0-2.4,0
				C19.8,12.3,19.8,11.9,19.8,11.5z M14,13.1L14,13.1c-0.3,0.7-0.6,1.4-0.8,2.1c-0.2-0.7-0.5-1.4-0.7-2c-0.4,0-0.7,0-1.1,0.1
				c0.4,0.9,0.8,1.8,1.2,2.7c-0.4,0.9-0.9,1.7-1.3,2.6c0.4,0,0.7,0,1.1,0c0.3-0.7,0.6-1.4,0.8-2.1c0.2,0.8,0.6,1.5,0.8,2.2
				c0.4,0,0.8,0.1,1.2,0.1c-0.5-1-0.9-1.9-1.4-2.9c0.5-0.9,0.9-1.9,1.4-2.8C14.8,13.1,14.4,13.1,14,13.1z M17.8,10.4
				c0,0.3,0,0.7,0,1c0.5,0,0.9,0,1.4,0c0,0.4,0,0.8,0,1.2c-0.5,0-0.9,0-1.4,0c0,0.2,0,0.5,0,0.7c0.5,0,0.9,0,1.4,0
				c0,0.4,0,0.8,0,1.2c-0.5,0-0.9,0-1.4,0c0,0.2,0,0.5,0,0.7c0.5,0,0.9,0,1.4,0c0,0.4,0,0.8,0,1.2c-0.5,0-0.9,0-1.4,0
				c0,0.2,0,0.5,0,0.7c0.5,0,0.9,0,1.4,0c0,0.4,0,0.8,0,1.2c-0.5,0-0.9,0-1.4,0c0,0.2,0,0.5,0,0.7c0.5,0,0.9,0,1.4,0
				c0,0.4,0,0.8,0,1.2c-0.5,0-0.9,0-1.4,0c0,0.3,0,0.7,0,1c1.9,0,3.7,0,5.6,0c0-3.6,0-7.3,0-10.9C21.5,10.4,19.6,10.4,17.8,10.4z
				 M16.8,8.5h1c0,0.5,0,0.9,0,1.4c1.7,0,3.4,0,5.1,0c0.3,0,0.6,0,0.9,0.2c0.2,0.3,0.2,0.6,0.2,0.9c0,3,0,6,0,9c0,0.5,0,1-0.1,1.5
				c-0.1,0.4-0.5,0.4-0.8,0.4c-1.8,0-3.5,0-5.3,0c0,0.5,0,1,0,1.6h-1.1c-2.6-0.5-5.2-0.9-7.8-1.4C9,18,9,14,9,9.9
				C11.6,9.5,14.2,9,16.8,8.5z"/>
		</defs>
		<clipPath id="SVGID_excel_4_">
			<use xlink:href="#SVGID_excel_3_"  style="overflow:visible;"/>
		</clipPath>
		<rect x="6.8" y="6.4" class="stxls1" width="19.2" height="19.2"/>
	</g>
</g>
</svg>
