<?xml version="1.0" encoding="UTF-8"?>
<svg width="35px" height="35px" viewBox="0 0 35 35" version="1.1" xmlns="http://www.w3.org/2000/svg" xmlns:xlink="http://www.w3.org/1999/xlink">
    <!-- Generator: Sketch 47.1 (45422) - http://www.bohemiancoding.com/sketch -->
    <desc>Created with Sketch.</desc>
    <defs></defs>
    <g id="Page-1" stroke="none" stroke-width="1" fill="none" fill-rule="evenodd">
        <g id="Artboard" transform="translate(-190.000000, -212.000000)" fill-rule="nonzero" fill="#FFFFFF">
            <g id="Group-4" transform="translate(169.000000, 192.000000)">
                <g id="excel">
                    <path d="M39.3051091,20 L41.6668022,20 C41.6668022,21.0866279 41.6668022,22.169186 41.6668022,23.255814 C45.6466923,23.255814 49.6265825,23.2639535 53.6064726,23.2436047 C54.2784021,23.272093 55.0179222,23.2232558 55.6023816,23.6343023 C56.0119007,24.2366279 55.9641898,25.0017442 55.9920212,25.6936047 C55.9721416,32.7587209 55.9800934,39.8197674 55.9840693,46.880814 C55.9641898,48.0651163 56.091419,49.2738372 55.8488883,50.4418605 C55.6898517,51.2883721 54.6958731,51.3087209 54.0318955,51.3372093 C49.9128483,51.3494186 45.7898252,51.3290698 41.6668022,51.3372093 C41.6668022,52.5581395 41.6668022,53.7790698 41.6668022,55 L39.1977594,55 C33.1384662,53.8726744 27.0672451,52.830814 21,51.744186 C21,42.2494186 21,32.7546512 21,23.2598837 C27.1030283,22.1732558 33.2060567,21.102907 39.3051091,20 Z M41.6668022,24.4767442 C41.6668022,25.2906977 41.6668022,26.1046512 41.6668022,26.9186047 C42.7283713,26.9186047 43.7859645,26.9186047 44.8475336,26.9186047 C44.8475336,27.8668605 44.8475336,28.819186 44.8475336,29.7674419 C43.7859645,29.7674419 42.7283713,29.7674419 41.6668022,29.7674419 C41.6668022,30.3087209 41.6668022,30.8540698 41.6668022,31.3953488 C42.7283713,31.3953488 43.7859645,31.3953488 44.8475336,31.3953488 C44.8475336,32.3436047 44.8475336,33.2959302 44.8475336,34.244186 C43.7859645,34.244186 42.7283713,34.244186 41.6668022,34.244186 C41.6668022,34.7854651 41.6668022,35.330814 41.6668022,35.872093 C42.7283713,35.872093 43.7859645,35.872093 44.8475336,35.872093 C44.8475336,36.8203488 44.8475336,37.7726744 44.8475336,38.7209302 C43.7859645,38.7209302 42.7283713,38.7209302 41.6668022,38.7209302 C41.6668022,39.2622093 41.6668022,39.8075581 41.6668022,40.3488372 C42.7283713,40.3488372 43.7859645,40.3488372 44.8475336,40.3488372 C44.8475336,41.297093 44.8475336,42.2494186 44.8475336,43.1976744 C43.7859645,43.1976744 42.7283713,43.1976744 41.6668022,43.1976744 C41.6668022,43.7389535 41.6668022,44.2843023 41.6668022,44.8255814 C42.7283713,44.8255814 43.7859645,44.8255814 44.8475336,44.8255814 C44.8475336,45.7738372 44.8475336,46.7261628 44.8475336,47.6744186 C43.7859645,47.6744186 42.7283713,47.6744186 41.6668022,47.6744186 C41.6668022,48.4883721 41.6668022,49.3023256 41.6668022,50.1162791 C46.0403078,50.1162791 50.4138135,50.1162791 54.7873192,50.1162791 C54.7873192,41.5697674 54.7873192,33.0232558 54.7873192,24.4767442 C50.4138135,24.4767442 46.0403078,24.4767442 41.6668022,24.4767442 Z M32.776658,30.7319767 L32.776658,30.7319767 C32.1047285,32.4046512 31.3214733,34.0325581 30.7966527,35.7622093 C30.3076152,34.1302326 29.6595412,32.5593023 29.06713,30.9680233 C28.1924288,31.0168605 27.3177277,31.0697674 26.4430266,31.1226744 C27.3654387,33.2063953 28.3474895,35.2616279 29.2420702,37.3575581 C28.1884529,39.3924419 27.2024262,41.455814 26.1806162,43.502907 C27.0513415,43.5395349 27.9220667,43.5761628 28.7927919,43.5883721 C29.4130345,41.9686047 30.1843619,40.4098837 30.7250862,38.7575581 C31.2101478,40.5319767 32.033162,42.172093 32.7090674,43.869186 C33.6672627,43.9383721 34.6214822,43.9994186 35.5796775,44.0563953 C34.4823252,41.7773256 33.3650933,39.5145349 32.2717169,37.2354651 C33.3531655,35.0174419 34.4187105,32.7912791 35.4802796,30.5651163 C34.5777471,30.6098837 33.6752146,30.6668605 32.776658,30.7319767 Z M46.4378993,26.9186047 C48.2946512,26.9186047 50.1474272,26.9186047 52.0041792,26.9186047 C52.0041792,27.8668605 52.0041792,28.819186 52.0041792,29.7674419 C50.1474272,29.7674419 48.2946512,29.7674419 46.4378993,29.7674419 C46.4378993,28.819186 46.4378993,27.8668605 46.4378993,26.9186047 L46.4378993,26.9186047 Z M46.4378993,31.3953488 C48.2946512,31.3953488 50.1474272,31.3953488 52.0041792,31.3953488 C52.0041792,32.3436047 52.0041792,33.2959302 52.0041792,34.244186 C50.1474272,34.244186 48.2946512,34.244186 46.4378993,34.244186 C46.4378993,33.2959302 46.4378993,32.3436047 46.4378993,31.3953488 L46.4378993,31.3953488 Z M46.4378993,35.872093 C48.2946512,35.872093 50.1474272,35.872093 52.0041792,35.872093 C52.0041792,36.8203488 52.0041792,37.7726744 52.0041792,38.7209302 C50.1474272,38.7209302 48.2946512,38.7209302 46.4378993,38.7209302 C46.4378993,37.7726744 46.4378993,36.8203488 46.4378993,35.872093 L46.4378993,35.872093 Z M46.4378993,40.3488372 C48.2946512,40.3488372 50.1474272,40.3488372 52.0041792,40.3488372 C52.0041792,41.297093 52.0041792,42.2494186 52.0041792,43.1976744 C50.1474272,43.1976744 48.2946512,43.1976744 46.4378993,43.1976744 C46.4378993,42.2494186 46.4378993,41.297093 46.4378993,40.3488372 L46.4378993,40.3488372 Z M46.4378993,44.8255814 C48.2946512,44.8255814 50.1474272,44.8255814 52.0041792,44.8255814 C52.0041792,45.7738372 52.0041792,46.7261628 52.0041792,47.6744186 C50.1474272,47.6744186 48.2946512,47.6744186 46.4378993,47.6744186 C46.4378993,46.7261628 46.4378993,45.7738372 46.4378993,44.8255814 L46.4378993,44.8255814 Z" id="Combined-Shape"></path>
                </g>
            </g>
        </g>
    </g>
</svg>
