<?xml version="1.0" encoding="UTF-8"?>
<svg width="35px" height="36px" viewBox="0 0 35 36" version="1.1" 
    xmlns="http://www.w3.org/2000/svg" 
    xmlns:xlink="http://www.w3.org/1999/xlink">
    <!-- Generator: Sketch 53.2 (72643) - https://sketchapp.com -->
    <title>Combined Shape@2x</title>
    <desc>Created with Sketch.</desc>
    <g id="CL-MVP" stroke="none" stroke-width="1" fill="none" fill-rule="evenodd">
        <path d="M24.1531532,8.49541284 C26.7387387,8.49541284 28.8513514,10.7110092 28.8513514,13.4082569 L24.1531532,13.4082569 L24.1531532,8.49541284 Z M33.5495495,4.25688073 C34.1801802,4.25688073 34.7162162,4.80275229 34.6846847,5.44495413 L34.6846847,29.3027523 C34.6846847,29.9449541 34.1801802,30.4908257 33.5495495,30.4908257 L19.8333333,30.4908257 L19.8333333,35.0504587 L2.13162821e-14,31.4541284 L2.13162821e-14,4.09633028 L19.8333333,0.5 L19.8333333,4.25688073 L33.5495495,4.25688073 Z M12.8963964,17.0045872 C13.2117117,15.4633028 13.2117117,13.9541284 12.1396396,12.766055 C11.8243243,12.4449541 11.3828829,12.1559633 10.972973,12.1238532 C9.45945946,12.059633 7.94594595,12.0917431 6.4009009,12.0917431 L6.4009009,23.6834862 L8.38738739,23.6834862 L8.38738739,19.8302752 C9.11261261,19.766055 9.80630631,19.7981651 10.4684685,19.6376147 C11.7612613,19.3165138 12.5810811,18.353211 12.8963964,17.0045872 Z M33.5495495,29.3027523 L33.5495495,5.50917431 L19.8333333,5.50917431 L19.8333333,10.9678899 C20.6846847,9.90825688 21.9774775,9.23394495 23.3963964,9.23394495 L23.3963964,14.146789 L28.0945946,14.146789 C28.0945946,16.8440367 25.981982,19.059633 23.3963964,19.059633 C21.9774775,19.059633 20.6846847,18.3853211 19.8333333,17.3256881 L19.8333333,21.1788991 L30.5225225,21.1788991 L30.5225225,22.5917431 L19.8333333,22.5917431 L19.8333333,24.9357798 L30.5225225,24.9357798 L30.5225225,26.3165138 L19.8333333,26.3165138 L19.8333333,29.3027523 L33.5495495,29.3027523 Z M8.41891892,14.1788991 C9.11261261,14.0504587 9.80630631,13.9541284 10.3738739,14.5963303 C10.8153153,15.1100917 10.8468468,16.2981651 10.4684685,16.940367 C9.9954955,17.8073394 9.20720721,17.646789 8.41891892,17.5825688 L8.41891892,14.1788991 Z" id="Combined-Shape" fill="#FFFFFF" fill-rule="nonzero"></path>
    </g>
</svg>
