<svg xmlns="http://www.w3.org/2000/svg" xmlns:xlink="http://www.w3.org/1999/xlink" width="75" height="75" version="1.1" viewBox="0 0 75 75"><title>Combined Shape@2x</title><desc>Created with Sketch.</desc><g id="CL-MVP" fill="none" fill-rule="evenodd" stroke="none" stroke-width="1"><g id="Nov05-CL-some-selected_mvp" fill="#CB4A32" transform="translate(-381.000000, -1139.000000)"><g id="ppt" transform="translate(381.000000, 1139.000000)"><path id="Combined-Shape" d="M4,0 L71,0 C73.209139,-4.05812251e-16 75,1.790861 75,4 L75,71 C75,73.209139 73.209139,75 71,75 L4,75 C1.790861,75 2.705415e-16,73.209139 0,71 L0,4 C-2.705415e-16,1.790861 1.790861,4.05812251e-16 4,0 Z M45.6531532,29.4954128 L45.6531532,34.4082569 L50.3513514,34.4082569 C50.3513514,31.7110092 48.2387387,29.4954128 45.6531532,29.4954128 Z M55.0495495,25.2568807 L41.3333333,25.2568807 L41.3333333,21.5 L21.5,25.0963303 L21.5,52.4541284 L41.3333333,56.0504587 L41.3333333,51.4908257 L55.0495495,51.4908257 C55.6801802,51.4908257 56.1846847,50.9449541 56.1846847,50.3027523 L56.1846847,26.4449541 C56.2162162,25.8027523 55.6801802,25.2568807 55.0495495,25.2568807 Z M34.3963964,38.0045872 C34.0810811,39.353211 33.2612613,40.3165138 31.9684685,40.6376147 C31.3063063,40.7981651 30.6126126,40.766055 29.8873874,40.8302752 L29.8873874,44.6834862 L27.9009009,44.6834862 L27.9009009,33.0917431 C29.4459459,33.0917431 30.9594595,33.059633 32.472973,33.1238532 C32.8828829,33.1559633 33.3243243,33.4449541 33.6396396,33.766055 C34.7117117,34.9541284 34.7117117,36.4633028 34.3963964,38.0045872 Z M55.0495495,50.3027523 L41.3333333,50.3027523 L41.3333333,47.3165138 L52.0225225,47.3165138 L52.0225225,45.9357798 L41.3333333,45.9357798 L41.3333333,43.5917431 L52.0225225,43.5917431 L52.0225225,42.1788991 L41.3333333,42.1788991 L41.3333333,38.3256881 C42.1846847,39.3853211 43.4774775,40.059633 44.8963964,40.059633 C47.481982,40.059633 49.5945946,37.8440367 49.5945946,35.146789 L44.8963964,35.146789 L44.8963964,30.233945 C43.4774775,30.233945 42.1846847,30.9082569 41.3333333,31.9678899 L41.3333333,26.5091743 L55.0495495,26.5091743 L55.0495495,50.3027523 Z M29.9189189,35.1788991 L29.9189189,38.5825688 C30.7072072,38.646789 31.4954955,38.8073394 31.9684685,37.940367 C32.3468468,37.2981651 32.3153153,36.1100917 31.8738739,35.5963303 C31.3063063,34.9541284 30.6126126,35.0504587 29.9189189,35.1788991 Z"/></g></g></g></svg>