<?xml version="1.0" encoding="UTF-8"?>
<svg width="16px" height="16px" viewBox="0 0 16 16" version="1.1" xmlns="http://www.w3.org/2000/svg" xmlns:xlink="http://www.w3.org/1999/xlink">
    <!-- Generator: Sketch 53.2 (72643) - https://sketchapp.com -->
    <g id="Design-v3" stroke="none" stroke-width="1" fill="none" fill-rule="evenodd">
        <path d="M15.069736,2.5307032 L8.91019247,2.5307032 L8.91019247,3.85258284 L13.7134257,3.85258284 L13.7134257,4.4660654 L8.91019247,4.4660654 L8.91019247,5.50311385 L13.7134257,5.50311385 L13.7134257,6.11659641 L8.91019247,6.11659641 L8.91019247,7.82146445 C9.2972103,7.35504242 9.87274905,7.05881799 10.5159882,7.05881799 C11.6814755,7.05881799 12.6262117,8.02996088 12.6262117,9.2278294 L10.5159882,9.2278294 L10.5159882,11.3968408 C9.87274905,11.3968408 9.2972103,11.1006164 8.91019247,10.6341944 L8.91019247,13.0475471 L15.0705887,13.0475471 L15.069736,2.5307032 Z M15.0705887,13.5733893 L8.91019247,13.5733893 L8.91019247,15.2275136 L-5.15143483e-14,13.6385061 L-5.15143483e-14,1.58900747 L8.91019247,2.66453526e-15 L8.91019247,2.00486101 L15.0705887,2.00486101 C15.3527306,2.00486101 15.5821787,2.24070123 15.5821787,2.5307032 L15.5821787,13.0475471 C15.5821787,13.3375491 15.3527306,13.5733893 15.0705887,13.5733893 Z M3.77018807,7.70662051 C4.12565785,7.6785756 4.47285693,7.61030375 4.68874791,7.98908541 C4.85194512,8.27488065 4.83821746,8.79712959 4.64892916,9.01675634 C4.40413334,9.30071113 4.08788546,9.26022128 3.77018807,9.20851346 L3.77018807,7.70662051 Z M3.74512016,5.01781409 L2.85265141,5.01781409 L2.85265141,10.1379395 C3.54116628,10.1379395 4.22618529,10.1578339 4.90864635,10.1245306 C5.0880439,10.1157665 5.2963463,9.978697 5.42876284,9.83812185 C5.935578,9.30027293 5.93566327,8.63026233 5.78423263,7.96200454 C5.64925813,7.36683882 5.27571217,6.94809315 4.68695735,6.80085733 C4.39364575,6.72750235 4.07978528,6.74099896 3.74512016,6.71269112 L3.74512016,5.01781409 Z M10.8428089,11.7036697 L10.8428089,9.53465832 L12.9530324,9.53465832 C12.9530324,10.7325268 12.0082962,11.7036697 10.8428089,11.7036697 Z" id="Combined-Shape" fill="#444444" fill-rule="nonzero" transform="translate(7.791089, 7.613757) scale(-1, 1) rotate(-180.000000) translate(-7.791089, -7.613757) "></path>
    </g>
</svg>
