<svg xmlns="http://www.w3.org/2000/svg" xmlns:xlink="http://www.w3.org/1999/xlink" width="18" height="16" version="1.1" viewBox="0 0 18 16"><g id="Design-v3" fill="none" fill-rule="evenodd" stroke="none" stroke-width="1"><g id="Group-9" fill="#444" transform="translate(-6.000000, -29.000000)"><path id="Combined-Shape" d="M22.9399517,31.7859003 C23.3041924,31.7859003 23.6,32.106268 23.6,32.5015196 L23.6,44.2395862 C23.6,44.6354008 23.3041924,44.9557686 22.9399517,44.9557686 L6.66004829,44.9557686 C6.29525571,44.9557686 6,44.6348378 6,44.2395862 L6,30.1148081 C6,29.7189934 6.29580759,29.3986257 6.66004829,29.3986257 L11.0480449,29.3986257 C11.2329246,29.3986257 11.3995924,29.4819551 11.5226616,29.6137056 L13.2478379,31.7859003 L22.9399517,31.7859003 Z M15.2570318,40.161237 C15.2570318,39.8084318 15.1022415,39.4725659 14.8259552,39.2535229 C14.4036403,38.9182411 13.6711606,38.5046879 12.6285159,38.5046879 C11.5858713,38.5046879 10.8533915,38.9182411 10.4310766,39.2535229 C10.1547904,39.4725659 10,39.8084318 10,40.161237 L10,40.8411465 L15.2570318,40.8411465 L15.2570318,40.161237 Z M12.6285159,37.9205732 C13.4350099,37.9205732 14.0888025,37.2667807 14.0888025,36.4602866 C14.0888025,35.6537926 13.4350099,35 12.6285159,35 C11.8220219,35 11.1682293,35.6537926 11.1682293,36.4602866 C11.1682293,37.2667807 11.8220219,37.9205732 12.6285159,37.9205732 Z M16.7173185,37.9205732 C17.5238125,37.9205732 18.1776051,37.2667807 18.1776051,36.4602866 C18.1776051,35.6537926 17.5238125,35 16.7173185,35 C15.9108244,35 15.2570318,35.6537926 15.2570318,36.4602866 C15.2570318,37.2667807 15.9108244,37.9205732 16.7173185,37.9205732 Z M18.9147578,39.2535229 C18.4924429,38.9182411 17.7599631,38.5046879 16.7173185,38.5046879 C16.3896301,38.5046879 16.0964046,38.5484965 15.8300483,38.6150856 C16.2062181,39.0356481 16.4252611,39.5771224 16.4252611,40.161237 L16.4252611,40.8411465 L19.3458344,40.8411465 L19.3458344,40.161237 C19.3458344,39.8084318 19.191044,39.4725659 18.9147578,39.2535229 Z"/></g></g></svg>