<svg xmlns="http://www.w3.org/2000/svg" 
	xmlns:xlink="http://www.w3.org/1999/xlink" x="0px" y="0px" width="16px" height="16px" viewBox="0 0 16 16">
	<g transform="translate(0, 0)">
		<path fill="#444444" d="M13,15H1c-0.8,0-1.3-0.9-0.8-1.6L3,9.7V4c0-1.7,1.3-3,3-3h7c1.7,0,3,1.3,3,3v8C16,13.7,14.7,15,13,15z M3,13
	h10c0.6,0,1-0.4,1-1V4c0-0.6-0.4-1-1-1H6C5.4,3,5,3.4,5,4v6c0,0.2-0.1,0.4-0.2,0.6L3,13z"></path>
		<rect data-color="color-2" x="7" y="5" fill="#444444" width="5" height="2"></rect>
		<rect data-color="color-2" x="7" y="9" fill="#444444" width="5" height="2"></rect>
	</g>
</svg>
