<svg xmlns="http://www.w3.org/2000/svg" xmlns:xlink="http://www.w3.org/1999/xlink" width="10" height="10" version="1.1" viewBox="0 0 10 10"><desc>Created with Sketch.</desc><g id="Page-1" fill="none" fill-rule="evenodd" stroke="none" stroke-width="1"><g id="inline-edit" fill="#2E2A26" fill-rule="nonzero" transform="translate(-762.000000, -377.000000)"><path id="Combined-Shape" d="M767.035534,380.62132 L769.863961,377.792893 C770.254485,377.402369 770.88765,377.402369 771.278175,377.792893 C771.668699,378.183418 771.668699,378.816582 771.278175,379.207107 L768.449747,382.035534 L771.278175,384.863961 C771.668699,385.254485 771.668699,385.88765 771.278175,386.278175 C770.88765,386.668699 770.254485,386.668699 769.863961,386.278175 L767.035534,383.449747 L764.207107,386.278175 C763.816582,386.668699 763.183418,386.668699 762.792893,386.278175 C762.402369,385.88765 762.402369,385.254485 762.792893,384.863961 L765.62132,382.035534 L762.792893,379.207107 C762.402369,378.816582 762.402369,378.183418 762.792893,377.792893 C763.183418,377.402369 763.816582,377.402369 764.207107,377.792893 L767.035534,380.62132 Z"/></g></g></svg>