<?xml version="1.0" encoding="UTF-8"?>
<svg width="12px" height="12px" viewBox="0 0 12 12" version="1.1" xmlns="http://www.w3.org/2000/svg" xmlns:xlink="http://www.w3.org/1999/xlink">
    <g id="screens" stroke="none" stroke-width="1" fill="none" fill-rule="evenodd">
        <g id="Campaign_tasks_budget_sum_B" transform="translate(-564.000000, -563.000000)" fill="#B2B2B3" fill-rule="nonzero">
            <g id="currency-exchange-2" transform="translate(564.000000, 563.000000)">
                <path d="M3.83870026,0.460499886 L3.32820039,4.035499 L2.12820069,2.8354993 C0.905682587,4.33101916 0.653944628,6.39695245 1.48155862,8.14228487 C2.30917262,9.88761729 4.06808637,11.0001256 5.99969973,10.9999973 C6.27584203,10.9999973 6.4996996,11.2238548 6.4996996,11.4999971 C6.4996996,11.7761394 6.27584203,11.9999985 5.99969973,11.9999985 C3.66353674,12.0016405 1.53912819,10.6462595 0.556125479,8.52697521 C-0.426877228,6.40769092 -0.0894681553,3.91042751 1.42070086,2.12799947 L1.42070086,2.12799947 L0.264201151,0.971499758 L3.83870026,0.460499886 Z M5.99969985,-1.36779477e-13 C9.31192238,0.00358242292 11.9961158,2.68777586 11.9996998,6 C12.0024795,7.41874422 11.4985565,8.79185471 10.5786986,9.87199755 L10.5786986,9.87199755 L11.7351983,11.0284973 L8.16069919,11.5394971 L8.67119906,7.96449802 L9.87119876,9.16449772 C11.0937169,7.66897785 11.3454548,5.60304456 10.5178408,3.85771214 C9.69022683,2.11237972 7.93131308,0.999871392 5.99969985,1 C5.72355742,1 5.49969985,0.776142182 5.49969985,0.5 C5.49969985,0.223857569 5.72355742,-1.36779477e-13 5.99969985,-1.36779477e-13 Z M6.26769966,2.49999938 L6.26769966,3.19049921 C6.82092947,3.20724938 7.36662821,3.32343477 7.87869926,3.53349912 L7.57269933,4.29999893 C7.15544388,4.13217447 6.71538732,4.02784854 6.26719966,3.99049901 L6.26719966,5.51349863 L6.58519958,5.6349986 C6.99513412,5.76557704 7.37087947,5.98572966 7.68519931,6.27949844 C7.8892376,6.50606887 7.99873927,6.80218857 7.99119923,7.10699823 C8.0008523,7.48998194 7.83805045,7.85706613 7.54769934,8.10699798 C7.1815312,8.39768789 6.73404796,8.56735061 6.26719966,8.59249786 L6.26719966,9.49999938 L5.7111998,9.49999938 L5.7111998,8.61699786 C5.12793907,8.62756131 4.54859494,8.51972098 4.00820022,8.29999794 L4.00820022,7.41649816 C4.27752708,7.54377315 4.559382,7.64264022 4.84920001,7.71149808 C5.13086644,7.78548633 5.42008978,7.82692378 5.7111998,7.83499805 L5.7111998,6.26999844 L5.36119988,6.13999847 C4.98106807,6.01427151 4.63707909,5.79827045 4.35870013,5.51049863 C4.14469248,5.25825207 4.03175424,4.93564773 4.04170021,4.60499886 C4.03434096,4.23526823 4.20095696,3.88352332 4.4917001,3.65499909 C4.84455794,3.38699608 5.26932756,3.23031876 5.7116998,3.2049992 L5.7116998,2.49999938 L6.26769966,2.49999938 Z M6.26719966,6.46599839 L6.26719966,7.79999806 C6.75819954,7.72566475 7.00369948,7.51549813 7.00369948,7.16949822 C7.00820279,7.01783269 6.94630129,6.87175244 6.83419952,6.76949832 C6.6657909,6.63384155 6.47348016,6.53090273 6.26719966,6.46599839 Z M5.7126998,4.007499 C5.52624947,4.02548647 5.34888668,4.09663984 5.20169992,4.21249895 C5.08795977,4.30737164 5.02295659,4.44839548 5.02469997,4.59649886 C5.02062338,4.74339589 5.07450382,4.88599947 5.17469993,4.99349876 C5.33028611,5.13438488 5.51350987,5.24132217 5.7126998,5.30749868 L5.7126998,4.007499 Z" id="Combined-Shape"></path>
            </g>
        </g>
    </g>
</svg>
