<svg xmlns="http://www.w3.org/2000/svg" xmlns:xlink="http://www.w3.org/1999/xlink" width="12" height="9" version="1.1" viewBox="0 0 12 9"><title>Combined Shape</title><desc>Created with Sketch.</desc><g id="0318-errors-+-workflow-comments" fill="none" fill-rule="evenodd" stroke="none" stroke-width="1"><g id="workflow-comment_1" fill="#444" fill-rule="nonzero" transform="translate(-82.000000, -1270.000000)"><g id="Group-9" transform="translate(69.000000, 1247.000000)"><g id="double-arrow-right" transform="translate(19.500000, 27.500000) rotate(-90.000000) translate(-19.500000, -27.500000) translate(15.000000, 21.000000)"><path id="Combined-Shape" d="M5.33561538,5.293 C5.6058798,5.68349985 5.6058798,6.31650015 5.33561538,6.707 L1.87407692,11.707 C1.70025614,11.9669566 1.44285377,12.0712126 1.20080262,11.9796972 C0.958751477,11.8881817 0.76972035,11.6151368 0.706363507,11.2655073 C0.643006663,10.9158779 0.715183903,10.5440745 0.895153846,10.293 L3.86723077,6 L0.895153846,1.707 C0.63278847,1.31462111 0.636540664,0.690915223 0.90358714,0.305181425 C1.17063362,-0.0805523739 1.60243,-0.0859722095 1.87407692,0.293 L5.33561538,5.293 Z M5.33561538,0.293 L8.79715385,5.293 C9.06741826,5.68349985 9.06741826,6.31650015 8.79715385,6.707 L5.33561538,11.707 C5.1617946,11.9669566 4.90439223,12.0712126 4.66234108,11.9796972 C4.42028994,11.8881817 4.23125881,11.6151368 4.16790197,11.2655073 C4.10454513,10.9158779 4.17672236,10.5440745 4.35669231,10.293 L7.32876923,6 L4.35669231,1.707 C4.09432693,1.31462111 4.09807913,0.690915223 4.3651256,0.305181425 C4.63217208,-0.0805523739 5.06396846,-0.0859722095 5.33561538,0.293 Z"/></g></g></g></g></svg>