<svg xmlns="http://www.w3.org/2000/svg" xmlns:xlink="http://www.w3.org/1999/xlink" id="Layer_1" width="12" height="9" x="0" y="0" enable-background="new 0 0 12 9" version="1.1" viewBox="0 0 12 9" xml:space="preserve"><title>Combined Shape</title><desc>Created with Sketch.</desc><g id="_x30_318-errors-_x2B_-workflow-comments"><g id="workflow-comment_1" transform="translate(-82.000000, -1270.000000)"><g id="Group-9" transform="translate(69.000000, 1247.000000)"><g id="double-arrow-right" transform="translate(19.500000, 27.500000) rotate(-90.000000) translate(-19.500000, -27.500000) translate(15.000000, 21.000000)"><path id="Combined-Shape" fill="#444" d="M4.348,6.732c-0.271-0.391-0.271-1.023,0-1.414l3.461-5 c0.174-0.26,0.431-0.364,0.673-0.272C8.725,0.137,8.914,0.41,8.977,0.76c0.064,0.35-0.008,0.722-0.188,0.973L5.816,6.025 l2.973,4.293c0.262,0.393,0.258,1.016-0.009,1.402c-0.268,0.385-0.699,0.391-0.971,0.012L4.348,6.732z M4.348,11.732l-3.461-5 c-0.271-0.391-0.271-1.023,0-1.414l3.461-5c0.174-0.26,0.431-0.364,0.673-0.272C5.263,0.137,5.452,0.41,5.516,0.76 S5.507,1.481,5.327,1.732L2.355,6.025l2.972,4.293c0.262,0.393,0.258,1.016-0.009,1.402C5.051,12.105,4.62,12.111,4.348,11.732z"/></g></g></g></g></svg>