<svg xmlns="http://www.w3.org/2000/svg" xmlns:xlink="http://www.w3.org/1999/xlink" id="Layer_1" x="0" y="0" version="1.1" viewBox="0 0 12 12" xml:space="preserve" style="enable-background:new 0 0 12 12"><path fill="#444" d="M6.9,1.4C6.9,0.6,7.6,0,8.4,0s1.4,0.6,1.4,1.4c0,0.8-0.6,1.4-1.4,1.4S6.9,2.2,6.9,1.4z M8.4,12	c0.8,0,1.4-0.6,1.4-1.4c0-0.8-0.6-1.4-1.4-1.4s-1.4,0.6-1.4,1.4C6.9,11.4,7.6,12,8.4,12z M3.6,2.8c0.8,0,1.4-0.6,1.4-1.4	C5.1,0.6,4.4,0,3.6,0S2.2,0.6,2.2,1.4C2.2,2.2,2.9,2.8,3.6,2.8z M8.4,7.4c0.8,0,1.4-0.6,1.4-1.4S9.1,4.6,8.4,4.6S6.9,5.2,6.9,6	S7.6,7.4,8.4,7.4z M3.6,7.4c0.8,0,1.4-0.6,1.4-1.4S4.4,4.6,3.6,4.6S2.2,5.2,2.2,6S2.9,7.4,3.6,7.4z M3.6,12c0.8,0,1.4-0.6,1.4-1.4	c0-0.8-0.6-1.4-1.4-1.4s-1.4,0.6-1.4,1.4C2.2,11.4,2.9,12,3.6,12z"/></svg>