<svg xmlns="http://www.w3.org/2000/svg" xmlns:xlink="http://www.w3.org/1999/xlink" id="Layer_1" x="0" y="0" version="1.1" viewBox="0 0 32 32" xml:space="preserve" style="enable-background:new 0 0 32 32"><style type="text/css">.st0{fill:#444}</style><path d="M16,25.5c-4.4,0-8-3.6-8-8c0-3.7,2.5-6.2,4.7-8.4c1.5-1.5,2.9-2.9,3.3-4.4c0.4,1.6,1.8,3,3.3,4.4 c2.2,2.2,4.7,4.7,4.7,8.4C24,21.9,20.4,25.5,16,25.5z M26.3,5.8C23.5,3,19.9,1.5,16,1.5C8,1.5,1.5,8,1.5,16S8,30.6,16,30.6 S30.6,24,30.6,16C30.6,12.2,29,8.5,26.3,5.8z" class="st0"/></svg>