<?xml version="1.0" encoding="utf-8"?>
<!-- Generator: Adobe Illustrator 22.1.0, SVG Export Plug-In . SVG Version: 6.00 Build 0)  -->
<svg version="1.1" id="Layer_1" xmlns="http://www.w3.org/2000/svg" xmlns:xlink="http://www.w3.org/1999/xlink" x="0px" y="0px"
viewBox="0 0 32 32" style="enable-background:new 0 0 32 32;" xml:space="preserve">
<style type="text/css">
.st0{fill:#444444;}
</style>
<path class="st0" d="M16,25.5c-4.4,0-8-3.6-8-8c0-3.7,2.5-6.2,4.7-8.4c1.5-1.5,2.9-2.9,3.3-4.4c0.4,1.6,1.8,3,3.3,4.4
c2.2,2.2,4.7,4.7,4.7,8.4C24,21.9,20.4,25.5,16,25.5z M26.3,5.8C23.5,3,19.9,1.5,16,1.5C8,1.5,1.5,8,1.5,16S8,30.6,16,30.6
S30.6,24,30.6,16C30.6,12.2,29,8.5,26.3,5.8z"/>
</svg>

