<svg xmlns="http://www.w3.org/2000/svg" id="Layer_1" x="0" y="0" version="1.1" viewBox="0 0 75 75" xml:space="preserve"><style>.st0,.st1{fill:#dbdbdb}.st1{fill-rule:evenodd;clip-rule:evenodd}</style><path d="M37.5 0c-.1 0-.1 0 0 0-.1 0-.1 0 0 0-.1 0-.1 0 0 0-.1 0-.1 0 0 0-.1 0-.1 0 0 0-.1 0-.1 0 0 0h-.1-.1-.1-.1H36.8c-1.6.1-3.2.2-4.8.5l.3 2c2-.3 4.1-.5 6.1-.5V0h-.9zM24.8 2.2c-.1 0-.2.1-.2.1h-.1c-1.6.6-3.1 1.3-4.6 2.1-.2.1-.3.2-.5.3l1 1.7c1.8-1 3.7-1.9 5.6-2.6l-1.2-1.6zM13.5 8.7c-.2.2-.4.4-.7.6-1.8 1.6-2.9 2.7-3.9 3.9l1.5 1.3c1.3-1.6 2.8-3 4.4-4.3l-1.3-1.5zm-8.3 9.8c-.5.8-.9 1.6-1.3 2.5V21.9c-.3.8-.7 1.5-1 2.3l1.9.7c.7-1.9 1.6-3.8 2.6-5.5l-2.2-.9zM.6 30.6c-.1.5-.2 1.1-.3 1.6-.2 2-.3 3.4-.3 4.9h2c0-2 .2-4.1.6-6.1l-2-.4zm1.9 12.6l-2 .3c.3 1.8.7 3.6 1.3 5.3.1.2.2.5.2.7l2-.3c-.7-1.9-1.2-3.9-1.5-6zm4 11.6l-1.7 1c.2.3.3.6.5.8v.1c.9 1.5 1.9 2.9 3 4.2l1.6-1.3c-1.2-1.3-2.4-3-3.4-4.8zm7.7 9.5l-1.3 1.5h.1l.2.2 1.5 1.2s.1 0 .1.1l.1.1h.2l1.8 1.2 1-1.7c-.5 0-2.1-1.3-3.7-2.6zm10.5 6.3l-.7 1.9c.1 0 .1 0 .2.1h.1c1.9.7 3.8 1.3 5.8 1.6l.4-2c-1.9-.3-3.9-.8-5.8-1.6zm18.2 2c-1.8.3-3.6.4-5.4.4h-.8v2h.7c.6 0 1.3-.1 1.9-.1.4 0 .8-.1 1.1-.2l2.5-2.1zm11.6-3.9c-1.8 1-3.7 1.8-5.6 2.5l.6 1.9c.3-.1.6-.2.8-.3h.2c1.5-.6 3-1.3 4.4-2l-.4-2.1zm9.5-7.6c-1.4 1.5-2.9 3-4.5 4.2l1.2 1.6c.1-.1.2-.1.3-.2 0 0 .1 0 .1-.1h.1c1-.9 2-1.9 2.9-2.9l-.1-2.6zm6.5-10.4c-.8 1.9-1.7 3.7-2.8 5.5l1.7 1.1c.3-.6.7-1.1 1-1.7v-.1c.6-1.1 1.1-2.3 1.6-3.5l-1.5-1.3zm2.5-12c-.1 2.1-.3 4.1-.7 6.1l2 .4.6-3.6v-.1-.1-.1-.1-1L73 38.7zm.2-12.8l-1.9.6c.6 1.9 1.1 4 1.4 6l2-.3c-.4-2.1-.9-4.2-1.5-6.3zm-6.1-11.4l-1.6 1.2c1.3 1.6 2.4 3.4 3.3 5.2l1.8-.9c-.2-.5-.5-.9-.8-1.4v-.1-.1-.1c-1.8-2.7-2.2-3.2-2.7-3.8zm-9.6-8.7l-1.1 1.7c1.7 1.1 3.4 2.3 4.9 3.7l1.3-1.5c-.2-.2-.4-.4-.6-.5-.2-.1-.3-.3-.5-.4l-.3-.3c-1.1-.9-2.3-1.9-3.7-2.7zM45.6.9l-.4 2c2 .4 4 1.1 5.9 1.8l.8-1.8c-1.2-.5-2.4-.9-3.7-1.3h-.1c-1.2-.4-1.9-.6-2.5-.7zM37.5 0v2h1.6l.1-2h-1.7c.1 0 .1 0 0 0 .1 0 .1 0 0 0 .1 0 .1 0 0 0 .1 0 .1 0 0 0 .1 0 .1 0 0 0 .1 0 .1 0 0 0z" class="st0"/><path d="M27.9 53.4c0 .4-.3.8-.7.8h-5.7c-.4 0-.7-.4-.7-.8V42.9c0-.4.3-.8.7-.8h5.7c.4 0 .7.4.7.8v10.5zM41 53.4c0 .4-.3.8-.7.8h-5.7c-.4 0-.7-.4-.7-.8V21.6c0-.4.3-.8.7-.8h5.7c.4 0 .7.4.7.8v31.8zM54.2 53.4c0 .4-.3.8-.7.8h-5.7c-.4 0-.7-.4-.7-.8V31.7c0-.4.3-.8.7-.8h5.7c.4 0 .7.4.7.8v21.7z" class="st1"/></svg>