<svg xmlns="http://www.w3.org/2000/svg" xmlns:xlink="http://www.w3.org/1999/xlink" width="16" height="16" x="0" y="0" viewBox="0 0 16 16"><g transform="translate(0, 0)"><path fill="#444" d="M15,2h-2V0h-3v2H6V0H3v2H1C0.448,2,0,2.448,0,3v12c0,0.552,0.448,1,1,1h14c0.552,0,1-0.448,1-1V3	C16,2.448,15.552,2,15,2z M14,14H2V5h12V14z"/><rect width="2" height="2" x="4" y="7" fill="#444" data-color="color-2"/><rect width="2" height="2" x="7" y="7" fill="#444" data-color="color-2"/><rect width="2" height="2" x="4" y="10" fill="#444" data-color="color-2"/><rect width="2" height="2" x="7" y="10" fill="#444" data-color="color-2"/><rect width="2" height="2" x="10" y="7" fill="#444" data-color="color-2"/><rect width="2" height="2" x="10" y="10" fill="#444" data-color="color-2"/></g></svg>