<svg xmlns="http://www.w3.org/2000/svg" width="512" height="512" version="1.1" viewBox="0 0 512 512"><path fill="#000" d="M447.574 178.077l-0.228-0.185v-1.038h-1.024l-179.57-176.298v-0.554h-171.008v0.213h-0.043c-16.597 0-30.066 12.829-30.99 28.985h-0.156v1.692c0 0 0 0.071 0 0.128v0 448.995c0 0.413-0.128 0.754-0.128 1.166s0.128 0.81 0.128 1.223v3.47h0.327c2.233 14.137 14.023 24.974 28.757 25.913v0.213h325.988v-0.356c14.905-1.635 26.567-13.554 27.563-28.416h0.142v-304.925l0.242-0.227zM402.262 467.442h-292.565v-429.298h130.19v183.239h162.375v246.059zM284.928 81.237l97.394 95.616h-97.394v-95.616z"/></svg>