<svg xmlns="http://www.w3.org/2000/svg" xmlns:xlink="http://www.w3.org/1999/xlink" width="14" height="14" version="1.1" viewBox="0 0 14 14"><desc>Created with Sketch.</desc><g id="0522-v1" fill="none" fill-rule="evenodd" stroke="none" stroke-width="1"><g id="Artboard-2" fill="#888" transform="translate(-708.000000, -1212.000000)"><g id="Group" transform="translate(708.000000, 1212.000000)"><g id="Group-6"><path id="Fill-132" d="M5.25,0 L0.875,0 C0.35,0 0,0.35 0,0.875 L0,5.25 C0,5.775 0.35,6.125 0.875,6.125 L5.25,6.125 C5.775,6.125 6.125,5.775 6.125,5.25 L6.125,0.875 C6.125,0.35 5.775,0 5.25,0"/><path id="Fill-133" d="M13.125,0 L8.75,0 C8.225,0 7.875,0.35 7.875,0.875 L7.875,5.25 C7.875,5.775 8.225,6.125 8.75,6.125 L13.125,6.125 C13.65,6.125 14,5.775 14,5.25 L14,0.875 C14,0.35 13.65,0 13.125,0"/><path id="Fill-134" d="M5.25,7.875 L0.875,7.875 C0.35,7.875 0,8.225 0,8.75 L0,13.125 C0,13.65 0.35,14 0.875,14 L5.25,14 C5.775,14 6.125,13.65 6.125,13.125 L6.125,8.75 C6.125,8.225 5.775,7.875 5.25,7.875"/><path id="Fill-135" d="M8.75,7.875 C8.225,7.875 7.875,8.225 7.875,8.75 L7.875,13.125 C7.875,13.65 8.225,14 8.75,14 L13.125,14 C13.65,14 14,13.65 14,13.125 L14,8.75 C14,8.225 13.65,7.875 13.125,7.875 L8.75,7.875 Z"/></g></g></g></g></svg>