<svg version="1.1" id="Layer_1" xmlns="http://www.w3.org/2000/svg" xmlns:xlink="http://www.w3.org/1999/xlink" x="0px" y="0px"
     viewBox="0 0 32 32" xml:space="preserve">
<g>
    <g fill="#444">
        <path d="M28.4,16c0-7.8-6.4-14.2-14.2-14.2S0,8.2,0,16c0,7.8,6.4,14.2,14.2,14.2c2.9,0,5.6-0.9,7.8-2.3l6.4,2.3
            l-2.3-6.4C27.6,21.6,28.4,18.9,28.4,16z M19.4,25.4h-2.3v-7.1c0-0.5,0-1-0.2-1.4c-0.1-0.4-0.3-0.7-0.6-0.9
            c-0.2-0.2-0.5-0.4-0.8-0.5c-0.3-0.1-0.6-0.2-1-0.2c-0.5,0-0.9,0.1-1.3,0.2c-0.4,0.1-0.7,0.4-1,0.7c-0.3,0.3-0.5,0.7-0.6,1.2
            c-0.2,0.5-0.2,1.1-0.2,1.7v6.2H9.1v-19h2.3v8.9c0.2-0.6,0.8-1.1,1.4-1.5c0.7-0.4,1.4-0.6,2.3-0.6c0.6,0,1.1,0.1,1.6,0.3
            c0.5,0.2,1,0.4,1.3,0.8c0.4,0.4,0.7,0.8,0.9,1.4c0.2,0.6,0.3,1.2,0.3,2V25.4z"/>
    </g>
    <g>
        <path d="M31.1,28.5c0.5,0,0.9,0.4,0.9,0.8c0,0.5-0.4,0.8-0.9,0.8c-0.5,0-0.9-0.4-0.9-0.8
            C30.2,28.9,30.6,28.5,31.1,28.5 M31.1,30.1c0.4,0,0.7-0.3,0.7-0.7c0-0.4-0.3-0.7-0.7-0.7c-0.4,0-0.7,0.3-0.7,0.7
            C30.4,29.8,30.7,30.1,31.1,30.1 M30.8,28.9h0.4c0.2,0,0.4,0.1,0.4,0.3c0,0.2-0.1,0.2-0.3,0.3l0.3,0.4h-0.2l-0.3-0.4h-0.2v0.4h-0.2
            V28.9z M30.9,29.3h0.2c0.1,0,0.3,0,0.3-0.2c0-0.1-0.1-0.1-0.2-0.1h-0.2V29.3z"/>
    </g>
</g>
</svg>
