<?xml version="1.0" encoding="UTF-8"?>
<svg width="16px" height="16px" viewBox="0 0 16 16" version="1.1" xmlns="http://www.w3.org/2000/svg" xmlns:xlink="http://www.w3.org/1999/xlink">
    <!-- Generator: Sketch 44.1 (41455) - http://www.bohemiancoding.com/sketch -->
    <desc>Created with Sketch.</desc>
    <defs></defs>
    <g id="UI" stroke="none" stroke-width="1" fill="none" fill-rule="evenodd">
        <g id="16" transform="translate(-505.000000, -351.000000)" fill="#444444">
            <path d="M513,351 C508.6,351 505,354.6 505,359 C505,363.4 508.6,367 513,367 C517.4,367 521,363.4 521,359 C521,354.6 517.4,351 513,351 L513,351 Z M513,364 C512.4,364 512,363.6 512,363 C512,362.4 512.4,362 513,362 C513.6,362 514,362.4 514,363 C514,363.6 513.6,364 513,364 L513,364 Z M514.5,359.4 C514,359.7 514,359.8 514,360 L514,361 L512,361 L512,360 C512,358.7 512.8,358.1 513.4,357.7 C513.9,357.4 514,357.3 514,357 C514,356.4 513.6,356 513,356 C512.6,356 512.3,356.2 512.1,356.5 L511.6,357.4 L509.9,356.4 L510.4,355.5 C510.9,354.6 511.9,354 513,354 C514.7,354 516,355.3 516,357 C516,358.4 515.1,359 514.5,359.4 L514.5,359.4 Z" id="Fill-185"></path>
        </g>
    </g>
</svg>
