<svg xmlns="http://www.w3.org/2000/svg" xmlns:xlink="http://www.w3.org/1999/xlink" x="0" y="0" version="1.1" viewBox="0 0 54.5 79.7" xml:space="preserve" style="enable-background:new 0 0 54.5 79.7"><g id="black_background" fill="none"><rect width="500" height="250" x="-75" y="-88" display="inline"/></g><g id="logo-horizontal-white_1_"><g><g><path fill="#FFF" d="M27.3,2.2C27.3,2.2,27.3,2.2,27.3,2.2c4.6,0,8.9,1.2,12.6,3.4c3.7-2.1,7.9-3.3,12.4-3.3c0,0,0.1,0,0.1,0 v25.1v50.2C24.7,77.5,2.1,55.1,2.2,27.3V2.2c0,0,0.1,0,0.1,0c4.5,0,8.8,1.2,12.4,3.3C18.4,3.4,22.7,2.2,27.3,2.2 M27.3,0L27.3,0 c-4.4,0-8.7,1.1-12.6,3.1c-3.8-2-8.1-3-12.4-3l-0.1,0L0,0.1v2.2v25.1c0,14,5.4,27.1,15.3,37c9.9,9.9,23,15.3,37,15.4l2.2,0v-2.2 V27.3V2.2V0.1l-2.2,0l-0.1,0c-4.3,0-8.6,1-12.4,3C36,1.1,31.7,0,27.3,0L27.3,0L27.3,0L27.3,0z"/><g><path fill="#FFF" d="M38.1,11.3c-5.6,0-10.2,4.3-10.7,9.8l0-0.1l0,0.1c-0.5-5.5-5.1-9.8-10.7-9.8C10.6,11.2,5.8,16,5.8,22 c0,5.9,4.8,10.8,10.7,10.8c2.1,0,4.1-0.6,5.7-1.7l5,5l5-5c1.7,1.1,3.6,1.7,5.7,1.7c5.9,0,10.8-4.8,10.8-10.7 C48.8,16.2,44,11.3,38.1,11.3z M16.5,29.2c-4,0-7.2-3.2-7.2-7.2c0-4,3.2-7.2,7.2-7.2c0.7,0,1.5,0.1,2.1,0.3 c-1.2,0.6-2.1,1.8-2.1,3.3c0,2,1.6,3.6,3.6,3.6c1.5,0,2.7-0.9,3.3-2.1c0.2,0.7,0.3,1.4,0.3,2.1C23.7,26,20.5,29.2,16.5,29.2z M38,29.3c-4,0-7.2-3.2-7.2-7.2c0-0.7,0.1-1.5,0.3-2.1c0.6,1.3,1.8,2.1,3.3,2.1c2,0,3.6-1.6,3.6-3.6c0-1.5-0.9-2.7-2.1-3.3 c0.7-0.2,1.4-0.3,2.1-0.3c4,0,7.2,3.2,7.2,7.2C45.2,26.1,42,29.3,38,29.3z"/></g></g></g></g></svg>