<svg xmlns="http://www.w3.org/2000/svg" xmlns:xlink="http://www.w3.org/1999/xlink" id="logo-horizontal-black" x="0" y="0" version="1.1" viewBox="0 0 50.5 75.8" xml:space="preserve" style="enable-background:new 0 0 50.5 75.8"><g><path fill="#444" d="M36.1,12.8c-0.7,0-1.5,0.1-2.1,0.3c1.3,0.6,2.1,1.8,2.1,3.3c0,2-1.6,3.6-3.6,3.6c-1.5,0-2.7-0.9-3.3-2.1 c-0.2,0.7-0.3,1.4-0.3,2.1c0,4,3.2,7.2,7.2,7.2c4,0,7.2-3.2,7.2-7.2C43.3,16.1,40.1,12.8,36.1,12.8z"/><path fill="#444" d="M18,20c-2,0-3.6-1.6-3.6-3.6c0-1.5,0.9-2.7,2.1-3.3c-0.7-0.2-1.4-0.3-2.1-0.3c-4,0-7.2,3.2-7.2,7.2 c0,4,3.2,7.2,7.2,7.2c4,0,7.2-3.2,7.2-7.2c0-0.7-0.1-1.5-0.3-2.1C20.8,19.1,19.5,20,18,20z"/><path fill="#444" d="M37.9,3.4C34.2,1.3,29.9,0,25.3,0c-4.6,0-9,1.2-12.7,3.4C8.9,1.3,4.6,0.1,0,0.1v25.3 c-0.1,27.9,22.6,50.4,50.5,50.5V25.3V0.1C45.9,0.1,41.6,1.3,37.9,3.4z M36.1,30.9c-2.1,0-4.1-0.6-5.8-1.7l-5.1,5l-5-5.1 c-1.7,1.1-3.7,1.7-5.8,1.7c-6,0-10.8-4.9-10.8-10.9c0-6,4.9-10.8,10.9-10.8c5.7,0,10.3,4.4,10.8,9.9l0-0.1l0,0.1 c0.5-5.5,5.2-9.9,10.8-9.8c6,0,10.8,4.9,10.8,10.9C46.9,26,42.1,30.9,36.1,30.9z"/></g></svg>