<?xml version="1.0" encoding="utf-8"?>
<!-- Generator: Adobe Illustrator 22.0.1, SVG Export Plug-In . SVG Version: 6.00 Build 0)  -->
<svg version="1.1" id="Layer_1" xmlns="http://www.w3.org/2000/svg" xmlns:xlink="http://www.w3.org/1999/xlink" x="0px" y="0px"
	 viewBox="0 0 32 32" style="enable-background:new 0 0 32 32;" xml:space="preserve">
<style type="text/css">
	.st0{fill:#B2B2B3;}
</style>
<g>
	<path class="st0" d="M20.2,21.3c0,0.5-0.4,0.9-0.9,0.9h-6.7c-0.5,0-0.9-0.4-0.9-0.9V9.8c0-0.5,0.4-0.9,0.9-0.9h6.7
		c0.5,0,0.9,0.4,0.9,0.9V21.3 M21,21.3V9.8c0-1-0.8-1.7-1.7-1.7h-6.7c-1,0-1.7,0.8-1.7,1.7v11.6c0,1,0.8,1.7,1.7,1.7h6.7
		C20.4,23,21,22.2,21,21.3L21,21.3z"/>
</g>
</svg>
