<svg xmlns="http://www.w3.org/2000/svg" xmlns:xlink="http://www.w3.org/1999/xlink" id="Layer_1" x="0" y="0" version="1.1" viewBox="0 0 32 32" xml:space="preserve" style="enable-background:new 0 0 32 32"><style type="text/css">.st0{fill:#b2b2b3}</style><g><path d="M21.8,11.3c0.5,0,0.9,0.4,0.9,0.9v6.7c0,0.5-0.4,0.9-0.9,0.9H10.2c-0.5,0-0.9-0.4-0.9-0.9v-6.7 c0-0.5,0.4-0.9,0.9-0.9H21.8 M21.8,10.5H10.2c-1,0-1.7,0.8-1.7,1.7v6.7c0,1,0.8,1.7,1.7,1.7h11.6c1,0,1.7-0.8,1.7-1.7v-6.7 C23.5,11.2,22.7,10.5,21.8,10.5L21.8,10.5z" class="st0"/></g></svg>