<svg xmlns="http://www.w3.org/2000/svg" xmlns:xlink="http://www.w3.org/1999/xlink" id="Layer_1" x="0" y="0" version="1.1" viewBox="0 0 32 32" xml:space="preserve" style="enable-background:new 0 0 32 32"><style type="text/css">.st0{fill:#b2b2b3}</style><g><path d="M20.2,21.3c0,0.5-0.4,0.9-0.9,0.9h-6.7c-0.5,0-0.9-0.4-0.9-0.9V9.8c0-0.5,0.4-0.9,0.9-0.9h6.7 c0.5,0,0.9,0.4,0.9,0.9V21.3 M21,21.3V9.8c0-1-0.8-1.7-1.7-1.7h-6.7c-1,0-1.7,0.8-1.7,1.7v11.6c0,1,0.8,1.7,1.7,1.7h6.7 C20.4,23,21,22.2,21,21.3L21,21.3z" class="st0"/></g></svg>