<svg xmlns="http://www.w3.org/2000/svg" xmlns:xlink="http://www.w3.org/1999/xlink" id="Layer_1" x="0" y="0" version="1.1" viewBox="0 0 32 32" xml:space="preserve" style="enable-background:new 0 0 32 32"><style type="text/css">.st0{fill:#b2b2b3}</style><g><path d="M27,11.4c0.7,0,1.2,0.5,1.2,1.2v6.6c0,0.7-0.5,1.2-1.2,1.2H5.4c-0.7,0-1.2-0.5-1.2-1.2v-6.6 c0-0.7,0.5-1.2,1.2-1.2H27 M27,10.4H5.4c-1.2,0-2.2,1-2.2,2.2v6.6c0,1.2,1,2.2,2.2,2.2H27c1.2,0,2.2-1,2.2-2.2v-6.6 C29.2,11.4,28.2,10.4,27,10.4L27,10.4z" class="st0"/></g></svg>