<svg xmlns="http://www.w3.org/2000/svg" xmlns:xlink="http://www.w3.org/1999/xlink" version="1.1" viewBox="0 0 15.84 15.84"><path fill="#444" d="M9.45,13.09h-3c-.59,0-.69-.54-.78-1A4.41,4.41,0,0,0,4.84,10l-.46-.43a4.9,4.9,0,0,1-2-4.09A5.34,5.34,0,0,1,7.92.19a5.34,5.34,0,0,1,5.5,5.3,4.92,4.92,0,0,1-1.9,4c-.17.16-.33.31-.47.46a4.36,4.36,0,0,0-.81,2.09C10.15,12.53,10.05,13.09,9.45,13.09ZM6.89,11.82H9A5.53,5.53,0,0,1,10.1,9.15a7.35,7.35,0,0,1,.56-.55,3.71,3.71,0,0,0,1.49-3.11,4,4,0,0,0-4.23-4,4,4,0,0,0-4.23,4A3.67,3.67,0,0,0,5.23,8.63a6.7,6.7,0,0,1,.54.51A5.39,5.39,0,0,1,6.89,11.82ZM10.06,15a.64.64,0,0,0-.64-.64h-3a.64.64,0,1,0,0,1.27h3A.64.64,0,0,0,10.06,15Z"/></svg>