<?xml version="1.0" encoding="UTF-8"?>
<svg width="6px" height="15px" viewBox="0 0 6 15" version="1.1" xmlns="http://www.w3.org/2000/svg" xmlns:xlink="http://www.w3.org/1999/xlink">
    <!-- Generator: Sketch 46.2 (44496) - http://www.bohemiancoding.com/sketch -->

    <desc>Created with Sketch.</desc>
    <defs></defs>
    <g id="UI" stroke="none" stroke-width="1" fill="none" fill-rule="evenodd">
        <g id="16" transform="translate(-414.000000, -352.000000)" fill="#444444">
            <g id="Group" transform="translate(414.000000, 352.000000)">
                <path d="M4,6 C4,5.4 3.6,5 3,5 L0,5 L0,7 L2,7 L2,13 L0,13 L0,15 L6,15 L6,13 L4,13 L4,6" id="Fill-182"></path>
                <path d="M2.5,0 C3.328,0 4,0.672 4,1.5 C4,2.328 3.328,3 2.5,3 C1.672,3 1,2.328 1,1.5 C1,0.672 1.672,0 2.5,0" id="Fill-183"></path>
            </g>
        </g>
    </g>
</svg>
