<svg xmlns="http://www.w3.org/2000/svg" xmlns:xlink="http://www.w3.org/1999/xlink" id="Layer_1" x="0" y="0" class="nc-icon glyph" version="1.1" viewBox="0 0 20 20" xml:space="preserve" style="enable-background:new 0 0 20 20"><path fill="#444" d="M10,2.5c-4.1,0-7.5,3.4-7.5,7.5s3.4,7.5,7.5,7.5s7.5-3.4,7.5-7.5S14.1,2.5,10,2.5z M10,0c5.5,0,10,4.5,10,10	s-4.5,10-10,10S0,15.5,0,10S4.5,0,10,0z M10,4.5c0.7,0,1.2,0.6,1.2,1.2S10.7,7,10,7S8.8,6.4,8.8,5.8S9.3,4.5,10,4.5z M11.2,9.2v6.2	H8.8V9.2H11.2z"/></svg>