<svg xmlns="http://www.w3.org/2000/svg" xmlns:xlink="http://www.w3.org/1999/xlink" width="16" height="16" x="0" y="0" viewBox="0 0 16 16"><g><path fill="#444" d="M15,16H1c-0.6,0-1-0.4-1-1V1c0-0.6,0.4-1,1-1h14c0.6,0,1,0.4,1,1v14C16,15.6,15.6,16,15,16z M2,14h12V2H2V14	z" transform="translate(0, 0)"/><path fill="#444" d="M3.4,10.8c-0.4-0.3-0.5-1-0.2-1.4l3-4c0.4-0.5,1.1-0.5,1.5-0.1l2.1,2.1l1.3-2	c0.3-0.5,0.9-0.6,1.4-0.3c0.5,0.3,0.6,0.9,0.3,1.4l-2,3c-0.3,0.5-1.1,0.6-1.5,0.2L7.1,7.5l-2.3,3.1C4.5,11,3.8,11.1,3.4,10.8z" data-color="color-2" transform="translate(0, 0)"/></g></svg>