<svg xmlns="http://www.w3.org/2000/svg" xmlns:xlink="http://www.w3.org/1999/xlink" width="6" height="15" version="1.1" viewBox="0 0 6 15"><desc>Created with Sketch.</desc><g id="UI" fill="none" fill-rule="evenodd" stroke="none" stroke-width="1"><g id="16" fill="#444" transform="translate(-414.000000, -352.000000)"><g id="Group" transform="translate(414.000000, 352.000000)"><path id="Fill-182" d="M4,6 C4,5.4 3.6,5 3,5 L0,5 L0,7 L2,7 L2,13 L0,13 L0,15 L6,15 L6,13 L4,13 L4,6"/><path id="Fill-183" d="M2.5,0 C3.328,0 4,0.672 4,1.5 C4,2.328 3.328,3 2.5,3 C1.672,3 1,2.328 1,1.5 C1,0.672 1.672,0 2.5,0"/></g></g></g></svg>