<?xml version="1.0" encoding="UTF-8"?>
<svg width="16px" height="16px" viewBox="0 0 16 16" version="1.1" xmlns="http://www.w3.org/2000/svg" xmlns:xlink="http://www.w3.org/1999/xlink">
    <g id="Page-1" stroke="none" stroke-width="1" fill="none" fill-rule="evenodd">
        <g id="text_editor_updated" transform="translate(-843.000000, -375.000000)" fill="#595959">
            <g id="comment-add-(1)" transform="translate(843.000000, 375.000000)">
                <path d="M2.617,15.924 C2.24340926,15.7691037 1.99989823,15.4044291 2,15 L2,8 L4,8 L4,13.586 L6.293,12.293 C6.48049273,12.1054506 6.73480519,12.0000566 7,12 L14,12 L14,4 L8,4 L8,2 L15,2 C15.5522847,2 16,2.44771525 16,3 L16,13 C16,13.5522847 15.5522847,14 15,14 L7.414,14 L3.707,15.707 C3.42101445,15.9931653 2.99077762,16.0788179 2.617,15.924 Z" id="Shape" fill-rule="nonzero"></path>
                <rect id="Rectangle-8-Copy" x="6" y="6" width="6" height="1.39999998"></rect>
                <rect id="Rectangle-8-Copy-2" x="6" y="9" width="6" height="1.39999998"></rect>
                <polygon id="Shape" fill-rule="nonzero" points="6 2 4 2 4 0 2 0 2 2 0 2 0 4 2 4 2 6 4 6 4 4 6 4"></polygon>
            </g>
        </g>
    </g>
</svg>
