<svg xmlns="http://www.w3.org/2000/svg" xmlns:xlink="http://www.w3.org/1999/xlink" id="Layer_1" x="0" y="0" version="1.1" viewBox="0 0 32 32" xml:space="preserve" style="enable-background:new 0 0 32 32"><style type="text/css">.st0{opacity:.4;fill:#bcb9b9;enable-background:new}.st1{fill:#a2a2a2}</style><path d="M16,8c0,0,4.4,3.2,4.4,8c0,4.4-4.2,8-4.4,8c0,0-4.3-2.9-4.3-8C11.7,11.3,16,8,16,8z" class="st0"/><path d="M20.5,5.6c-1.6,0-3.1,0.4-4.5,1.1c-1.4-0.7-2.9-1.1-4.5-1.1C5.8,5.6,1.1,10.3,1.1,16s4.7,10.4,10.4,10.4	c1.6,0,3.1-0.4,4.5-1.1c1.4,0.7,2.9,1.1,4.5,1.1c5.7,0,10.4-4.7,10.4-10.4S26.2,5.6,20.5,5.6z M11.5,24.3c-4.6,0-8.3-3.7-8.3-8.3	s3.7-8.3,8.3-8.3c0.8,0,1.6,0.1,2.3,0.3c-2.3,1.9-3.7,4.8-3.7,8s1.5,6,3.7,8C13.1,24.2,12.3,24.3,11.5,24.3z M19.8,16	c0,2.9-1.5,5.5-3.8,7c-2.3-1.5-3.8-4-3.8-7s1.5-5.5,3.8-7C18.3,10.5,19.8,13.1,19.8,16z M20.5,24.3c-0.8,0-1.6-0.1-2.3-0.3	c2.3-1.9,3.7-4.8,3.7-8s-1.5-6-3.7-8c0.7-0.2,1.5-0.3,2.3-0.3c4.6,0,8.3,3.7,8.3,8.3S25.1,24.3,20.5,24.3z" class="st1"/></svg>