<svg xmlns="http://www.w3.org/2000/svg" xmlns:xlink="http://www.w3.org/1999/xlink" id="Layer_1" x="0" y="0" enable-background="new 0 0 20 20" version="1.1" viewBox="0 0 20 20" xml:space="preserve"><g><path fill="#444" d="M10,11.3c2.6,0,4.8-2.1,4.8-4.8V4.8C14.8,2.1,12.6,0,10,0S5.2,2.1,5.2,4.8v1.7C5.2,9.2,7.4,11.3,10,11.3z M6.1,4.8c0-2.2,1.8-3.9,3.9-3.9s3.9,1.8,3.9,3.9v1.7c0,2.2-1.8,3.9-3.9,3.9S6.1,8.7,6.1,6.5V4.8z"/><path fill="#444" d="M5.7,14.8h4.8v-0.9H5.7c-3.1,0-5.7,2.5-5.7,5.7V20h20v-0.9H0.9C1.1,16.7,3.2,14.8,5.7,14.8z"/><polygon fill="#444" points="17.4 13 17.4 10.4 16.5 10.4 16.5 13 13.9 13 13.9 13.9 16.5 13.9 16.5 16.5 17.4 16.5 17.4 13.9 20 13.9 20 13"/></g></svg>