<svg xmlns="http://www.w3.org/2000/svg" xmlns:xlink="http://www.w3.org/1999/xlink" id="Layer_1" x="0" y="0" enable-background="new 0 0 20 20" version="1.1" viewBox="0 0 20 20" xml:space="preserve"><g><path fill="#444" d="M16.8,10.1L16,10.2v0.4c0,0.3,0,0.6,0,0.8c0,4.2-3.4,7.6-7.6,7.6s-7.6-3.4-7.6-7.6s3.4-7.6,7.6-7.6 c0.3,0,0.6,0,0.8,0h0.4l0.1-0.9H9.3C9,2.9,8.7,2.8,8.4,2.8C3.8,3.1,0,6.9,0,11.5S3.8,20,8.5,20s8.5-3.8,8.5-8.5 c0-0.3,0-0.6-0.1-0.9L16.8,10.1z"/><path fill="#444" d="M11.6,7.8c-0.9-0.7-1.9-1.1-3.1-1.1c-2.7,0-4.9,2.2-4.9,4.9s2.2,4.9,4.9,4.9s4.9-2.2,4.9-4.9 c0-1.2-0.4-2.3-1.1-3.1L14,6.8l2.7,0.9L20,4.2l-2.7-0.9l2.2-2.2l-0.6-0.6l-2.2,2.2L15.8,0l-3.4,3.4l0.9,2.7L11.6,7.8z M12.5,11.5 c0,2.2-1.8,4-4,4s-4-1.8-4-4s1.8-4,4-4c0.9,0,1.8,0.3,2.5,0.9l-2.8,2.8l0.6,0.6L11.6,9C12.1,9.7,12.5,10.6,12.5,11.5z M15.4,1.7 l0.7,2.2l2.2,0.7l-2,2l-2.2-0.7l-0.7-2.2L15.4,1.7z"/></g></svg>