<svg xmlns="http://www.w3.org/2000/svg" xmlns:xlink="http://www.w3.org/1999/xlink" width="19" height="15" version="1.1" viewBox="0 0 19 15"><desc>Created with Sketch.</desc><g id="Page-1" fill="none" fill-rule="evenodd" stroke="none" stroke-width="1"><g id="library-(1)" fill="#FFF" fill-rule="nonzero"><path id="Shape" d="M17.28,5.55111512e-17 L11.41,5.55111512e-17 C10.4685414,0.00432653701 9.58076609,0.439004913 9,1.18 C8.42019319,0.437821237 7.53180527,0.00284291834 6.59,-1.11022302e-16 L0.72,-1.11022302e-16 C0.526386145,0.00263407514 0.341750722,0.0820824187 0.206720646,0.220863331 C0.0716905689,0.359644243 -0.00267040721,0.546386643 -6.52161159e-16,0.74 L-6.52161159e-16,11.88 C-0.00267040721,12.0736134 0.0716905689,12.2603558 0.206720646,12.3991367 C0.341750722,12.5379176 0.526386145,12.6173659 0.72,12.62 L6.59,12.62 C7.23956297,12.6330327 7.82181878,13.0238085 8.08,13.62 C8.19758364,13.8722495 8.45170287,14.0325401 8.73,14.03 L9.27,14.03 C9.54829713,14.0325401 9.80241636,13.8722495 9.92,13.62 C10.1796721,13.0205508 10.7667884,12.62914 11.42,12.62 L17.29,12.62 C17.4836139,12.6173659 17.6682493,12.5379176 17.8032794,12.3991367 C17.9383094,12.2603558 18.0126704,12.0736134 18.01,11.88 L18.01,0.74 C18.0126761,0.54466516 17.9369486,0.356407423 17.7997559,0.217335391 C17.6625632,0.07826336 17.4753532,-1.8330124e-05 17.28,5.55111512e-17 Z M11.41,1.5 L16.56,1.5 L16.56,11.16 L11.41,11.16 C10.8161137,11.157693 10.2349045,11.3317077 9.74,11.66 L9.74,3.2 C9.7398556,2.27270796 10.4828523,1.51636397 11.41,1.5 Z M8.26,3.2 L8.26,11.64 C7.76509547,11.3117077 7.18388633,11.137693 6.59,11.14 L1.44,11.14 L1.44,1.5 L6.59,1.5 C7.51714765,1.51636397 8.2601444,2.27270796 8.26,3.2 Z"/><path id="Shape" d="M10.74,7.64 L10.74,6.41 L15.74,6.41 L15.74,7.64 L10.74,7.64 Z M10.74,10.2 L10.74,8.97 L15.74,8.97 L15.74,10.2 L10.74,10.2 Z M10.74,5.07 L10.74,3.85 L15.74,3.85 L15.74,5.07 L10.74,5.07 Z M2.23,7.64 L2.23,6.41 L7.23,6.41 L7.23,7.64 L2.23,7.64 Z M2.23,10.2 L2.23,8.97 L7.23,8.97 L7.23,10.2 L2.23,10.2 Z M2.23,5.07 L2.23,3.85 L7.23,3.85 L7.23,5.07 L2.23,5.07 Z"/></g></g></svg>