<?xml version="1.0" encoding="utf-8"?>
<!-- Generated by IcoMoon.io -->
<!DOCTYPE svg PUBLIC "-//W3C//DTD SVG 1.1//EN" "http://www.w3.org/Graphics/SVG/1.1/DTD/svg11.dtd">
<svg version="1.1" xmlns="http://www.w3.org/2000/svg" xmlns:xlink="http://www.w3.org/1999/xlink" viewBox="0 0 15.84 15.84">
<path fill="#444" d="M3.48,13.06a.64.64,0,0,1-.64-.64v-9a.64.64,0,1,1,1.27,0v9A.64.64,0,0,1,3.48,13.06Z"></path>
<path fill="#444" d="M6.65,13.06A.64.64,0,0,1,6,12.42v-9a.64.64,0,1,1,1.27,0v9A.64.64,0,0,1,6.65,13.06Z"></path>
<path fill="#444" d="M12.36,12.79a.64.64,0,0,1-.6-.42L8.69,3.91a.64.64,0,0,1,1.2-.44L13,11.93a.64.64,0,0,1-.38.82A.54.54,0,0,1,12.36,12.79Z"></path>
</svg>
