<svg xmlns="http://www.w3.org/2000/svg" xmlns:xlink="http://www.w3.org/1999/xlink" width="15" height="15" version="1.1" viewBox="0 0 15 15"><path fill="#444" d="M1.773 0.159h-0.079c-0.936 0-1.694 0.8-1.694 1.786s0.793 1.787 1.773 1.787c0.977 0 1.772-0.801 1.772-1.787s-0.795-1.786-1.772-1.786zM0.232 15h2.923v-9.913h-2.923v9.913zM11.27 4.823c-1.514 0-2.529 0.824-2.944 1.604h-0.043l-0.033-1.177h-3l0.049 9.75h3.11v-4.912c0-1.295 0.247-2.55 1.866-2.55 1.594 0 1.617 1.481 1.617 2.633v4.829h3.108v-5.446c0-2.674-0.581-4.73-3.73-4.73z"/></svg>