<svg xmlns="http://www.w3.org/2000/svg" xmlns:xlink="http://www.w3.org/1999/xlink" id="Layer_1" x="0" y="0" version="1.1" viewBox="0 0 32 32" xml:space="preserve" style="enable-background:new 0 0 32 32"><style type="text/css">.st1{fill:#fff}</style><circle cx="16" cy="13.8" r="4" class="st1"/><path d="M19.2,28.6c0,0-0.9,0.3-3,0.3s-3.4-0.3-3.4-0.3V22h6.4V28.6z" class="st1"/><g><path d="M5.1,24.3c-5-5.9-4.7-11.4-3.6-15C2.7,5.5,5.1,3.1,5.2,3l1.7,1.6L6,3.8l0.8,0.8c0,0-2.1,2.2-3.1,5.5 c-1.3,4.3-0.3,8.6,3.2,12.7L5.1,24.3z" class="st1"/></g><g><path d="M26.9,24.5L25.1,23c3.4-4.1,4.5-8.3,3.2-12.7c-1-3.3-3.1-5.5-3.1-5.5l1.7-1.6c0.1,0.1,2.5,2.5,3.6,6.3 C31.6,13.1,31.8,18.6,26.9,24.5z" class="st1"/></g><g><path d="M8.6,21c-3.3-4-3.2-7.8-2.4-10.2c0.8-2.6,2.3-4.3,2.4-4.4L10.2,8L9.3,7.2L10.2,8c0,0-1.3,1.4-1.9,3.5 c-0.8,2.8-0.1,5.5,2,8L8.6,21z" class="st1"/></g><g><path d="M23.5,21.1l-1.7-1.4c2.1-2.6,2.8-5.3,2-8c-0.6-2.1-1.9-3.5-1.9-3.5l1.6-1.5c0.1,0.1,1.6,1.7,2.4,4.4 C26.7,13.3,26.8,17.1,23.5,21.1z" class="st1"/></g><circle cx="16.1" cy="13.8" r="4" class="st1"/></svg>