<svg width="12" height="10" viewBox="0 0 12 10" fill="none" xmlns="http://www.w3.org/2000/svg">
<path d="M10 5.13605V8.00005H2V5.13605L0 3.80005V9.00005C0 9.26526 0.105357 9.51962 0.292893 9.70716C0.48043 9.89469 0.734784 10 1 10H11C11.2652 10 11.5196 9.89469 11.7071 9.70716C11.8946 9.51962 12 9.26526 12 9.00005V3.80005L10 5.13605Z" fill="#177DD6"/>
<path d="M12 2L6 6L0 2V1C0 0.734784 0.105357 0.48043 0.292893 0.292893C0.48043 0.105357 0.734784 0 1 0H11C11.2652 0 11.5196 0.105357 11.7071 0.292893C11.8946 0.48043 12 0.734784 12 1V2Z" fill="#177DD6"/>
</svg>
