<svg xmlns="http://www.w3.org/2000/svg" xmlns:xlink="http://www.w3.org/1999/xlink" width="16" height="24" version="1.1" viewBox="0 0 16 24"><title>ms-dynamics@2x</title><desc>Created with Sketch.</desc><g id="Designs" fill="none" fill-rule="evenodd" stroke="none" stroke-width="1"><path id="ms-dynamics" fill="#12214E" d="M0.0833693044,7.87837849 C1.6844734,8.90086321 3.1677963,9.84774167 4.72826845,10.8450243 C3.31695152,15.0434865 1.94472353,19.1246818 0.572495546,23.2063914 L0.572495546,23.2063914 L0.789542102,23.3298302 C5.50490423,18.4894863 10.2202664,13.6491424 15.1321019,8.60718174 C15.1321019,11.117104 15.1480461,13.340031 15.1089571,15.5614151 C15.1043282,15.8005778 14.8312198,16.1276906 14.5961718,16.2562727 C9.88543862,18.8340863 5.16184724,21.3892694 0.438770181,23.9439382 C0.355448991,23.9886848 0.240239445,23.9768552 0.0833693044,24 L0.0833693044,24 Z M0.00483136845,7.10542736e-15 C4.90380871,2.63799 9.63614368,5.18597255 14.5294634,7.82087659 C12.9180728,8.96371414 11.4635522,10.0201445 9.97200008,11.0225704 C9.78272725,11.1496095 9.36509265,11.0750319 9.11667206,10.9582794 C6.28786625,9.62874067 3.46780401,8.28171477 0.660085661,6.90897246 C0.390063288,6.77679008 0.0398056949,6.44453398 0.0331194266,6.19714205 C-0.0172847497,4.1938332 0.00483136845,2.18795272 0.00483136845,7.10542736e-15 Z"/></g></svg>