<svg xmlns="http://www.w3.org/2000/svg" xmlns:xlink="http://www.w3.org/1999/xlink" width="14" height="16" version="1.1" viewBox="0 0 14 16"><desc>Created with Sketch.</desc><g id="1026-1115" fill="none" fill-rule="evenodd" stroke="none" stroke-width="1"><g id="icons-copy" fill="#236686" fill-rule="nonzero" transform="translate(-396.000000, -211.000000)"><g id="collection-(1)-copy" transform="translate(396.000000, 211.000000)"><path id="Shape" d="M13,0 L1,0 C0.4,0 0,0.4 0,1 L0,15 C0,15.6 0.4,16 1,16 L13,16 C13.6,16 14,15.6 14,15 L14,1 C14,0.4 13.6,0 13,0 Z M3,13 C2.4,13 2,12.6 2,12 C2,11.4 2.4,11 3,11 C3.6,11 4,11.4 4,12 C4,12.6 3.6,13 3,13 Z M3,9 C2.4,9 2,8.6 2,8 C2,7.4 2.4,7 3,7 C3.6,7 4,7.4 4,8 C4,8.6 3.6,9 3,9 Z M3,5 C2.4,5 2,4.6 2,4 C2,3.4 2.4,3 3,3 C3.6,3 4,3.4 4,4 C4,4.6 3.6,5 3,5 Z M12,7 L6,7 L6,4 L12,4 L12,7 Z"/></g></g></g></svg>