<svg xmlns="http://www.w3.org/2000/svg" xmlns:xlink="http://www.w3.org/1999/xlink" id="Layer_1" x="0" y="0" version="1.1" viewBox="0 0 15 14" xml:space="preserve" style="enable-background:new 0 0 15 14"><style type="text/css">.std1{fill:#eee}</style><path d="M7.2,7.5c-0.1,2.7,1.9,4.9,4.6,5.1v0.6c0,0.5-0.3,0.8-0.8,0.8H1.8C1.3,14,1,13.7,1,13.2V1.3	c0-0.5,0.3-0.8,0.8-0.8H11c0.5,0,0.8,0.3,0.8,0.8v1.6C9.3,3.1,7.3,5,7.2,7.5z" class="std0"/><desc>Created with Sketch.</desc><path d="M3.5,4.7C3,4.7,2.6,4.4,2.6,3.9S3,3,3.5,3s0.8,0.3,0.8,0.8S4,4.7,3.5,4.7" class="std1"/><path d="M3.5,8.1C3,8.1,2.6,7.7,2.6,7.2s0.3-0.8,0.8-0.8s0.8,0.3,0.8,0.8C4.3,7.7,4,8.1,3.5,8.1" class="std1"/><path d="M3.5,11.5c-0.5,0-0.8-0.3-0.8-0.8S3,9.8,3.5,9.8s0.8,0.3,0.8,0.8S4,11.5,3.5,11.5" class="std1"/><polygon points="11 9 9 9 9 7 11 7 13 7 15 7 15 9 13 9" class="std0"/></svg>