<svg width="21" height="13" viewBox="0 0 21 13" fill="none" xmlns="http://www.w3.org/2000/svg">
<g clip-path="url(#clip0)">
<path d="M8.00507 8.77285L3.83095 4.76745C4.698 1.37509 8.14159 -0.669692 11.5225 0.200307C13.045 0.592087 14.3673 1.53911 15.2314 2.8565C15.1668 2.85487 8.00507 8.77285 8.00507 8.77285Z" fill="#999999"/>
<path d="M12.511 3.61051L12.5112 3.6112C13.3088 3.11552 14.2286 2.85352 15.1668 2.8548C15.1885 2.8548 15.2098 2.85618 15.2314 2.85644C18.0221 2.89113 20.2563 5.18921 20.2218 7.98934C20.2092 9.00507 19.8929 9.9936 19.3139 10.8268L13.0604 10.0409L8.26598 6.16186L12.511 3.61051Z" fill="#999999"/>
<path d="M3.83084 4.76742C3.9226 4.76128 4.01482 4.75702 4.10811 4.75702C4.66809 4.75647 5.22223 4.87124 5.73623 5.09421L5.73635 5.09378L8.26587 6.16188L5.47726 9.61824L0.49191 10.8342C-0.583928 8.83019 0.163027 6.33048 2.16028 5.25098C2.67635 4.97204 3.24597 4.80718 3.83082 4.76744V4.76742H3.83084Z" fill="#999999"/>
<path d="M19.314 10.8268C18.3697 12.189 16.8205 13.0008 15.1669 13H4.10829C2.59765 13.0004 1.20875 12.1686 0.49209 10.8343L8.26605 6.16187L19.314 10.8268Z" fill="#999999"/>
</g>
<defs>
<clipPath id="clip0">
<rect width="20.2222" height="13" fill="white" transform="matrix(-1 0 0 1 20.2222 0)"/>
</clipPath>
</defs>
</svg>
