<svg width="13" height="11" viewBox="0 0 13 11" fill="none" xmlns="http://www.w3.org/2000/svg">
<path fill-rule="evenodd" clip-rule="evenodd" d="M6.83745 2.71247C6.83745 4.03794 5.76294 5.11244 4.43748 5.11244C3.11201 5.11244 2.03751 4.03794 2.03751 2.71247C2.03751 1.387 3.11201 0.3125 4.43748 0.3125C5.76294 0.3125 6.83745 1.387 6.83745 2.71247ZM11.6375 2.71246C11.6375 3.5961 10.9212 4.31244 10.0375 4.31244C9.15387 4.31244 8.43754 3.5961 8.43754 2.71246C8.43754 1.82881 9.15387 1.11248 10.0375 1.11248C10.9212 1.11248 11.6375 1.82881 11.6375 2.71246ZM4.43745 6.11242C3.3766 6.11242 2.35919 6.53385 1.60906 7.28398C0.858922 8.03412 0.4375 9.05152 0.4375 10.1124H8.4374C8.4374 9.05152 8.01598 8.03412 7.26584 7.28398C6.51571 6.53385 5.4983 6.11242 4.43745 6.11242ZM10.0376 5.31245C9.56539 5.31167 9.10355 5.45087 8.71041 5.71244L10.0376 8.51241H12.4376V7.71242C12.4376 7.07591 12.1847 6.46547 11.7346 6.01538C11.2846 5.5653 10.6741 5.31245 10.0376 5.31245Z" fill="#74748B"/>
</svg>
