<svg xmlns="http://www.w3.org/2000/svg" xmlns:xlink="http://www.w3.org/1999/xlink" width="32" height="32" version="1.1" viewBox="0 0 32 32"><path fill="#444" d="M15.931 0c-8.798 0-15.931 7.132-15.931 15.931 0 6.749 4.199 12.513 10.125 14.835-0.139-1.26-0.265-3.194 0.055-4.57 0.289-1.243 1.868-7.919 1.868-7.919s-0.477-0.954-0.477-2.365c0-2.215 1.284-3.869 2.883-3.869 1.359 0 2.016 1.021 2.016 2.244 0 1.367-0.87 3.41-1.319 5.304-0.375 1.586 0.795 2.879 2.359 2.879 2.832 0 5.008-2.986 5.008-7.295 0-3.814-2.741-6.481-6.654-6.481-4.533 0-7.193 3.4-7.193 6.913 0 1.369 0.527 2.837 1.186 3.636 0.13 0.158 0.149 0.296 0.11 0.457-0.121 0.503-0.39 1.586-0.442 1.807-0.069 0.292-0.231 0.353-0.533 0.213-1.99-0.926-3.234-3.835-3.234-6.172 0-5.025 3.651-9.64 10.526-9.64 5.526 0 9.821 3.938 9.821 9.201 0 5.49-3.462 9.909-8.267 9.909-1.614 0-3.132-0.839-3.651-1.829 0 0-0.799 3.042-0.992 3.787-0.36 1.384-1.331 3.118-1.98 4.176 1.491 0.462 3.075 0.711 4.717 0.711 8.798 0 15.931-7.132 15.931-15.931s-7.132-15.931-15.931-15.931z"/></svg>