<?xml version="1.0" encoding="utf-8"?>
<!-- Generator: Adobe Illustrator 23.0.4, SVG Export Plug-In . SVG Version: 6.00 Build 0)  -->
<svg version="1.1" id="Layer_1" xmlns="http://www.w3.org/2000/svg" xmlns:xlink="http://www.w3.org/1999/xlink" x="0px" y="0px"
	 viewBox="0 0 20 14.8" enable-background="new 0 0 20 14.8" xml:space="preserve">
<g>
	<path fill="#444444" d="M5.2,11.7v0.4h9.6v-0.4c0-1.2,1-2.2,2.2-2.2h0.4V5.2H17c-1.2,0-2.2-1-2.2-2.2V2.6H5.2V3
		c0,1.2-1,2.2-2.2,2.2H2.6v4.4H3C4.2,9.6,5.2,10.5,5.2,11.7z M3.5,6.1c1.3-0.2,2.4-1.2,2.6-2.6H14c0.2,1.3,1.2,2.4,2.6,2.6v2.6
		c-1.3,0.2-2.4,1.2-2.6,2.6H6.1C5.9,10,4.8,8.9,3.5,8.7V6.1z"/>
	<path fill="#444444" d="M0,0v14.8h20V0H0z M19.1,13.9H0.9v-13h18.2V13.9z"/>
	<path fill="#444444" d="M10,9.6c1.2,0,2.2-1,2.2-2.2s-1-2.2-2.2-2.2s-2.2,1-2.2,2.2S8.8,9.6,10,9.6z M10,6.1c0.7,0,1.3,0.6,1.3,1.3
		S10.7,8.7,10,8.7S8.7,8.1,8.7,7.4S9.3,6.1,10,6.1z"/>
</g>
</svg>
