<svg xmlns="http://www.w3.org/2000/svg" xmlns:xlink="http://www.w3.org/1999/xlink" id="Layer_1" x="0" y="0" enable-background="new 0 0 20 20" version="1.1" viewBox="0 0 20 20" xml:space="preserve"><path fill="#444" d="M14.3,7c-1.3,0-2.4,0.2-3.4,0.6c0.2-0.3,0.3-0.7,0.3-1V3c0-1.7-2.5-3-5.7-3S0,1.3,0,3v3.5V10v3.5	c0,1.7,2.5,3,5.7,3c1.1,0,2.1-0.2,3-0.5v1c0,1.7,2.5,3,5.7,3s5.7-1.3,5.7-3v-3.5V10C20,8.3,17.5,7,14.3,7z M19.1,10	c0,1-2,2.2-4.8,2.2S9.6,11,9.6,10s2-2.2,4.8-2.2S19.1,9,19.1,10z M5.7,0.9c2.8,0,4.8,1.1,4.8,2.2c0,1-2,2.2-4.8,2.2S0.9,4.1,0.9,3	C0.9,2,2.8,0.9,5.7,0.9z M0.9,4.7c1,0.8,2.7,1.4,4.8,1.4c2,0,3.8-0.6,4.8-1.4v1.8c0,1-2,2.2-4.8,2.2S0.9,7.5,0.9,6.5V4.7z M0.9,8.2	c1,0.8,2.7,1.4,4.8,1.4C6.9,9.6,8.1,9.3,9,9c-0.2,0.3-0.3,0.7-0.3,1v1.6c-0.9,0.3-1.9,0.5-3,0.5c-2.8,0-4.8-1.1-4.8-2.2	C0.9,9.9,0.9,8.2,0.9,8.2z M5.7,15.7c-2.8,0-4.8-1.1-4.8-2.2v-1.8c1,0.8,2.7,1.4,4.8,1.4c1.1,0,2.1-0.2,3-0.5v0.9v1.6	C7.8,15.5,6.8,15.7,5.7,15.7z M14.3,19.1c-2.8,0-4.8-1.1-4.8-2.2v-1.8c1,0.8,2.7,1.4,4.8,1.4c2,0,3.8-0.6,4.8-1.4V17	C19.1,18,17.2,19.1,14.3,19.1z M14.3,15.7c-2.8,0-4.8-1.1-4.8-2.2v-1.8c1,0.8,2.7,1.4,4.8,1.4c2,0,3.8-0.6,4.8-1.4v1.8	C19.1,14.5,17.2,15.7,14.3,15.7z"/></svg>