<?xml version="1.0" encoding="UTF-8"?>
<svg width="12px" height="12px" viewBox="0 0 12 12" version="1.1" xmlns="http://www.w3.org/2000/svg" xmlns:xlink="http://www.w3.org/1999/xlink">
    <g id="publishing-article" stroke="none" stroke-width="1" fill="none" fill-rule="evenodd">
        <g id="Publishing-Article" transform="translate(-125.000000, -326.000000)" fill="#4EC3C8" fill-rule="nonzero">
            <g id="contactless" transform="translate(131.000000, 332.000000) rotate(-90.000000) translate(-131.000000, -332.000000) translate(125.000000, 326.000000)">
                <path d="M8.92700001,0.169000018 C9.38594863,-0.138622584 10.0073774,-0.0159486138 10.315,0.443 C12.5616069,3.80706635 12.5616069,8.19293365 10.315,11.557 C10.1160031,11.8538877 9.77373461,12.0220597 9.41712385,11.9981671 C9.06051309,11.9742746 8.74373768,11.7619474 8.58612385,11.4411671 C8.42851002,11.1203869 8.45400307,10.7398877 8.653,10.443 C10.4492664,7.75333059 10.4492664,4.24666941 8.653,1.557 C8.34537741,1.09805137 8.46805139,0.476622619 8.92700001,0.169000018 Z M5.82226528,1.81991111 L5.95396623,1.82382261 C6.21803139,1.84914136 6.46121604,1.9783456 6.63,2.183 C7.51489065,3.25830241 7.99911331,4.60741034 8.00002828,6 C8.00413956,7.34228019 7.55368345,8.64641759 6.722,9.7 C6.50823734,9.99935156 6.14738823,10.1571806 5.78246744,10.1109351 C5.41754665,10.0646896 5.10747507,9.82183628 4.97514287,9.47862495 C4.84281068,9.13541361 4.90958451,8.74725983 5.149,8.468 C5.70333519,7.76509588 6.00329333,6.89518202 6,6 C5.99965271,5.07182384 5.67693039,4.17258442 5.087,3.456 C4.91814554,3.25140375 4.83750387,2.98809894 4.86282261,2.72403377 C4.88814136,2.45996861 5.0173456,2.21678396 5.222,2.048 C5.42659625,1.87914554 5.68990106,1.79850387 5.95396623,1.82382261 Z M2,4 C3.1045695,4 4,4.8954305 4,6 C4,7.1045695 3.1045695,8 2,8 C0.8954305,8 5.32907052e-14,7.1045695 5.32907052e-14,6 C5.32907052e-14,4.8954305 0.8954305,4 2,4 Z" id="Combined-Shape"></path>
            </g>
        </g>
    </g>
</svg>
