<svg xmlns="http://www.w3.org/2000/svg" xmlns:xlink="http://www.w3.org/1999/xlink" id="Layer_1" x="0" y="0" enable-background="new 0 0 12 12" version="1.1" viewBox="0 0 12 12" xml:space="preserve"><g><g><path fill="#444" d="M6,12c-3.3,0-6-2.7-6-6s2.7-6,6-6s6,2.7,6,6S9.3,12,6,12z M6,1C3.2,1,1,3.2,1,6s2.3,5,5,5c2.8,0,5-2.3,5-5 S8.8,1,6,1z"/></g><g><g><defs><circle id="SVGID_qol_1_" cx="6" cy="9.5" r=".8"/></defs><clipPath id="SVGID_qol_2_"><use overflow="visible" xlink:href="#SVGID_qol_1_"/></clipPath><g clip-path="url(#SVGID_qol_2_)"><rect width="11.4" height="11.4" x=".3" y="3.8" fill="#444"/></g></g></g><g><path fill="#444" d="M6,7.7c-0.3,0-0.5-0.2-0.5-0.5c0-1.4,0.6-2,1.1-2.5C7,4.2,7.2,4,7,3.5C7,3.3,6.8,3.1,6.5,3 C6,2.9,5.5,3,5.1,3.3c-0.2,0.2-0.5,0.2-0.7,0C4.3,3,4.3,2.7,4.5,2.5C5.1,2,6,1.8,6.8,2.1c0.6,0.1,1,0.6,1.2,1.2 c0.3,1-0.2,1.5-0.7,2C6.9,5.8,6.5,6.2,6.5,7.2C6.5,7.5,6.3,7.7,6,7.7z"/></g></g></svg>