<svg xmlns="http://www.w3.org/2000/svg" xmlns:xlink="http://www.w3.org/1999/xlink" width="16" height="16" version="1.1" viewBox="0 0 16 16"><path fill="#444" d="M16 7.855c0-1.060-0.863-1.923-1.923-1.923-0.459 0-0.881 0.162-1.211 0.431-1.173-0.737-2.661-1.181-4.256-1.275l0.832-2.63 2.286 0.538c0.060 0.833 0.756 1.492 1.604 1.492 0.887 0 1.608-0.721 1.608-1.608s-0.721-1.608-1.608-1.608c-0.62 0-1.159 0.353-1.427 0.869l-2.657-0.625c-0.223-0.052-0.448 0.076-0.517 0.294l-1.033 3.265c-1.719 0.042-3.334 0.488-4.593 1.268-0.326-0.256-0.737-0.409-1.183-0.409-1.060 0-1.923 0.863-1.923 1.923 0 0.656 0.33 1.235 0.833 1.582-0.021 0.152-0.032 0.306-0.032 0.461 0 1.326 0.77 2.559 2.169 3.472 1.341 0.875 3.116 1.357 4.998 1.357s3.656-0.482 4.998-1.357c1.399-0.913 2.169-2.146 2.169-3.472 0-0.142-0.009-0.282-0.027-0.421 0.536-0.342 0.892-0.941 0.892-1.622zM4.537 9.045c0-0.598 0.502-1.099 1.099-1.099s1.083 0.501 1.083 1.099-0.485 1.083-1.083 1.083c-0.598 0-1.099-0.485-1.099-1.083zM10.634 12.23c-0.557 0.556-1.416 0.827-2.626 0.827-0.003 0-0.006-0-0.009-0s-0.006 0-0.008 0c-1.21 0-2.069-0.271-2.625-0.827-0.171-0.171-0.171-0.447 0-0.618s0.447-0.171 0.618 0c0.384 0.384 1.041 0.571 2.007 0.571 0.003 0 0.006 0 0.008 0s0.006-0 0.009-0c0.966 0 1.623-0.187 2.008-0.571 0.171-0.171 0.447-0.17 0.618 0s0.17 0.447-0 0.618zM10.38 10.128c-0.598 0-1.101-0.485-1.101-1.083s0.503-1.099 1.101-1.099c0.598 0 1.083 0.501 1.083 1.099s-0.485 1.083-1.083 1.083z"/></svg>