<svg xmlns="http://www.w3.org/2000/svg" xmlns:xlink="http://www.w3.org/1999/xlink" width="12" height="12" x="0" y="0" viewBox="0 0 12 12"><g><path fill="#444" d="M6,0A6,6,0,0,0,.5,3.6l1.832.8A4,4,0,0,1,6,2,3.946,3.946,0,0,1,8.794,3.172l-1.919,1.9L12,5.639V0L10.229,1.752A5.937,5.937,0,0,0,6,0Z" transform="translate(0, 0)"/><path fill="#444" d="M6,10A3.946,3.946,0,0,1,3.206,8.828l1.919-1.9L0,6.361V12l1.771-1.752A5.937,5.937,0,0,0,6,12a6,6,0,0,0,5.5-3.6L9.668,7.6A4,4,0,0,1,6,10Z" data-color="color-2" transform="translate(0, 0)"/></g></svg>