<svg xmlns="http://www.w3.org/2000/svg" width="13" height="13" fill="none" viewBox="0 0 13 13"><path stroke="#191932" stroke-linecap="round" stroke-linejoin="round" stroke-width="1.5" d="M6.50073 6C9.5383 6 12.0007 4.88071 12.0007 3.5C12.0007 2.11929 9.5383 1 6.50073 1C3.46317 1 1.00073 2.11929 1.00073 3.5C1.00073 4.88071 3.46317 6 6.50073 6Z"/><path stroke="#191932" stroke-linecap="round" stroke-linejoin="round" stroke-width="1.5" d="M1.00073 6V6.5C1.00073 7.881 3.46273 9 6.50073 9C9.53873 9 12.0007 7.881 12.0007 6.5V6"/><path stroke="#191932" stroke-linecap="round" stroke-linejoin="round" stroke-width="1.5" d="M1.00073 9V9.5C1.00073 10.881 3.46273 12 6.50073 12C9.53873 12 12.0007 10.881 12.0007 9.5V9"/></svg>