<svg xmlns="http://www.w3.org/2000/svg" xmlns:xlink="http://www.w3.org/1999/xlink" id="Layer_1" x="0" y="0" enable-background="new 0 0 20 20" version="1.1" viewBox="0 0 20 20" xml:space="preserve"><g><path fill="#444" d="M10,0C4.5,0,0,4.5,0,10s4.5,10,10,10s10-4.5,10-10S15.5,0,10,0z M10,19.1c-5,0-9.1-4.1-9.1-9.1 C0.9,5,5,0.9,10,0.9S19.1,5,19.1,10S15,19.1,10,19.1z"/><path fill="#444" d="M12.7,6.2l0.4,0.2l0.4-0.8l-0.4-0.2c-0.5-0.3-1.6-0.6-2.7-0.7V3.5H9.6v1.3C8.9,4.8,8.3,5,7.8,5.3 C7,5.7,6.7,6.3,6.7,7.2c0,1.8,1.5,2.5,2.9,2.9v3.8c-0.9,0-2-0.3-2.9-0.6l-0.4-0.1L6,14l0.4,0.1c0.9,0.3,2.1,0.6,3.2,0.6v1.8h0.9 v-1.8c0.6-0.1,1.2-0.2,1.7-0.6c0.7-0.5,1-1.2,1-2.1c0-1.6-1.4-2.1-2.7-2.6V5.7C11.4,5.7,12.3,6,12.7,6.2z M7.5,7.2 c0-0.5,0.2-0.9,0.6-1.2C8.5,5.8,9,5.7,9.6,5.6v3.5C8.3,8.7,7.5,8.2,7.5,7.2z M12.3,12c0,0.6-0.2,1.1-0.7,1.4 c-0.3,0.2-0.7,0.3-1.2,0.4v-3.5C11.6,10.8,12.3,11.2,12.3,12z"/></g></svg>