<svg xmlns="http://www.w3.org/2000/svg" xmlns:xlink="http://www.w3.org/1999/xlink" width="39" height="62" version="1.1" viewBox="0 0 39 62"><desc>Created with Sketch.</desc><g id="Page-1" fill="none" fill-rule="evenodd" stroke="none" stroke-width="1"><g id="Analytics-2018_new_returning" transform="translate(-229.000000, -714.000000)"><g id="Group-9" transform="translate(229.000000, 714.000000)"><polygon id="Rectangle-3-Copy-9" fill="#4EC3C8" points="0 0 39 0 39 62 19.613 51 0 62"/><g id="shape-star" fill="#FFF" fill-rule="nonzero" transform="translate(12.000000, 12.000000)"><path id="Shape" d="M15.146061,5.0568547 L10.829061,4.4288547 L8.902061,0.517854705 C8.71570796,0.197259757 8.37288249,0 8.002061,0 C7.63123951,0 7.28841405,0.197259757 7.102061,0.517854705 L5.175061,4.4298547 L0.858061004,5.0568547 C0.48093337,5.11094267 0.167304628,5.37462431 0.0492493583,5.73685865 C-0.0688059117,6.09909298 0.0292255628,6.49693821 0.302061004,6.7628547 L3.425061,9.8078547 L2.688061,14.1078547 C2.62378234,14.4830044 2.77804324,14.8621173 3.08599013,15.0858085 C3.39393702,15.3094998 3.80216967,15.3389798 4.139061,15.1618547 L8.002061,13.1308547 L11.863061,15.1598547 C12.1999523,15.3369798 12.608185,15.3074998 12.9161319,15.0838085 C13.2240788,14.8601173 13.3783397,14.4810044 13.314061,14.1058547 L12.577061,9.8058547 L15.702061,6.7628547 C15.9742032,6.49714332 16.0720492,6.1000524 15.9545132,5.73832155 C15.8369772,5.37659069 15.5244106,5.11285379 15.148061,5.0578547 L15.146061,5.0568547 Z"/></g></g></g></g></svg>