<svg xmlns="http://www.w3.org/2000/svg" width="731" height="512" version="1.1" viewBox="0 0 731 512"><path fill="#000" d="M303.779 455.239c23.539 24.526 56.316 39.74 92.57 39.74 48.195 0 90.23-26.866 112.622-66.755 19.462 8.69 40.995 13.529 63.654 13.529 86.917 0 157.384-71.079 157.384-158.755 0-87.689-70.467-158.768-157.384-158.768-10.61 0-20.975 1.074-31.006 3.091-19.709-35.158-57.282-58.924-100.411-58.924-18.046 0-35.115 4.163-50.329 11.588-19.978-47.014-66.553-79.984-120.819-79.984-56.52 0-104.694 35.759-123.18 85.916-8.079-1.706-16.458-2.606-25.041-2.606-67.291 0-121.837 55.115-121.837 123.105 0 45.575 24.494 85.358 60.918 106.645-7.498 17.263-11.661 36.296-11.661 56.316 0 78.192 63.483 141.589 141.782 141.589 45.975 0 86.829-21.853 112.74-55.725z"/></svg>