<svg xmlns="http://www.w3.org/2000/svg" xmlns:xlink="http://www.w3.org/1999/xlink" width="16" height="17" version="1.1" viewBox="0 0 16 17"><desc>Created with Sketch.</desc><g id="UI" fill="none" fill-rule="evenodd" stroke="none" stroke-width="1"><g id="16" fill="#444" transform="translate(-217.000000, -399.000000)"><path id="Fill-191" d="M229.7,410.3 C230.6,409.1 231.1,407.7 231.1,406.1 C231.1,402.2 228,399 224.1,399 C220.2,399 217,402.2 217,406.1 C217,410 220.2,413.2 224.1,413.2 C225.7,413.2 227.2,412.7 228.3,411.8 L231.3,414.8 C231.5,415 231.8,415.1 232,415.1 C232.2,415.1 232.5,415 232.7,414.8 C233.1,414.4 233.1,413.8 232.7,413.4 L229.7,410.3 L229.7,410.3 Z M224.1,411.1 C221.3,411.1 219,408.9 219,406.1 C219,403.3 221.3,401 224.1,401 C226.9,401 229.2,403.3 229.2,406.1 C229.2,408.9 226.9,411.1 224.1,411.1 L224.1,411.1 Z"/></g></g></svg>