<svg xmlns="http://www.w3.org/2000/svg" xmlns:xlink="http://www.w3.org/1999/xlink" width="32" height="32" x="0" y="0" viewBox="0 0 32 32"><g><path fill="#444" d="M30,6c-3.991,0-9.751-2.063-13.4-4.8c-0.355-0.268-0.845-0.268-1.2,0C11.751,3.937,5.991,6,2,6	C1.448,6,1,6.447,1,7c0,10.728,5.733,20.116,14.606,23.919C15.732,30.973,15.866,31,16,31s0.268-0.027,0.394-0.081	C25.267,27.116,31,17.728,31,7C31,6.447,30.552,6,30,6z M16,28.907V16H4.54c-0.895-2.504-1.426-5.211-1.524-8.036	C7.116,7.686,12.303,5.803,16,3.233V16h11.46C25.389,21.792,21.341,26.48,16,28.907z" transform="translate(0, 0)"/></g></svg>