<svg xmlns="http://www.w3.org/2000/svg" xmlns:xlink="http://www.w3.org/1999/xlink" width="16" height="12" version="1.1" viewBox="0 0 16 12"><g id="01-08" fill="none" fill-rule="evenodd" stroke="none" stroke-width="1"><g id="Work-Request-Setting---segment_new_annotation" fill="#444" transform="translate(-133.000000, -414.000000)"><g id="segmentation" transform="translate(133.000000, 414.000000)"><path id="Combined-Shape" d="M11,2 L1,2.019 C0.448,2.019 0,1.571 0,1.019 C0,0.467 0.448,0.019 1,0.019 L11,2.66453526e-15 L11,2 Z M15,7 L5,7 L5,5 L15,5 C15.552,5 16,5.448 16,6 C16,6.552 15.552,7 15,7 Z M15,2.019 L13,2 L13,2.66453526e-15 L15,0.019 C15.552,0.019 16,0.467 16,1.019 C16,1.572 15.552,2.019 15,2.019 Z M11,12 L1,12 C0.448,12 0,11.552 0,11 C0,10.448 0.448,10 1,10 L11,10 L11,12 Z M15,12 L13,12 L13,10 L15,10 C15.552,10 16,10.448 16,11 C16,11.552 15.552,12 15,12 Z M3,7 L1,7 C0.448,7 0,6.552 0,6 C0,5.448 0.448,5 1,5 L3,5 L3,7 Z"/></g></g></g></svg>