<svg xmlns="http://www.w3.org/2000/svg" width="300" height="300" preserveAspectRatio="xMidYMid meet" version="1.0" viewBox="0 0 225 225"><metadata>Created by potrace 1.16, written by Peter Selinger 2001-2019</metadata><g fill="#000" stroke="none"><path d="M452 1357 l-252 -252 255 -255 255 -255 177 177 178 178 -50 50 -49 50 -128 -127 -128 -128 -155 155 -155 155 152 152 153 153 330 -328 c299 -297 336 -331 395 -358 58 -25 76 -29 165 -29 92 0 106 3 167 32 130 61 215 172 239 312 31 173 -65 357 -224 432 -187 87 -347 49 -518 -124 l-90 -91 51 -51 50 -50 83 86 c102 104 148 129 240 129 113 0 196 -50 244 -148 55 -111 29 -240 -64 -321 -76 -68 -161 -85 -264 -55 -51 15 -72 34 -429 390 l-375 374 -253 -253z" transform="translate(0.000000,225.000000) scale(0.100000,-0.100000)"/></g></svg>