<svg xmlns="http://www.w3.org/2000/svg" xmlns:xlink="http://www.w3.org/1999/xlink" id="Layer_1" x="0" y="0" version="1.1" viewBox="0 0 512 512" xml:space="preserve" style="enable-background:new 0 0 512 512"><path d="M255.1,4C116.3,4,3.8,117.2,3.8,256.8s112.6,252.8,251.4,252.8s251.4-113.2,251.4-252.8	C506.5,117.2,394,4,255.1,4z M257.6,440.2c-101.5,0-183.8-82.8-183.8-184.8c0-102.1,82.3-184.8,183.8-184.8s183.8,82.8,183.8,184.8	S359.1,440.2,257.6,440.2z M379.9,323.3l31.5,19.6c0,0-58.9,102.2-176.5,89.6C117.2,419.9,87.1,302.3,87.1,302.3	c24.5,45.5,68.6,98,156.3,100.8C330.9,405.9,379.9,323.3,379.9,323.3z M411.6,338l-29.5-18.4l-3.8-2.4l-2.3,3.9	c-0.5,0.8-48.8,80.4-132.6,77.7c-36.6-1.2-67.9-11.2-94.4-30c-8.6-8.3-12.2-14.7-12.2-14.7c40.7,32,108.3,35.1,148.5,16.1	c96.6-45.5,92.4-126,92.4-126l54.5-0.6C432.2,243.6,438.7,293.5,411.6,338z M213.3,373.9c0,0,24-0.8,55.2-15.4	c25.5-12,53.3-39.2,66.2-64.4c37.1-72.4-3.9-103.1-3.9-103.1l64.4-40c0,0,33.6,39.2,36.2,83.7l-57.4,0.6l-4.6,0.1l0.2,4.6	c0.2,3.1,2.8,85.2-80.7,122.4C246.6,381.2,216.5,375.2,213.3,373.9z"/></svg>