<svg xmlns="http://www.w3.org/2000/svg" xmlns:xlink="http://www.w3.org/1999/xlink" width="16" height="16" x="0" y="0" viewBox="0 0 16 16"><g><path fill="#444" d="M12,7.999c0-0.326-0.159-0.632-0.427-0.819l-10-7C1.269-0.034,0.869-0.058,0.538,0.112	C0.207,0.285,0,0.626,0,0.999v14.001c0,0.373,0.207,0.715,0.538,0.887c0.331,0.17,0.73,0.146,1.035-0.068l10-7	C11.841,8.633,12,8.327,12,8.001C12,8,12,8,12,7.999C12,8,12,8,12,7.999z" transform="translate(0, 0)"/><path fill="#444" d="M15,16c-0.552,0-1-0.447-1-1V1c0-0.553,0.448-1,1-1s1,0.447,1,1v14C16,15.553,15.552,16,15,16	z" data-color="color-2" transform="translate(0, 0)"/></g></svg>