<?xml version="1.0" encoding="UTF-8"?>
<svg width="32px" height="30px" viewBox="0 0 32 30" version="1.1" xmlns="http://www.w3.org/2000/svg" xmlns:xlink="http://www.w3.org/1999/xlink">
    <g id="Page-1" stroke="none" stroke-width="1" fill="none" fill-rule="evenodd">
        <path d="M5,3.5 L5.6,3.6 C6.5,3.6 7.2,4.3 7.3,5.2 L7.3,5.2 L7.29957864,7.714 L7.4,7.7 C8.46666667,7.7 9.77037037,7.62098765 11.1706447,7.60342936 L11.7,7.6 C13.4,7.6 14.9,7.6 16,7.7 L16,7.7 L17.9,7.9 C20.3,8.1 22.5,10.3 22.7,12.7 L22.7,12.7 L22.7,13.2 C22.9,15.6 22.9,19.4 22.7,21.6 L22.7,21.6 L22.6675404,21.8261291 C22.266483,24.225528 20.1272727,26.2060606 17.8,26.4 L17.8,26.4 L15.9,26.6 C15.1,27.9 14.6,28.8 14.3,29.2 L14.3,29.2 L14.1,29.5 L11.9,25.1 L13.0152,25.0992 C14.068,25.096 14.98,25.08 15.7,25 L15.7,25 L17.5,24.8 C19.1,24.7 20.6,23.2 20.8,21.6 C21,19.4 21,15.6 20.8,13.4 L20.8,13.4 L20.8,12.9 C20.6,11.3 19.1,9.8 17.5,9.7 L17.5,9.7 L15.6,9.5 C14.72,9.42 13.584,9.404 12.3968,9.4008 L10.6032,9.4008 C9.416,9.404 8.28,9.42 7.4,9.5 L7.4,9.5 L5.5,9.7 C3.9,9.8 2.4,11.3 2.2,12.9 L2.2,12.9 L2.2,13.4 C2,15.6 2.2,19.4 2.4,21.6 L2.4,21.6 L2.42710969,21.7773002 C2.70397805,23.3091907 4.05925926,24.7037037 5.6,24.8 L5.6,24.8 L7.5,25 C8,25 8.6,25.1 9.4,25.1 L9.4,25.1 L9.5,25.1 L10.4,26.8 L10,26.8 C9,26.8 8,26.8 7.3,26.7 L7.3,26.7 L5.4,26.5 C3,26.3 0.9,24.1 0.7,21.7 L0.7,21.7 L0.646118164,21.2507812 C0.388671875,18.91875 0.3125,15.35625 0.5,13.2 L0.5,13.2 L0.5,12.7 C0.643295455,11.5536364 1.22007775,10.475718 2.04508658,9.64060761 L1.8,9.6 C1,9.5 0.3,8.8 0.2,8 C0.1,7.2 2.08166817e-17,6 0.1,5.2 L0.1,5.2 L0.1,5.1 C0.2,4.3 0.9,3.6 1.8,3.5 L1.8,3.5 L5,3.5 Z M21.3,0.5 C22,0.6 22.6,1.2 22.7,1.9 L22.7,1.9 L22.6998102,2.43528166 C23.0505169,2.1929512 23.4619318,2.03650568 23.9,2 L23.9,2 L24.9,2 C25.4,1.9 26.1,1.9 26.8,1.9 C27.5,1.9 28.2,2 28.7,2 L28.7,2 L29.5,2 C30.7,2.1 31.7,3.1 31.8,4.3 L31.8,4.3 L31.8,4.5 C31.9,5.6 31.9,7.3 31.7,8.4 C31.6,9.6 30.6,10.6 29.4,10.7 L29.4,10.7 L28.6,10.8 C28.3,11.4 27.8,12.2 27.8,12.2 L27.8,12.2 L26.6,9.8 L27,9.8 C27.6,9.8 28.1,9.7 28.5,9.7 L28.5,9.7 L29.4,9.6 C30.1,9.6 30.7,9 30.8,8.3 C30.9,7.3 30.9,5.6 30.8,4.6 L30.8,4.6 L30.8,4.4 C30.7,3.8 30.1,3.2 29.4,3.1 L29.4,3.1 L28.5,3 C28.1,2.9 27.4,2.9 26.7,2.9 C26,2.9 25.4,3 24.9,3 L24.9,3 L24.1,3.1 C23.4,3.1 22.8,3.7 22.7,4.4 L22.7,4.4 L22.7,4.6 C22.6,5.6 22.7,7.2 22.8,8.3 C22.9,9 23.5,9.6 24.2,9.7 L24.2,9.7 L25.1,9.8 L25.1,9.8 L25.7,9.8 L26.2,10.8 L24.9,10.8 L24,10.7 C22.8,10.6 21.8,9.6 21.7,8.4 C21.6268809,7.59569008 21.5537618,6.47059615 21.5588275,5.49382686 C21.4462911,5.51414543 21.3256109,5.51570136 21.2,5.5 L21.2,5.5 L20.8,5.5 C20.6,5.8 20.3,6.3 20.3,6.3 L20.3,6.3 L20.3,6.4 L19.5,4.9 L21.2,4.9 C21.3311355,4.9 21.4622711,4.86775651 21.5793124,4.81031664 L21.6,4.5 L21.6,4.3 C21.6346676,3.88398915 21.7775008,3.4920151 21.9993342,3.15324329 L22,2 C21.9,1.7 21.6,1.3 21.2,1.3 L21.2,1.3 L18,1.3 C17.6,1.3 17.2,1.6 17.2,2 L17.2,2 L17.2,2.1 C17.1,2.6 17.1,3.6 17.2,4.2 C17.3,4.6 17.6,5 18,5 L18,5 L19,5 L19.3,5.6 L18,5.6 C17.3,5.6 16.7,5 16.7,4.3 C16.7,3.6 16.6,2.6 16.7,2 L16.7,2 L16.7,1.9 C16.8,1.2 17.4,0.6 18.1,0.5 L18.1,0.5 Z M5,4.3 L2.4,4.3 L1.8,4.4 C1.3,4.4 0.8,4.8 0.8,5.3 L0.8,5.3 L0.8,7.9 C0.9,8.4 1.3,8.9 1.8,8.9 L1.8,8.9 L2.9,8.9 L2.90850773,8.91836358 C3.65464874,8.40684199 4.51368631,8.07385947 5.4,8 L5.4,8 L6.52065526,7.83590615 C6.5994467,7.12424535 6.59256162,6.04793134 6.5,5.4 L6.5,5.4 L6.5,5.3 C6.5,4.9 6.1,4.4 5.6,4.4 L5.6,4.4 L5,4.3 L5,4.3 Z" id="Combined-Shape" fill="#000000" fill-rule="nonzero"></path>
    </g>
</svg>
