<svg xmlns="http://www.w3.org/2000/svg" xmlns:xlink="http://www.w3.org/1999/xlink" width="200" height="200" class="lds-spinner" preserveAspectRatio="xMidYMid" viewBox="0 0 100 100" style="background:0 0"><g transform="rotate(0 50 50)"><rect width="6" height="12" x="47" y="24" fill="#444" rx="9.4" ry="4.8"><animate attributeName="opacity" begin="-1.375s" dur="1.5s" keyTimes="0;1" repeatCount="indefinite" values="1;0"/></rect></g><g transform="rotate(30 50 50)"><rect width="6" height="12" x="47" y="24" fill="#444" rx="9.4" ry="4.8"><animate attributeName="opacity" begin="-1.25s" dur="1.5s" keyTimes="0;1" repeatCount="indefinite" values="1;0"/></rect></g><g transform="rotate(60 50 50)"><rect width="6" height="12" x="47" y="24" fill="#444" rx="9.4" ry="4.8"><animate attributeName="opacity" begin="-1.125s" dur="1.5s" keyTimes="0;1" repeatCount="indefinite" values="1;0"/></rect></g><g transform="rotate(90 50 50)"><rect width="6" height="12" x="47" y="24" fill="#444" rx="9.4" ry="4.8"><animate attributeName="opacity" begin="-1s" dur="1.5s" keyTimes="0;1" repeatCount="indefinite" values="1;0"/></rect></g><g transform="rotate(120 50 50)"><rect width="6" height="12" x="47" y="24" fill="#444" rx="9.4" ry="4.8"><animate attributeName="opacity" begin="-0.875s" dur="1.5s" keyTimes="0;1" repeatCount="indefinite" values="1;0"/></rect></g><g transform="rotate(150 50 50)"><rect width="6" height="12" x="47" y="24" fill="#444" rx="9.4" ry="4.8"><animate attributeName="opacity" begin="-0.75s" dur="1.5s" keyTimes="0;1" repeatCount="indefinite" values="1;0"/></rect></g><g transform="rotate(180 50 50)"><rect width="6" height="12" x="47" y="24" fill="#444" rx="9.4" ry="4.8"><animate attributeName="opacity" begin="-0.625s" dur="1.5s" keyTimes="0;1" repeatCount="indefinite" values="1;0"/></rect></g><g transform="rotate(210 50 50)"><rect width="6" height="12" x="47" y="24" fill="#444" rx="9.4" ry="4.8"><animate attributeName="opacity" begin="-0.5s" dur="1.5s" keyTimes="0;1" repeatCount="indefinite" values="1;0"/></rect></g><g transform="rotate(240 50 50)"><rect width="6" height="12" x="47" y="24" fill="#444" rx="9.4" ry="4.8"><animate attributeName="opacity" begin="-0.375s" dur="1.5s" keyTimes="0;1" repeatCount="indefinite" values="1;0"/></rect></g><g transform="rotate(270 50 50)"><rect width="6" height="12" x="47" y="24" fill="#444" rx="9.4" ry="4.8"><animate attributeName="opacity" begin="-0.25s" dur="1.5s" keyTimes="0;1" repeatCount="indefinite" values="1;0"/></rect></g><g transform="rotate(300 50 50)"><rect width="6" height="12" x="47" y="24" fill="#444" rx="9.4" ry="4.8"><animate attributeName="opacity" begin="-0.125s" dur="1.5s" keyTimes="0;1" repeatCount="indefinite" values="1;0"/></rect></g><g transform="rotate(330 50 50)"><rect width="6" height="12" x="47" y="24" fill="#444" rx="9.4" ry="4.8"><animate attributeName="opacity" begin="0s" dur="1.5s" keyTimes="0;1" repeatCount="indefinite" values="1;0"/></rect></g></svg>