<svg xmlns="http://www.w3.org/2000/svg" xmlns:xlink="http://www.w3.org/1999/xlink" id="Layer_1" x="0" y="0" version="1.1" viewBox="0 0 85.7 214.5" xml:space="preserve" style="enable-background:new 0 0 85.7 214.5"><g><g><path fill="#444" d="M73.9,0.6c-1.3-0.8-3.5-0.8-4.9,0l-9.3,5.9c-1.3,0.8-2.4,2.8-2.4,4.4V20c0,1.6,1.1,3.6,2.4,4.4l9.3,5.9 c1.3,0.8,3.5,0.8,4.9,0l9.3-5.9c1.3-0.8,2.4-2.8,2.4-4.4V11c0-1.6-1.1-3.6-2.4-4.4L73.9,0.6z"/></g><g><path fill="#444" d="M73.9,39.3c-1.3-0.8-3.5-0.8-4.9,0l-9.3,5.9c-1.3,0.8-2.4,2.8-2.4,4.4v18.2c0,1.6,0,4.2,0,5.8v9.1 c0,1.6,1.1,3.6,2.4,4.4l9.3,5.9c1.3,0.8,3.5,0.8,4.9,0l9.3-5.9c1.3-0.8,2.4-2.8,2.4-4.4v-9.1c0-1.6,0-4.2,0-5.8V49.6 c0-1.6-1.1-3.6-2.4-4.4L73.9,39.3z"/></g><g><path fill="#444" d="M73.9,105.6c-1.3-0.8-3.5-0.8-4.9,0l-9.3,5.9c-1.3,0.8-2.4,2.8-2.4,4.4v9.1c0,1.6,1.1,3.6,2.4,4.4l9.3,5.9 c1.3,0.8,3.5,0.8,4.9,0l9.3-5.9c1.3-0.8,2.4-2.8,2.4-4.4V116c0-1.6-1.1-3.6-2.4-4.4L73.9,105.6z"/></g><g><path fill="#444" d="M16.6,105.6c-1.3-0.8-3.5-0.8-4.9,0l-9.3,5.9C1.1,112.4,0,114.4,0,116v9.1c0,1.6,1.1,3.6,2.4,4.4l9.3,5.9 c1.3,0.8,3.5,0.8,4.9,0l9.3-5.9c1.3-0.8,2.4-2.8,2.4-4.4V116c0-1.6-1.1-3.6-2.4-4.4L16.6,105.6z"/></g><g><path fill="#444" d="M16.6,144.9c-1.3-0.8-3.5-0.8-4.9,0l-9.3,5.9c-1.3,0.8-2.4,2.8-2.4,4.4v9.1c0,1.6,1.1,3.6,2.4,4.4l9.3,5.9 c1.3,0.8,3.5,0.8,4.9,0l9.3-5.9c1.3-0.8,2.4-2.8,2.4-4.4v-9.1c0-1.6-1.1-3.6-2.4-4.4L16.6,144.9z"/></g><g><path fill="#444" d="M73.9,144.9c-1.3-0.8-3.5-0.8-4.9,0l-9.3,5.9c-1.3,0.8-2.4,2.8-2.4,4.4v9.1c0,1.6,1.1,3.6,2.4,4.4l9.3,5.9 c1.3,0.8,3.5,0.8,4.9,0l9.3-5.9c1.3-0.8,2.4-2.8,2.4-4.4v-9.1c0-1.6-1.1-3.6-2.4-4.4L73.9,144.9z"/></g><g><path fill="#444" d="M16.6,184.1c-1.3-0.8-3.5-0.8-4.9,0L2.4,190c-1.3,0.8-2.4,2.8-2.4,4.4v9.1c0,1.6,1.1,3.6,2.4,4.4l9.3,5.9 c1.3,0.8,3.5,0.8,4.9,0l9.3-5.9c1.3-0.8,2.4-2.8,2.4-4.4v-9.1c0-1.6-1.1-3.6-2.4-4.4L16.6,184.1z"/></g></g></svg>