<?xml version="1.0" encoding="utf-8"?>
<!-- Generated by IcoMoon.io -->
<!DOCTYPE svg PUBLIC "-//W3C//DTD SVG 1.1//EN" "http://www.w3.org/Graphics/SVG/1.1/DTD/svg11.dtd">
<svg version="1.1" xmlns="http://www.w3.org/2000/svg" xmlns:xlink="http://www.w3.org/1999/xlink" width="39" height="32" viewBox="0 0 39 32">
<path fill="#444" d="M2.871 5.794c0.114-1.774 1.605-3.342 3.609-3.211 0.562 0.036 1.225 0.085 2.216 0.822 4.464 3.884 7.095 10.746 6.3 16.674-0.039 0.292-0.375 0.282-0.458 0-1.253-4.247-5.379-9.137-9.046-10.592-1.737-0.689-2.734-1.962-2.622-3.692z"></path>
<path fill="#444" d="M34.548 5.452c0-2.7-2.268-5.103-5.572-5.028-6.276 0.143-14.712 16.293-9.884 30.96 0.058 0.298 0.347 0.241 0.367-0.061 0.672-10.206 6.805-18.195 12.314-21.298 2.169-1.222 2.775-2.719 2.775-4.573z"></path>
<path fill="#444" d="M0.135 20.231c0.137 2.040 1.841 3.039 3.414 3.039 3.583 0 8.063 1.686 10.7 3.875 0.218 0.182 0.257 0.121 0.115-0.375-1.066-3.732-6.771-9.983-10.921-9.983-2.147 0-3.419 1.784-3.308 3.444z"></path>
<path fill="#444" d="M38.596 20.231c-0.137 2.040-1.841 3.039-3.414 3.039-3.583 0-8.063 1.686-10.7 3.875-0.218 0.182-0.257 0.121-0.115-0.375 1.066-3.732 6.771-9.983 10.921-9.983 2.147 0 3.419 1.784 3.308 3.444z"></path>
</svg>
