<svg xmlns="http://www.w3.org/2000/svg" xmlns:xlink="http://www.w3.org/1999/xlink" id="Layer_1" x="0" y="0" enable-background="new 0 0 20 20" version="1.1" viewBox="0 0 20 20" xml:space="preserve"><g><g><path fill="#444" d="M15.8,19.4c-0.1,0-0.1,0-0.2-0.1l-5.6-3l-5.6,3c-0.2,0.1-0.3,0.1-0.5,0c-0.1-0.1-0.2-0.3-0.2-0.4l1.1-6.3 L0.2,8.2C0.1,8.1,0.1,7.9,0.1,7.7c0.1-0.2,0.2-0.3,0.4-0.3l6.3-0.9l2.8-5.7c0.2-0.3,0.7-0.3,0.8,0l2.8,5.7l6.3,0.9 c0.2,0,0.3,0.1,0.4,0.3c0.1,0.2,0,0.3-0.1,0.5l-4.6,4.4l1.1,6.3c0,0.2,0,0.3-0.2,0.4C16,19.4,15.9,19.4,15.8,19.4z M1.5,8.2l4.1,4 c0.1,0.1,0.2,0.3,0.1,0.4l-1,5.6l5-2.6c0.1-0.1,0.3-0.1,0.4,0l5,2.6l-1-5.6c0-0.1,0-0.3,0.1-0.4l4.1-4l-5.6-0.8 c-0.1,0-0.3-0.1-0.3-0.2L10,2L7.5,7.1C7.4,7.3,7.3,7.3,7.1,7.4L1.5,8.2z" transform="translate(0, 0)"/></g></g></svg>