<svg xmlns="http://www.w3.org/2000/svg" xmlns:xlink="http://www.w3.org/1999/xlink" width="16" height="16" version="1.1" viewBox="0 0 16 16"><desc>Created with Sketch.</desc><g id="0522-v1" fill="none" fill-rule="evenodd" stroke="none" stroke-width="1"><g id="Artboard-2" fill="#888" transform="translate(-708.000000, -1506.000000)"><path id="Fill-87" d="M723,1511 C723.6,1511 724,1511.4 724,1512 L724,1521 C724,1521.6 723.6,1522 723,1522 L721,1522 C720.4,1522 720,1521.6 720,1521 L720,1512 C720,1511.4 720.4,1511 721,1511 L723,1511 Z M711,1516 C711.6,1516 712,1516.4 712,1517 L712,1521 C712,1521.6 711.6,1522 711,1522 L709,1522 C708.4,1522 708,1521.6 708,1521 L708,1517 C708,1516.4 708.4,1516 709,1516 L711,1516 Z M717,1506 C717.6,1506 718,1506.4 718,1507 L718,1521 C718,1521.6 717.6,1522 717,1522 L715,1522 C714.4,1522 714,1521.6 714,1521 L714,1507 C714,1506.4 714.4,1506 715,1506 L717,1506 Z"/></g></g></svg>