 <?xml version="1.0" encoding="UTF-8"?>
 <svg width="14px" height="16px" viewBox="0 0 14 16" version="1.1" xmlns="http://www.w3.org/2000/svg" xmlns:xlink="http://www.w3.org/1999/xlink">
     <!-- Generator: Sketch 52.2 (67145) - http://www.bohemiancoding.com/sketch -->
     <desc>Created with Sketch.</desc>
     <g id="Page-1" stroke="none" stroke-width="1" fill="none" fill-rule="evenodd" stroke-linecap="round" stroke-linejoin="round">
         <g id="task-icons-copy" transform="translate(-339.000000, -48.000000)" stroke="#2E2A26" stroke-width="1.4">
             <g id="task-copy" transform="translate(340.000000, 49.000000)">
                 <path d="M10.1538462,1 L11.0769231,1 C11.5867244,1 12,1.41573559 12,1.92857143 L12,13.0714286 C12,13.5842645 11.5867244,14 11.0769231,14 L0.923076923,14 C0.413275616,14 0,13.5842645 0,13.0714286 L0,1.92857143 C0,1.41573559 0.413275616,1 0.923076923,1 L1.84615385,1" id="Shape"></path>
                 <rect id="Rectangle-path" x="3.93442623" y="0" width="4.05245902" height="2"></rect>
                 <path d="M5.50819672,6.4 L9.04918033,6.4" id="Shape"></path>
                 <path d="M2.75409836,6.4 L2.85409836,6.4" id="Shape-Copy"></path>
                 <path d="M5.50819672,9.8 L9.04918033,9.8" id="Shape-Copy-3"></path>
                 <path d="M2.75409836,9.8 L2.85409836,9.8" id="Shape-Copy-4"></path>
             </g>
         </g>
     </g>
 </svg>
