<?xml version="1.0" encoding="UTF-8"?>
<svg width="25px" height="20px" viewBox="0 0 25 20" version="1.1" xmlns="http://www.w3.org/2000/svg" xmlns:xlink="http://www.w3.org/1999/xlink">
    <!-- Generator: Sketch 53.2 (72643) - https://sketchapp.com -->
    <defs>
        <polygon id="path-1" points="0.272711111 0.413933595 18.8483346 0.413933595 18.8483346 3.18781072 0.272711111 3.18781072"></polygon>
        <polygon id="path-3" points="0.272711111 0.159004444 18.8483346 0.159004444 18.8483346 2.93288157 0.272711111 2.93288157"></polygon>
        <polygon id="path-5" points="0.272711111 0.448409935 18.8483346 0.448409935 18.8483346 3.22228706 0.272711111 3.22228706"></polygon>
    </defs>
    <g id="create-new-modal" stroke="none" stroke-width="1" fill="none" fill-rule="evenodd">
        <g id="Create-Modal_2" transform="translate(-499.000000, -69.000000)">
            <g id="tasks-icon-2" transform="translate(499.000000, 69.000000)">
                <g id="tasks-icon">
                    <g id="Group-3" transform="translate(5.437908, 0.170098)">
                        <mask id="mask-2" fill="white">
                            <use xlink:href="#path-1"></use>
                        </mask>
                        <g id="Clip-2"></g>
                        <path d="M17.4624837,3.18781072 L1.65883399,3.18781072 C0.892088889,3.18781072 0.272711111,2.56625778 0.272711111,1.80114405 C0.272711111,1.03548654 0.892088889,0.413933595 1.65883399,0.413933595 L17.4624837,0.413933595 C18.228685,0.413933595 18.8486065,1.03548654 18.8486065,1.80114405 C18.8486065,2.56625778 18.228685,3.18781072 17.4624837,3.18781072" id="Fill-1" fill="#444444" mask="url(#mask-2)"></path>
                    </g>
                    <path d="M1.42755974,3.39880157 C2.21551268,3.39880157 2.85501072,2.75984732 2.85501072,1.97135059 C2.85501072,1.18285386 2.21551268,0.543899608 1.42755974,0.543899608 C0.639063007,0.543899608 0.00010875817,1.18285386 0.00010875817,1.97135059 C0.00010875817,2.75984732 0.639063007,3.39880157 1.42755974,3.39880157" id="Fill-4" fill="#444444"></path>
                    <path d="M1.42755974,11.3007352 C2.21551268,11.3007352 2.85501072,10.6617809 2.85501072,9.87328418 C2.85501072,9.08478745 2.21551268,8.4458332 1.42755974,8.4458332 C0.639063007,8.4458332 0.00010875817,9.08478745 0.00010875817,9.87328418 C0.00010875817,10.6617809 0.639063007,11.3007352 1.42755974,11.3007352" id="Fill-6" fill="#444444"></path>
                    <path d="M1.42755974,19.2027231 C2.21551268,19.2027231 2.85501072,18.5637689 2.85501072,17.7752722 C2.85501072,16.9873192 2.21551268,16.3478212 1.42755974,16.3478212 C0.639063007,16.3478212 0.00010875817,16.9873192 0.00010875817,17.7752722 C0.00010875817,18.5637689 0.639063007,19.2027231 1.42755974,19.2027231" id="Fill-8" fill="#444444"></path>
                    <g id="Group-12" transform="translate(5.437908, 8.326961)">
                        <mask id="mask-4" fill="white">
                            <use xlink:href="#path-3"></use>
                        </mask>
                        <g id="Clip-11"></g>
                        <path d="M17.4624837,2.93288157 L1.65883399,2.93288157 C0.892088889,2.93288157 0.272711111,2.31132863 0.272711111,1.5462149 C0.272711111,0.780557386 0.892088889,0.159004444 1.65883399,0.159004444 L17.4624837,0.159004444 C18.228685,0.159004444 18.8486065,0.780557386 18.8486065,1.5462149 C18.8486065,2.31132863 18.228685,2.93288157 17.4624837,2.93288157" id="Fill-10" fill="#444444" mask="url(#mask-4)"></path>
                    </g>
                    <g id="Group-15" transform="translate(5.437908, 15.940032)">
                        <mask id="mask-6" fill="white">
                            <use xlink:href="#path-5"></use>
                        </mask>
                        <g id="Clip-14"></g>
                        <path d="M17.4624837,3.22228706 L1.65883399,3.22228706 C0.892088889,3.22228706 0.272711111,2.60073412 0.272711111,1.83562039 C0.272711111,1.06996288 0.892088889,0.448409935 1.65883399,0.448409935 L17.4624837,0.448409935 C18.228685,0.448409935 18.8486065,1.06996288 18.8486065,1.83562039 C18.8486065,2.60073412 18.228685,3.22228706 17.4624837,3.22228706" id="Fill-13" fill="#444444" mask="url(#mask-6)"></path>
                    </g>
                </g>
            </g>
        </g>
    </g>
</svg>
