<?xml version="1.0" encoding="utf-8"?>
<!-- Generated by IcoMoon.io -->
<!DOCTYPE svg PUBLIC "-//W3C//DTD SVG 1.1//EN" "http://www.w3.org/Graphics/SVG/1.1/DTD/svg11.dtd">
<svg version="1.1" xmlns="http://www.w3.org/2000/svg" xmlns:xlink="http://www.w3.org/1999/xlink" viewBox="0 0 15.84 15.84">
<path fill="#444" d="M12.87,4.92H5.6A.64.64,0,0,1,5,4.29a.64.64,0,0,1,.64-.64h7.27a.64.64,0,0,1,.63.64A.63.63,0,0,1,12.87,4.92Z"></path>
<circle fill="#444" cx="2.99" cy="4.29" r="0.66" />
<circle fill="#444" cx="2.99" cy="7.92" r="0.66" />
<circle fill="#444" cx="2.99" cy="11.55" r="0.66" />
<path fill="#444" d="M12.87,8.56H5.6a.64.64,0,0,1,0-1.28h7.27a.64.64,0,0,1,0,1.28Z"></path>
<path fill="#444" d="M12.87,12.19H5.6A.64.64,0,0,1,5,11.55a.64.64,0,0,1,.64-.63h7.27a.63.63,0,0,1,.63.63A.64.64,0,0,1,12.87,12.19Z"></path>
</svg>
