<svg xmlns="http://www.w3.org/2000/svg" xmlns:xlink="http://www.w3.org/1999/xlink" width="14" height="16" version="1.1" viewBox="0 0 14 16"><desc>Created with Sketch.</desc><g id="Page-1" fill="none" fill-rule="evenodd" stroke="none" stroke-linecap="round" stroke-linejoin="round" stroke-width="1"><g id="task-icons-copy" stroke="#2E2A26" stroke-width="1.4" transform="translate(-339.000000, -48.000000)"><g id="task-copy" transform="translate(340.000000, 49.000000)"><path id="Shape" d="M10.1538462,1 L11.0769231,1 C11.5867244,1 12,1.41573559 12,1.92857143 L12,13.0714286 C12,13.5842645 11.5867244,14 11.0769231,14 L0.923076923,14 C0.413275616,14 0,13.5842645 0,13.0714286 L0,1.92857143 C0,1.41573559 0.413275616,1 0.923076923,1 L1.84615385,1"/><rect id="Rectangle-path" width="4.052" height="2" x="3.934" y="0"/><path id="Shape" d="M5.50819672,6.4 L9.04918033,6.4"/><path id="Shape-Copy" d="M2.75409836,6.4 L2.85409836,6.4"/><path id="Shape-Copy-3" d="M5.50819672,9.8 L9.04918033,9.8"/><path id="Shape-Copy-4" d="M2.75409836,9.8 L2.85409836,9.8"/></g></g></g></svg>