<svg xmlns="http://www.w3.org/2000/svg" xmlns:xlink="http://www.w3.org/1999/xlink" width="24" height="25" version="1.1" viewBox="0 0 24 25"><g id="brief-template" fill="none" fill-rule="evenodd" stroke="none" stroke-width="1"><g id="3-select-brief-empty" fill="#B2B2B3" fill-rule="nonzero" transform="translate(-357.000000, -421.000000)"><g id="Group-10-Copy" transform="translate(260.000000, 270.610938)"><g id="Group-30"><g id="Group-29" transform="translate(3.000000, 104.000000)"><g id="Group-28" transform="translate(93.500000, 38.000000)"><g id="pencil" transform="translate(0.500000, 0.374441)"><g id="Group-7"><g id="components" transform="translate(0.000000, 8.625559)"><path id="Combined-Shape" d="M1,0 L5,0 C5.55228475,-1.01453063e-16 6,0.44771525 6,1 L6,23 C6,23.5522847 5.55228475,24 5,24 L1,24 C0.44771525,24 6.76353751e-17,23.5522847 0,23 L0,1 C-6.76353751e-17,0.44771525 0.44771525,1.01453063e-16 1,0 Z M10,0 L23,0 C23.5522847,-1.01453063e-16 24,0.44771525 24,1 L24,5 C24,5.55228475 23.5522847,6 23,6 L10,6 C9.44771525,6 9,5.55228475 9,5 L9,1 C9,0.44771525 9.44771525,1.01453063e-16 10,0 Z M10,9 L14,9 C14.5522847,9 15,9.44771525 15,10 L15,14 C15,14.5522847 14.5522847,15 14,15 L10,15 C9.44771525,15 9,14.5522847 9,14 L9,10 C9,9.44771525 9.44771525,9 10,9 Z M10,18 L14,18 C14.5522847,18 15,18.4477153 15,19 L15,23 C15,23.5522847 14.5522847,24 14,24 L10,24 C9.44771525,24 9,23.5522847 9,23 L9,19 C9,18.4477153 9.44771525,18 10,18 Z M19,9 L23,9 C23.5522847,9 24,9.44771525 24,10 L24,23 C24,23.5522847 23.5522847,24 23,24 L19,24 C18.4477153,24 18,23.5522847 18,23 L18,10 C18,9.44771525 18.4477153,9 19,9 Z"/></g></g></g></g></g></g></g></g></g></svg>