<svg xmlns="http://www.w3.org/2000/svg" xmlns:xlink="http://www.w3.org/1999/xlink" width="20" height="20" version="1.1" viewBox="0 0 20 20"><desc>Created with Sketch.</desc><g id="914" fill="none" fill-rule="evenodd" stroke="none" stroke-linecap="round" stroke-linejoin="round" stroke-width="1"><g id="campaign_07_analytics_ops_mvp" stroke="#777" transform="translate(-738.000000, -254.000000)"><g id="time-alarm" transform="translate(738.000000, 254.000000)"><polyline id="Shape" points="6.875 8.125 10.625 11.875 14.375 11.875"/><path id="Shape" d="M0.80625,6.25 C0.68875,5.85375 0.625,5.435 0.625,5 C0.625,2.58375 2.58375,0.625 5,0.625 C5.67,0.625 6.305,0.77625 6.8725,1.045"/><path id="Shape" d="M19.19375,6.25 C19.31125,5.85375 19.375,5.435 19.375,5 C19.375,2.58375 17.41625,0.625 15,0.625 C14.33,0.625 13.695,0.77625 13.1275,1.045"/><circle id="Oval" cx="10" cy="11.25" r="8.125"/><path id="Shape" d="M1.875,19.375 L4.255,16.995"/><path id="Shape" d="M18.125,19.375 L15.745,16.995"/></g></g></g></svg>