<?xml version="1.0" encoding="UTF-8"?>
<svg width="20px" height="20px" viewBox="0 0 20 20" version="1.1" xmlns="http://www.w3.org/2000/svg" xmlns:xlink="http://www.w3.org/1999/xlink">
    <!-- Generator: Sketch 52.2 (67145) - http://www.bohemiancoding.com/sketch -->
    <desc>Created with Sketch.</desc>
    <g id="0914" stroke="none" stroke-width="1" fill="none" fill-rule="evenodd" stroke-linecap="round" stroke-linejoin="round">
        <g id="campaign_07_analytics_ops_mvp" transform="translate(-738.000000, -254.000000)" stroke="#777777">
            <g id="time-alarm" transform="translate(738.000000, 254.000000)">
                <polyline id="Shape" points="6.875 8.125 10.625 11.875 14.375 11.875"></polyline>
                <path d="M0.80625,6.25 C0.68875,5.85375 0.625,5.435 0.625,5 C0.625,2.58375 2.58375,0.625 5,0.625 C5.67,0.625 6.305,0.77625 6.8725,1.045" id="Shape"></path>
                <path d="M19.19375,6.25 C19.31125,5.85375 19.375,5.435 19.375,5 C19.375,2.58375 17.41625,0.625 15,0.625 C14.33,0.625 13.695,0.77625 13.1275,1.045" id="Shape"></path>
                <circle id="Oval" cx="10" cy="11.25" r="8.125"></circle>
                <path d="M1.875,19.375 L4.255,16.995" id="Shape"></path>
                <path d="M18.125,19.375 L15.745,16.995" id="Shape"></path>
            </g>
        </g>
    </g>
</svg>
