<?xml version="1.0" encoding="UTF-8"?>
<svg width="16px" height="16px" viewBox="0 0 16 16" version="1.1" xmlns="http://www.w3.org/2000/svg" xmlns:xlink="http://www.w3.org/1999/xlink">
    <!-- Generator: Sketch 47.1 (45422) - http://www.bohemiancoding.com/sketch -->

    <desc>Created with Sketch.</desc>
    <defs></defs>
    <g id="1026-1115" stroke="none" stroke-width="1" fill="none" fill-rule="evenodd">
        <g id="icons-copy" transform="translate(-503.000000, -211.000000)" fill-rule="nonzero" fill="#236686">
            <g id="todo" transform="translate(503.000000, 211.000000)">
                <path d="M6.3,11.7 L4.3,9.7 C3.9,9.3 3.9,8.7 4.3,8.3 C4.7,7.9 5.3,7.9 5.7,8.3 L7,9.6 L10.3,6.3 C10.7,5.9 11.3,5.9 11.7,6.3 C12.1,6.7 12.1,7.3 11.7,7.7 L7.7,11.7 C7.3,12.1 6.8,12.2 6.3,11.7 Z" id="Shape"></path>
                <path d="M15,1 L12,1 L12,3 L14,3 L14,14 L2,14 L2,3 L4,3 L4,1 L1,1 C0.4,1 0,1.4 0,2 L0,15 C0,15.6 0.4,16 1,16 L15,16 C15.6,16 16,15.6 16,15 L16,2 C16,1.4 15.6,1 15,1 Z" id="Shape"></path>
                <rect id="Rectangle-path" x="5" y="0" width="6" height="4"></rect>
            </g>
        </g>
    </g>
</svg>
