<svg xmlns="http://www.w3.org/2000/svg" xmlns:xlink="http://www.w3.org/1999/xlink" width="16" height="16" version="1.1" viewBox="0 0 16 16"><desc>Created with Sketch.</desc><g id="1026-1115" fill="none" fill-rule="evenodd" stroke="none" stroke-width="1"><g id="icons-copy" fill="#236686" fill-rule="nonzero" transform="translate(-503.000000, -211.000000)"><g id="todo" transform="translate(503.000000, 211.000000)"><path id="Shape" d="M6.3,11.7 L4.3,9.7 C3.9,9.3 3.9,8.7 4.3,8.3 C4.7,7.9 5.3,7.9 5.7,8.3 L7,9.6 L10.3,6.3 C10.7,5.9 11.3,5.9 11.7,6.3 C12.1,6.7 12.1,7.3 11.7,7.7 L7.7,11.7 C7.3,12.1 6.8,12.2 6.3,11.7 Z"/><path id="Shape" d="M15,1 L12,1 L12,3 L14,3 L14,14 L2,14 L2,3 L4,3 L4,1 L1,1 C0.4,1 0,1.4 0,2 L0,15 C0,15.6 0.4,16 1,16 L15,16 C15.6,16 16,15.6 16,15 L16,2 C16,1.4 15.6,1 15,1 Z"/><rect id="Rectangle-path" width="6" height="4" x="5" y="0"/></g></g></g></svg>