<svg xmlns="http://www.w3.org/2000/svg" xmlns:xlink="http://www.w3.org/1999/xlink" width="16" height="16" version="1.1" viewBox="0 0 16 16"><desc>Created with Sketch.</desc><g id="1026-1110" fill="none" fill-rule="evenodd" stroke="none" stroke-width="1"><g id="Ideation_idea_panel2" fill="#177DD6" transform="translate(-818.000000, -389.000000)"><g id="popup-menu" transform="translate(796.000000, 253.000000)"><g id="trash-can" transform="translate(22.000000, 136.000000)"><polygon id="Fill-203" points="5 7 7 7 7 13 5 13"/><polygon id="Fill-204" points="9 7 11 7 11 13 9 13"/><path id="Fill-205" d="M12,1 C12,0.4 11.6,0 11,0 L5,0 C4.4,0 4,0.4 4,1 L4,3 L0,3 L0,5 L1,5 L1,15 C1,15.6 1.4,16 2,16 L14,16 C14.6,16 15,15.6 15,15 L15,5 L16,5 L16,3 L12,3 L12,1 L12,1 Z M6,2 L10,2 L10,3 L6,3 L6,2 Z M3,5 L13,5 L13,14 L3,14 L3,5 Z"/></g></g></g></g></svg>