<svg xmlns="http://www.w3.org/2000/svg" xmlns:xlink="http://www.w3.org/1999/xlink" width="32" height="32" version="1.1" viewBox="0 0 32 32"><path fill="#444" d="M17.657 0h-4.872c-0.080 0-0.22 0.064-0.24 0.227-0.285 2.371-1.498 6.533-6.545 8.197v3.928h3.367v9.937c0 3.363 2.683 8.125 9.743 8.125 0.082 0 0.165-0.002 0.248-0.003 2.445-0.038 5.16-0.974 5.76-1.781l-1.6-4.337c-0.618 0.27-1.802 0.504-2.683 0.524-0.048 0.002-0.095 0.003-0.142 0.003-2.54 0-3.038-1.736-3.060-3v-9.467h6.68v-4.605h-6.657v-7.747z"/></svg>