<?xml version="1.0" encoding="utf-8"?>
<!-- Generated by IcoMoon.io -->
<!DOCTYPE svg PUBLIC "-//W3C//DTD SVG 1.1//EN" "http://www.w3.org/Graphics/SVG/1.1/DTD/svg11.dtd">
<svg version="1.1" xmlns="http://www.w3.org/2000/svg" xmlns:xlink="http://www.w3.org/1999/xlink" width="32" height="32" viewBox="0 0 32 32">
<path fill="#444" d="M32 5.078c-1.178 0.522-2.442 0.874-3.77 1.034 1.354-0.812 3.28-0.578 3.77-2.112-1.268 0.752-3.558-0.222-5.052 0.072-1.198-1.274-2.906-2.072-4.794-2.072-3.626 0-6.564 2.94-6.564 6.564 0 0.514 0.058 1.016 0.17 1.496-5.456-0.274-10.294-2.886-13.532-6.858-0.566 0.97-0.888 2.096-0.888 3.3 0 2.278 1.158 4.286 2.92 5.464-1.076-0.036-2.088-0.33-2.974-0.822 0 0.028 0 0.054 0 0.082 0 3.18 2.264 5.832 5.266 6.436-0.552 0.15-1.132 0.23-1.73 0.23-0.422 0-0.834-0.042-1.236-0.118 0.836 2.608 3.26 4.506 6.134 4.558-2.248 1.76-5.078 2.81-8.154 2.81-0.53 0-1.052-0.032-1.566-0.092 2.906 1.864 6.356 2.95 10.064 2.95 12.076 0 18.68-10.002 18.68-18.674 0-0.284-0.006-0.568-0.020-0.85 1.282-0.926 2.396-2.082 3.276-3.398z"></path>
</svg>
