<?xml version="1.0" encoding="UTF-8"?>
<svg width="96px" height="96px" viewBox="0 0 96 96" version="1.1" xmlns="http://www.w3.org/2000/svg" xmlns:xlink="http://www.w3.org/1999/xlink">
    <!-- Generator: Sketch 63.1 (92452) - https://sketch.com -->
    <title>Shape</title>
    <desc>Created with Sketch.</desc>
    <g id="Page-1" stroke="none" stroke-width="1" fill="none" fill-rule="evenodd">
        <path d="M95.472,11.446 C95.189,5.505 90.412,0.762 84.466,0.524 C84.312,0.518 84.162,0.5 84.005,0.5 L84.002,0.5 L81.107,0.5 L13.581,0.5 L12,0.5 L11.995,0.5 C11.833,0.5 11.677,0.518 11.516,0.525 C5.567,0.772 0.802,5.521 0.527,11.462 C0.519,11.64 0.5,11.814 0.5,11.994 L0.5,12 L0.5,22.092 L0.5,75.22 L0.5,84.002 L0.5,84.004 C0.5,84.145 0.516,84.28 0.521,84.421 C0.737,90.369 5.462,95.16 11.394,95.471 C11.594,95.48 11.791,95.5 11.994,95.5 L12,95.5 L22.091,95.5 L75.222,95.5 L84.002,95.5 L84.005,95.5 C84.157,95.5 84.308,95.483 84.46,95.476 C90.408,95.243 95.185,90.495 95.472,84.561 C95.482,84.375 95.5,84.193 95.5,84.006 L95.5,84.002 L95.5,73.908 L95.5,20.78 L95.5,12 L95.5,11.996 C95.5,11.81 95.482,11.629 95.472,11.446 Z M17.262,5.278 L15.041,1.73 L24.651,1.73 L24.104,2.112 L24.679,3.395 L21.982,5.212 L20.254,3.196 L17.262,5.278 Z M42.604,55.756 C41.266,53.651 39.5,51.437 39.527,47.98 C39.517,47.722 39.531,47.48 39.559,47.257 C39.965,42.745 42.526,38.093 45.975,36.668 L45.975,44.831 L42.603,44.831 L42.603,55.756 L42.604,55.756 Z M53.002,74.277 L43.844,74.277 L43.77,73.9 L43.77,45.685 L45.976,45.775 L45.976,53.691 L51.265,53.691 L51.265,45.99 L53.003,46.063 L53.003,74.277 L53.002,74.277 Z M54.237,57.14 L54.237,44.831 L51.264,44.831 L51.264,37.002 C54.478,38.691 57.074,42.825 57.246,47.037 C57.261,47.297 57.267,47.557 57.267,47.813 C57.261,52.204 55.571,55.084 54.237,57.14 Z M72.872,11.963 L70.702,10.717 L69.201,13.001 L66.197,11.339 L66.561,9.193 L64.44,8.04 L62.141,13.059 L64.26,14.154 L65.124,13.043 L67.991,14.581 L67.022,17.05 L69.243,18.189 L68.979,18.638 L66.699,17.327 L65.198,19.625 L62.2,17.956 L62.557,15.809 L60.437,14.654 L58.138,19.678 L60.258,20.769 L61.128,19.667 L63.991,21.189 L63.024,23.667 L65.349,24.863 L64.743,25.898 L62.684,24.712 L61.187,27.004 L58.187,25.336 L58.543,23.192 L56.424,22.036 L54.123,27.057 L56.242,28.15 L57.106,27.04 L59.974,28.577 L59.006,31.044 L61.111,32.127 L60.857,32.572 L58.68,31.327 L57.181,33.619 L54.183,31.94 L54.537,29.804 L52.426,28.65 L50.118,33.676 L52.238,34.765 L53.108,33.657 L55.973,35.185 L55.004,37.662 L57.224,38.802 L56.354,40.291 C54.464,37.215 51.505,34.991 48.183,34.956 C48.12,34.956 48.076,34.956 48.057,34.96 C44.367,35.075 41.543,37.883 39.892,41.427 L38.667,39.467 L40.99,38 L39.676,35.601 L42.555,33.736 L44.281,35.059 L46.294,33.724 L42.932,29.338 L40.973,30.695 L41.542,31.983 L38.852,33.8 L37.116,31.778 L34.849,33.362 L34.364,32.586 L36.878,31.002 L35.562,28.606 L38.435,26.738 L40.165,28.056 L42.177,26.72 L38.814,22.344 L36.854,23.698 L37.43,24.988 L34.739,26.802 L33.004,24.782 L30.551,26.497 L29.839,25.358 L32.788,23.505 L31.462,21.104 L34.346,19.245 L36.072,20.561 L38.08,19.228 L34.722,14.843 L32.765,16.2 L33.337,17.488 L30.645,19.307 L28.909,17.286 L26.035,19.287 L25.532,18.481 L28.667,16.508 L27.352,14.111 L30.232,12.243 L31.959,13.562 L33.969,12.234 L30.615,7.85 L28.652,9.207 L29.22,10.488 L26.531,12.305 L24.793,10.289 L21.739,12.422 L21.066,11.34 L24.126,9.411 L22.811,7.013 L25.691,5.147 L27.417,6.462 L29.427,5.136 L26.819,1.73 L68.656,1.73 L66.722,5.945 L68.845,7.038 L69.713,5.925 L72.577,7.453 L71.61,9.93 L73.494,10.899 L72.872,11.963 Z M77.131,4.656 L75.286,3.595 L73.785,5.887 L70.79,4.217 L71.146,2.073 L70.511,1.73 L78.834,1.73 L77.131,4.656 Z" id="Shape" fill="#000000" fill-rule="nonzero"></path>
    </g>
</svg>