<svg xmlns="http://www.w3.org/2000/svg" xmlns:xlink="http://www.w3.org/1999/xlink" width="16" height="16" version="1.1" viewBox="0 0 16 16"><desc>Created with Sketch.</desc><g id="Page-1" fill="none" fill-rule="evenodd" stroke="none" stroke-width="1"><g id="Settings---Organaization-2-Copy-9" fill="#676767" transform="translate(-86.000000, -162.000000)"><g id="Group" transform="translate(76.000000, 80.000000)"><g id="Group-11" transform="translate(10.000000, 82.000000)"><polyline id="Fill-49" points="14 10 12 10 12 12 10 12 10 14 12 14 12 16 14 16 14 14 16 14 16 12 14 12 14 10"/><path id="Fill-47" d="M7,9 L7,9 C4.8,9 3,7.2 3,5 L3,4 C3,1.8 4.8,0 7,0 C9.2,0 11,1.8 11,4 L11,5 C11,7.2 9.2,9 7,9"/><path id="Fill-48" d="M5,11 C2.2,11 0,13.2 0,16 L8,16 L8,11 L5,11"/></g></g></g></g></svg>