<svg xmlns="http://www.w3.org/2000/svg" id="Layer_1" data-name="Layer 1" viewBox="0 0 15.84 15.84"><path fill="#444" d="M12.42,14.56h-9A1.39,1.39,0,0,1,2,13.17V2.67A1.39,1.39,0,0,1,3.42,1.28h9a1.39,1.39,0,0,1,1.39,1.39v10.5A1.39,1.39,0,0,1,12.42,14.56Zm-9-12a.11.11,0,0,0-.11.11v10.5a.11.11,0,0,0,.11.11h9a.11.11,0,0,0,.11-.11V2.67a.11.11,0,0,0-.11-.11Zm5.22,7.91A.64.64,0,0,0,8,9.83H5.67a.64.64,0,0,0,0,1.28H8A.64.64,0,0,0,8.64,10.47Zm2.17-5.1a.64.64,0,0,0-.64-.64H5.67A.64.64,0,1,0,5.67,6h4.5A.64.64,0,0,0,10.81,5.37Zm0,2.55a.64.64,0,0,0-.64-.64H5.67a.64.64,0,0,0,0,1.28h4.5A.64.64,0,0,0,10.81,7.92Z"/></svg>