<svg xmlns="http://www.w3.org/2000/svg" xmlns:xlink="http://www.w3.org/1999/xlink" width="16" height="16" x="0" y="0" viewBox="0 0 16 16"><g transform="translate(0, 0)"><rect width="8" height="2" x="8" y="3" fill="#444"/><path fill="#444" d="M1,7H5A1,1,0,0,0,6,6V2A1,1,0,0,0,5,1H1A1,1,0,0,0,0,2V6A1,1,0,0,0,1,7ZM2,3H4V5H2Z"/><rect width="8" height="2" x="8" y="11" fill="#444" data-color="color-2"/><path fill="#444" d="M6.219,8.375,2.917,12.5l-1.21-1.21A1,1,0,1,0,.293,12.707l2,2A1,1,0,0,0,3,15l.055,0a1,1,0,0,0,.726-.373l4-5a1,1,0,1,0-1.562-1.25Z" data-color="color-2"/></g></svg>