<svg xmlns="http://www.w3.org/2000/svg" xmlns:xlink="http://www.w3.org/1999/xlink" width="32" height="32" version="1.1" viewBox="0 0 32 32"><path fill="#444" d="M31.632 9.173c0 0-0.312-2.35-1.27-3.384-1.215-1.358-2.577-1.365-3.201-1.444-4.471-0.345-11.178-0.345-11.178-0.345h-0.014c0 0-6.707 0-11.178 0.345-0.625 0.080-1.986 0.086-3.201 1.444-0.958 1.035-1.27 3.384-1.27 3.384s-0.32 2.759-0.32 5.518v2.587c0 2.759 0.32 5.518 0.32 5.518s0.312 2.35 1.27 3.384c1.215 1.358 2.812 1.315 3.523 1.457 2.556 0.262 10.863 0.343 10.863 0.343s6.714-0.011 11.185-0.356c0.625-0.079 1.986-0.086 3.201-1.444 0.958-1.035 1.27-3.384 1.27-3.384s0.319-2.759 0.319-5.518v-2.587c0-2.759-0.319-5.518-0.319-5.518v0zM12.677 20.413l-0.001-9.58 8.633 4.807-8.632 4.773z"/></svg>