<svg xmlns="http://www.w3.org/2000/svg" width="17" height="17" fill="none" viewBox="0 0 17 17"><path fill="#444" fill-rule="evenodd" d="M14.1156 7.10784C14.1156 8.7096 13.615 10.1112 12.714 11.3125L15.7173 14.4159C16.1178 14.8163 16.1178 15.417 15.7173 15.8174C15.5171 16.0177 15.2168 16.1178 15.0166 16.1178C14.8163 16.1178 14.516 16.0177 14.3158 15.8174L11.3125 12.8141C10.2113 13.7151 8.7096 14.2157 7.10784 14.2157C3.20353 14.2157 0 11.0121 0 7.10784C0 3.20353 3.20353 0 7.10784 0C11.0121 0 14.1156 3.20353 14.1156 7.10784ZM2.00221 7.10784C2.00221 9.91093 4.30475 12.1134 7.10784 12.1134C9.91093 12.1134 12.2135 9.91093 12.2135 7.10784C12.2135 4.30475 9.91093 2.00221 7.10784 2.00221C4.30475 2.00221 2.00221 4.30475 2.00221 7.10784ZM6.00662 4.00441H8.00882V6.00662H10.011V8.00882H8.00882V10.011H6.00662V8.00882H4.00441V6.00662H6.00662V4.00441Z" clip-rule="evenodd"/></svg>