<svg width="12" height="19" viewBox="0 0 12 19" fill="none" xmlns="http://www.w3.org/2000/svg">
    <mask id="path-1-outside-1" maskUnits="userSpaceOnUse" x="0" y="0" width="12" height="19" fill="black">
        <rect fill="white" width="12" height="19"/>
        <path fill-rule="evenodd" clip-rule="evenodd" d="M10.6 1H1V9V12.2V17L5.8 13.8L10.6 17V12.2V9V1Z"/>
    </mask>
    <path fill-rule="evenodd" clip-rule="evenodd" d="M10.6 1H1V9V12.2V17L5.8 13.8L10.6 17V12.2V9V1Z" fill="#4ECFD5"/>
    <path d="M1 1V0H0V1H1ZM10.6 1H11.6V0H10.6V1ZM1 17H0V18.8685L1.5547 17.832L1 17ZM5.8 13.8L6.3547 12.9679L5.8 12.5981L5.2453 12.9679L5.8 13.8ZM10.6 17L10.0453 17.832L11.6 18.8685V17H10.6ZM1 2H10.6V0H1V2ZM2 9V1H0V9H2ZM2 12.2V9H0V12.2H2ZM2 17V12.2H0V17H2ZM5.2453 12.9679L0.4453 16.1679L1.5547 17.832L6.3547 14.632L5.2453 12.9679ZM11.1547 16.1679L6.3547 12.9679L5.2453 14.632L10.0453 17.832L11.1547 16.1679ZM9.6 12.2V17H11.6V12.2H9.6ZM9.6 9V12.2H11.6V9H9.6ZM9.6 1V9H11.6V1H9.6Z" fill="white" mask="url(#path-1-outside-1)"/>
</svg>
