<?xml version="1.0" encoding="UTF-8" standalone="no"?>
<svg width="265px" height="171px" viewBox="0 0 265 171" version="1.1" xmlns="http://www.w3.org/2000/svg" xmlns:xlink="http://www.w3.org/1999/xlink" xmlns:sketch="http://www.bohemiancoding.com/sketch/ns">
    <!-- Generator: Sketch 3.3.3 (12081) - http://www.bohemiancoding.com/sketch -->
    <desc>Created with Sketch.</desc>
    <defs></defs>
    <g id="Task-Details-v2" stroke="none" stroke-width="1" fill="none" fill-rule="evenodd" sketch:type="MSPage">
        <g id="waiting-for-content" sketch:type="MSArtboardGroup" fill="#000000" opacity="0.28072528">
            <path d="M241.195,126.394 C234.633,126.394 228.761,129.397 224.877,134.106 L211.103,126.344 C211.878,124.152 212.294,121.798 212.294,119.344 C212.294,116.764 211.829,114.297 210.983,112.013 L224.657,104.309 C228.527,109.173 234.505,112.296 241.194,112.296 C252.854,112.296 262.342,102.815 262.342,91.148 C262.343,79.489 252.855,70 241.195,70 C229.536,70 220.048,79.489 220.048,91.148 C220.048,93.601 220.463,95.955 221.239,98.148 L207.465,105.909 C203.581,101.201 197.709,98.198 191.146,98.198 C179.488,98.196 170,107.685 170,119.344 C170,131.01 179.488,140.492 191.148,140.492 C197.837,140.492 203.815,137.369 207.684,132.505 L221.359,140.209 C220.514,142.493 220.048,144.96 220.048,147.54 C220.049,159.207 229.537,168.688 241.195,168.688 C252.854,168.688 262.343,159.208 262.343,147.54 C262.343,135.881 252.855,126.394 241.195,126.394 L241.195,126.394 Z M241.195,77.05 C248.971,77.05 255.293,83.38 255.293,91.148 C255.293,98.923 248.971,105.246 241.195,105.246 C237.142,105.246 233.483,103.526 230.918,100.784 C229.303,99.064 228.119,96.95 227.527,94.602 C227.245,93.496 227.097,92.339 227.097,91.148 C227.097,83.379 233.421,77.05 241.195,77.05 L241.195,77.05 Z M191.148,133.442 C183.372,133.442 177.049,127.12 177.049,119.344 C177.049,111.576 183.372,105.246 191.148,105.246 C195.067,105.246 198.619,106.854 201.179,109.447 C202.835,111.125 204.076,113.211 204.725,115.545 C205.064,116.75 205.247,118.026 205.247,119.344 C205.247,120.535 205.099,121.692 204.817,122.798 C204.225,125.146 203.04,127.26 201.426,128.98 C198.858,131.723 195.2,133.442 191.148,133.442 L191.148,133.442 Z M241.195,161.638 C233.42,161.638 227.097,155.316 227.097,147.54 C227.097,146.222 227.28,144.946 227.626,143.734 C228.274,141.409 229.507,139.322 231.164,137.644 C233.724,135.05 237.276,133.443 241.195,133.443 C248.971,133.443 255.293,139.774 255.293,147.541 C255.295,155.316 248.971,161.638 241.195,161.638 L241.195,161.638 Z" id="social" sketch:type="MSShapeGroup"></path>
            <path d="M97.442,82.097 L11.104,82.097 C5.524,82.097 1,86.62 1,92.2 L1,157.8 C1,163.38 5.524,167.903 11.104,167.903 L97.442,167.903 C103.022,167.903 107.545,163.38 107.545,157.8 L107.545,92.2 C107.545,86.62 103.022,82.097 97.442,82.097 L97.442,82.097 Z M100.077,157.063 C100.077,158.923 98.57,160.43 96.71,160.43 L11.841,160.43 C9.981,160.43 8.473,158.923 8.473,157.063 L8.473,92.942 C8.473,91.082 9.981,89.574 11.841,89.574 L96.71,89.574 C98.57,89.574 100.077,91.082 100.077,92.942 L100.077,157.063 L100.077,157.063 Z M75.692,124.464 C62.843,124.464 58.557,144.385 50,144.385 C41.416,144.385 41.416,140.238 32.859,140.238 C24.285,140.238 15.717,152.651 15.717,152.651 L92.825,152.651 C92.825,152.651 88.548,124.464 75.692,124.464 M33.655,120.571 C39.395,120.571 44.044,115.918 44.044,110.188 C44.044,104.446 39.39,99.8 33.655,99.8 C27.933,99.8 23.266,104.446 23.266,110.188 C23.266,115.92 27.933,120.571 33.655,120.571" id="image" sketch:type="MSShapeGroup"></path>
            <path d="M183.6685,1 L99.1605,1 C92.7965,1 87.6375,6.155 87.6375,12.524 L87.6375,20.206 L83.7955,20.206 C77.4305,20.206 72.2725,25.361 72.2725,31.73 L72.2725,108.555 C72.2725,117.041 79.1515,123.92 87.6375,123.92 L179.8275,123.92 C188.3125,123.92 195.1925,117.041 195.1925,108.555 L195.1925,12.524 C195.1925,6.155 190.0295,1 183.6685,1 L183.6685,1 Z M187.5095,108.555 C187.5095,112.788 184.0605,116.238 179.8275,116.238 L87.6375,116.238 C83.4005,116.238 79.9545,112.788 79.9545,108.555 L79.9545,31.73 C79.9545,29.61 81.6755,27.889 83.7955,27.889 L87.6375,27.889 L87.6375,104.714 C87.6375,106.838 89.3545,108.555 91.4785,108.555 C93.6025,108.555 95.3195,106.838 95.3195,104.714 L95.3195,12.524 C95.3195,10.404 97.0405,8.683 99.1605,8.683 L183.6685,8.683 C185.7855,8.683 187.5095,10.404 187.5095,12.524 L187.5095,108.555 L187.5095,108.555 Z M147.1685,50.956 L177.8985,50.956 C178.9625,50.956 179.8195,50.095 179.8195,49.035 C179.8195,47.975 178.9625,47.114 177.8985,47.114 L147.1685,47.114 C146.1125,47.114 145.2485,47.975 145.2485,49.035 C145.2485,50.095 146.1125,50.956 147.1685,50.956 L147.1685,50.956 Z M147.1685,39.432 L177.8985,39.432 C178.9625,39.432 179.8195,38.571 179.8195,37.511 C179.8195,36.451 178.9625,35.591 177.8985,35.591 L147.1685,35.591 C146.1125,35.591 145.2485,36.451 145.2485,37.511 C145.2485,38.571 146.1125,39.432 147.1685,39.432 L147.1685,39.432 Z M147.1685,27.908 L177.8985,27.908 C178.9625,27.908 179.8195,27.048 179.8195,25.987 C179.8195,24.927 178.9625,24.067 177.8985,24.067 L147.1685,24.067 C146.1125,24.067 145.2485,24.927 145.2485,25.987 C145.2485,27.048 146.1125,27.908 147.1685,27.908 L147.1685,27.908 Z M135.6525,104.729 L104.9225,104.729 C103.8625,104.729 103.0025,105.594 103.0025,106.65 C103.0025,107.714 103.8625,108.571 104.9225,108.571 L135.6525,108.571 C136.7095,108.571 137.5735,107.714 137.5735,106.65 C137.5735,105.594 136.7125,104.729 135.6525,104.729 L135.6525,104.729 Z M135.6525,93.206 L104.9225,93.206 C103.8625,93.206 103.0025,94.07 103.0025,95.126 C103.0025,96.19 103.8625,97.047 104.9225,97.047 L135.6525,97.047 C136.7095,97.047 137.5735,96.19 137.5735,95.126 C137.5735,94.07 136.7125,93.206 135.6525,93.206 L135.6525,93.206 Z M135.6525,81.682 L104.9225,81.682 C103.8625,81.682 103.0025,82.546 103.0025,83.602 C103.0025,84.667 103.8625,85.523 104.9225,85.523 L135.6525,85.523 C136.7095,85.523 137.5735,84.667 137.5735,83.602 C137.5735,82.546 136.7125,81.682 135.6525,81.682 L135.6525,81.682 Z M177.9065,104.729 L147.1765,104.729 C146.1125,104.729 145.2555,105.594 145.2555,106.65 C145.2555,107.714 146.1125,108.571 147.1765,108.571 L177.9065,108.571 C178.9625,108.571 179.8275,107.714 179.8275,106.65 C179.8275,105.594 178.9625,104.729 177.9065,104.729 L177.9065,104.729 Z M177.9065,93.206 L147.1765,93.206 C146.1125,93.206 145.2555,94.07 145.2555,95.126 C145.2555,96.19 146.1125,97.047 147.1765,97.047 L177.9065,97.047 C178.9625,97.047 179.8275,96.19 179.8275,95.126 C179.8275,94.07 178.9625,93.206 177.9065,93.206 L177.9065,93.206 Z M177.9065,81.682 L147.1765,81.682 C146.1125,81.682 145.2555,82.546 145.2555,83.602 C145.2555,84.667 146.1125,85.523 147.1765,85.523 L177.9065,85.523 C178.9625,85.523 179.8275,84.667 179.8275,83.602 C179.8275,82.546 178.9625,81.682 177.9065,81.682 L177.9065,81.682 Z M177.9065,58.634 L104.9225,58.634 C103.8625,58.634 103.0025,59.495 103.0025,60.555 C103.0025,61.615 103.8625,62.475 104.9225,62.475 L177.9065,62.475 C178.9625,62.475 179.8275,61.615 179.8275,60.555 C179.8275,59.495 178.9625,58.634 177.9065,58.634 L177.9065,58.634 Z M177.9065,70.158 L104.9225,70.158 C103.8625,70.158 103.0025,71.022 103.0025,72.079 C103.0025,73.143 103.8625,73.999 104.9225,73.999 L177.9065,73.999 C178.9625,73.999 179.8275,73.143 179.8275,72.079 C179.8275,71.022 178.9625,70.158 177.9065,70.158 L177.9065,70.158 Z M106.8435,50.936 L133.7325,50.936 C135.8565,50.936 137.5735,49.219 137.5735,47.095 L137.5735,20.222 C137.5735,18.098 135.8565,16.381 133.7325,16.381 L106.8435,16.381 C104.7195,16.381 103.0025,18.098 103.0025,20.222 L103.0025,47.095 C103.0025,49.216 104.7195,50.936 106.8435,50.936 L106.8435,50.936 Z M110.6845,24.048 L129.8905,24.048 L129.8905,43.254 L110.6845,43.254 L110.6845,24.048 Z" id="article" sketch:type="MSShapeGroup"></path>
        </g>
    </g>
</svg>
