<?xml version="1.0" encoding="utf-8"?>
<!-- Generator: Adobe Illustrator 25.1.0, SVG Export Plug-In . SVG Version: 6.00 Build 0)  -->
<svg version="1.1" xmlns="http://www.w3.org/2000/svg" xmlns:xlink="http://www.w3.org/1999/xlink" x="0px" y="0px"
	 viewBox="0 0 48 48" style="enable-background:new 0 0 48 48;" xml:space="preserve">
<style type="text/css">
	.st0{fill:#FFFFFF;}
</style>
<g id="Layer_2">
	<ellipse class="st0" cx="24" cy="24" rx="21.7" ry="21.9"/>
</g>
<g id="Layer_1">
	<path d="M24,0C10.7,0,0,10.7,0,24s10.7,24,24,24s24-10.7,24-24S37.3,0,24,0z M36.8,25c-0.4,3.1-1.2,6.2-2.4,9.2
		c-1.2,3-3.4,4.2-5,4.2c-1,0-2-0.3-2.9-0.9c-1-1.1-1.6-2.6-1.5-4.2c-0.1-2.5,0-5,0.1-7.4c0.1-1.6,0.5-7.9,0.5-8.3c0,0,0-0.1-0.1-0.1
		c0,0-0.1,0-0.1,0c-0.5,0.9-1.5,3.3-3.7,9c-0.6,1.4-1.5,3.6-2.1,5c-0.8,2.2-1.9,4.3-3.3,6.1c-1.1,1.3-2.9,1.8-4.5,1.3
		c-1.6-0.8-1.5-2.4-1.5-3.7c0-0.8,0.4-3.4,0.5-3.9c0.1-1,1-5.1,1.2-6.2s1.3-5.3,1.6-6.5l0.6-2.2c0.1-0.6,0.3-1.1,0.5-1.6
		c0-0.1-0.1-0.3,0-0.4c0-0.1,0.1-0.2,0.3-0.2c0.6-0.1,1.2-0.1,1.7,0c0.4,0.1,0.6,0.7,0.6,1.3s-0.9,3.8-1,4.2
		c-0.4,1.5-0.5,2.1-0.9,3.6c-0.5,2-1,4-1.3,6s-0.9,6-0.6,7.2c0.1,0.2,1.3-1.4,2.2-3.2c0.9-1.8,2.7-6.1,3-6.8c0.5-1.1,2.6-6.2,3-7.1
		c0.4-0.7,1.3-3,1.8-4.2c0.4-0.8,0.7-1.4,1.7-1.3c2.6,0.1,2.6,0.7,2.6,2.1c-0.1,3.1-0.1,6.7-0.2,9.5c-0.1,4.1-0.1,2.7,0,6
		c0,1.8,0.1,4.1,1.1,4.5c2,1,4.2-5.5,5.1-10.9c0.9-6,1.3-12.2-0.5-15c-0.1-0.1,0-0.2,0.1-0.3c0,0,0,0,0,0c0.2-0.1,0.4-0.2,0.7-0.3
		c0.3-0.1,0.6-0.2,0.9-0.2c0.3-0.1,0.6-0.1,0.9,0c0.5,0.2,0.8,0.6,1,1.1C38,13,37.6,20.2,36.8,25z"/>
</g>
</svg>
