<svg xmlns="http://www.w3.org/2000/svg" xmlns:xlink="http://www.w3.org/1999/xlink" id="Layer_1" x="0" y="0" enable-background="new 0 0 16 16" version="1.1" viewBox="0 0 16 16" xml:space="preserve"><path fill="#FFF" d="M16,14v1c0,0.6-0.4,1-1,1h-1l0,0H2l0,0H1c-0.6,0-1-0.4-1-1v-3l0,0V5l0,0V1c0-0.6,0.4-1,1-1h4l0,0h6l0,0h4	c0.6,0,1,0.4,1,1v1l0,0V14L16,14z M8,6C6.2,6,6,8,6,8s-0.1,2,2,2s2-2,2-2S9.8,6,8,6z M14,2h-3v3h3V2z M14,8L14,8V7h-2l0,0h-0.1	C11.9,7.3,12,7.7,12,8l0,0l0,0l0,0c0,2.2-1.8,4-4,4s-4-1.8-4-4c0-0.3,0.1-0.7,0.1-1H4l0,0H2v7h2h1l0,0h6l0,0h3v-3l0,0V8z"/></svg>