<svg xmlns="http://www.w3.org/2000/svg" xmlns:xlink="http://www.w3.org/1999/xlink" id="Layer_1" x="0" y="0" enable-background="new 2 0 16 16" version="1.1" viewBox="2 0 16 16" xml:space="preserve"><g><g><path fill="#FFF" d="M3.9,0.1L3.9,0.1C2.8,0.1,2,0.9,2,2C2,3,2.8,3.9,3.9,3.9c1,0,1.9-0.9,1.9-1.9C5.8,0.9,4.9,0.1,3.9,0.1z M2.2,15.9h3.1V5.3H2.2V15.9z M14,5.1c-1.6,0-2.7,0.9-3.1,1.7h0l0-1.3H7.6l0.1,10.4H11v-5.2C11,9.3,11.2,8,13,8 c1.7,0,1.7,1.6,1.7,2.8v5.2H18v-5.8C18,7.3,17.4,5.1,14,5.1z"/></g></g></svg>