<svg xmlns="http://www.w3.org/2000/svg" xmlns:xlink="http://www.w3.org/1999/xlink" id="Layer_1" width="128" height="128" x="0" y="0" enable-background="new 0 0 128 128" version="1.1" viewBox="0 0 128 128" xml:space="preserve"><path id="path3844" fill="#FFF" d="M15.016,67.057c11.714,0,22.726,4.574,31.001,12.897c8.291,8.323,12.855,19.409,12.855,31.21	h18.052c0-34.277-27.773-62.162-61.909-62.162V67.057L15.016,67.057z M15.044,35.052c41.749,0,75.717,34.152,75.717,76.136h18.052	C108.812,59.248,66.745,17,15.044,17V35.052z M40.007,98.575c0,6.904-5.599,12.505-12.503,12.505C20.6,111.08,15,105.481,15,98.575	c0-6.908,5.598-12.502,12.501-12.502C34.406,86.073,40.007,91.667,40.007,98.575L40.007,98.575z"/></svg>