<svg xmlns="http://www.w3.org/2000/svg" xmlns:xlink="http://www.w3.org/1999/xlink" width="16" height="16" version="1.1" viewBox="0 0 16 16"><desc>Created with Sketch.</desc><g id="Page-1" fill="none" fill-rule="evenodd" stroke="none" stroke-width="1"><g id="post-tumblr" fill="#35465C"><path id="Shape" d="M14.4,0 L1.6,0 C0.72,0 0,0.72 0,1.6 L0,14.4 C0,15.28 0.72,16 1.6,16 L14.4,16 C15.28,16 16,15.28 16,14.4 L16,1.6 C16,0.72 15.28,0 14.4,0 L14.4,0 Z M11,6.68085106 L8.75,6.68085106 L8.75,9.72340426 C8.75,10.2695035 8.825,10.5815603 9.575,10.5815603 L11,10.5815603 L11,12.9219858 C11,12.9219858 10.25,13 9.425,13 C7.475,13 6.5,11.751773 6.5,10.3475177 L6.5,6.68085106 L5,6.68085106 L5,4.4964539 C6.8,4.34042553 6.95,2.93617021 7.1,2 L8.75,2 L8.75,4.34042553 L11,4.34042553 L11,6.68085106 L11,6.68085106 Z"/></g></g></svg>