<?xml version="1.0" encoding="utf-8"?>
<!-- Generator: Adobe Illustrator 18.1.0, SVG Export Plug-In . SVG Version: 6.00 Build 0)  -->
<!DOCTYPE svg PUBLIC "-//W3C//DTD SVG 1.1//EN" "http://www.w3.org/Graphics/SVG/1.1/DTD/svg11.dtd">
<svg version="1.1" id="Layer_1" xmlns="http://www.w3.org/2000/svg" xmlns:xlink="http://www.w3.org/1999/xlink" x="0px" y="0px"
	 viewBox="0 0 16 16" enable-background="new 0 0 16 16" xml:space="preserve">
<path fill="#FFFFFF" d="M16,2.5c-0.6,0.3-1.2,0.4-1.9,0.5C14.8,2.7,15.8,2.8,16,2c-0.6,0.4-1.8-0.1-2.5,0c-0.6-0.6-1.5-1-2.4-1
	C9.3,1,7.8,2.5,7.8,4.3c0,0.3,0,0.5,0.1,0.7C5.2,4.9,2.7,3.6,1.1,1.6c-0.3,0.5-0.4,1-0.4,1.6c0,1.1,0.6,2.1,1.5,2.7
	c-0.5,0-1-0.2-1.5-0.4c0,0,0,0,0,0c0,1.6,1.1,2.9,2.6,3.2C3,8.9,2.7,8.9,2.4,8.9c-0.2,0-0.4,0-0.6-0.1c0.4,1.3,1.6,2.3,3.1,2.3
	c-1.1,0.9-2.5,1.4-4.1,1.4c-0.3,0-0.5,0-0.8,0C1.5,13.5,3.2,14,5,14c6,0,9.3-5,9.3-9.3c0-0.1,0-0.3,0-0.4C15,3.8,15.6,3.2,16,2.5z"
	/>
</svg>
