<svg xmlns="http://www.w3.org/2000/svg" xmlns:xlink="http://www.w3.org/1999/xlink" width="77" height="77" version="1.1" viewBox="0 0 77 77"><g id="Search-Sub-in-Calendar-Filters" fill="none" fill-rule="evenodd" stroke="none" stroke-width="1" opacity=".25"><g id="1-calendar-filter-empty-state-copy" fill="#000" fill-rule="nonzero" transform="translate(-734.000000, -224.000000)"><g id="Group-20" transform="translate(505.500000, 224.000000)"><g id="Group-19" transform="translate(228.500000, 0.000000)"><path id="Combined-Shape" d="M38.5,7.81597009e-14 L38.5,2 C36.5348859,2 34.589749,2.15520252 32.6767844,2.46184647 L32.3602301,0.487057029 C34.3777798,0.163648297 36.4287668,7.81597009e-14 38.5,7.81597009e-14 Z M25.4025291,2.28548254 L26.0828534,4.16621614 C24.2477493,4.83003473 22.471298,5.64036582 20.7689922,6.58829789 L19.795976,4.84094573 C21.5918921,3.84088668 23.4662052,2.98591572 25.4025291,2.28548254 Z M13.8696786,8.90832354 L15.1499508,10.4448466 C13.6519202,11.6930459 12.2551151,13.0591938 10.973894,14.5291704 L9.46619767,13.2150731 C10.817194,11.6650416 12.2900465,10.2245153 13.8696786,8.90832354 Z M5.23714306,19.1015677 L6.96388725,20.1107032 C5.98065674,21.793121 5.13345855,23.5522958 4.43155275,25.3726631 L2.56546827,24.6531294 C3.30606419,22.7324207 4.19989353,20.8764181 5.23714306,19.1015677 Z M0.633115155,31.5102735 L2.60029207,31.8711266 C2.25058692,33.7775306 2.05214267,35.7185798 2.00898505,37.6817885 L0.0094681343,37.6378327 C0.0549657852,35.568178 0.264243521,33.5211628 0.633115155,31.5102735 Z M0.517360027,44.8258868 L2.49057116,44.4996387 C2.80973456,46.4300001 3.28267706,48.3231447 3.90343119,50.1649159 L2.00818376,50.8036937 C1.3531531,48.8602245 0.854103369,46.862575 0.517360027,44.8258868 Z M4.9476613,57.3943914 L6.68946084,56.41147 C7.64754434,58.1092553 8.74056996,59.7278717 9.95689379,61.2517416 L8.39377005,62.4993971 C7.11102792,60.892315 5.958232,59.1851874 4.9476613,57.3943914 Z M13.3712346,67.6691798 L14.677264,66.1544893 C16.153958,67.4277565 17.7299704,68.5815457 19.3898703,69.6036294 L18.3412238,71.3066681 C16.5905365,70.2286819 14.9284695,69.0118927 13.3712346,67.6691798 Z M24.8780918,74.5204609 L25.585857,72.6498812 C27.4048244,73.3381181 29.2796376,73.8800675 31.1957862,74.269205 L30.7977451,76.2291957 C28.775881,75.8185891 26.7975028,75.2467023 24.8780918,74.5204609 Z M37.8417197,76.9944828 L37.8752625,74.9947641 C38.0817207,74.9982271 38.2883981,74.9999735 38.495155,74.9999997 C40.2537535,75 41.9923369,74.876386 43.7070621,74.6315226 L43.9897946,76.6114373 C42.1814587,76.8696683 40.3483942,77 38.4950284,76.9999997 C38.2770477,76.9999721 38.0592733,76.998132 37.8417197,76.9944828 Z M50.9788078,74.9323231 L50.3308634,73.0401899 C52.1768067,72.4080628 53.9662115,71.6285865 55.6836744,70.7103771 L56.6266328,72.4741315 C54.8146584,73.4428697 52.9266147,74.2653138 50.9788078,74.9323231 Z M62.6218498,68.5080832 L61.3678626,66.9500344 C62.8866664,65.7276333 64.3062788,64.3855393 65.6121758,62.9376738 L67.0973259,64.2771995 C65.7203162,65.8039086 64.223408,67.2190777 62.6218498,68.5080832 Z M71.4246483,58.4659061 L69.7154812,57.4272783 C70.7276237,55.7616954 71.6050576,54.0171866 72.3382322,52.2093673 L74.1916126,52.9610196 C73.4180489,54.8684278 72.4923556,56.7088857 71.4246483,58.4659061 Z M76.2428038,46.134938 L74.2821025,45.7404121 C74.6645755,43.8396113 74.8959828,41.9022483 74.9720891,39.9410273 L76.970585,40.0185801 C76.8903407,42.0864348 76.6462732,44.1297897 76.2428038,46.134938 Z M76.5842447,32.8230702 L74.6057442,33.1155351 C74.3195608,31.1795285 73.879259,29.2788338 73.2905507,27.4274251 L75.1965142,26.8213695 C75.8177217,28.774984 76.2823147,30.7805388 76.5842447,32.8230702 Z M72.3708696,20.1815317 L70.6124921,21.1344791 C69.6835859,19.4204624 68.6183533,17.7834924 67.4281686,16.2391919 L69.012295,15.0183137 C70.2675104,16.6469935 71.3910357,18.3735435 72.3708696,20.1815317 Z M64.1225822,9.76396784 L62.7910426,11.2562822 C61.3362012,9.95817839 59.7800298,8.77778176 58.1378728,7.72757087 L59.21542,6.04266964 C60.9473332,7.15028246 62.5884262,8.39509436 64.1225822,9.76396784 Z M52.7382619,2.71885936 L51.9982576,4.57692117 C50.1909977,3.85714962 48.3257628,3.28284663 46.417216,2.86080636 L46.8490474,0.907982336 C48.8629419,1.35331834 50.8312222,1.95934883 52.7382619,2.71885936 Z M39.8120178,0.0219470417 L39.745049,2.02082552 C39.3326799,2.00700985 38.9193697,2.00005837 38.5052268,2.00000037 L38.5055069,3.85614483e-07 C38.9418854,6.15001949e-05 39.3774282,0.00738691611 39.8120178,0.0219470417 Z M45.075,27.25 L45.075,23.5 L48.825,23.5 L48.825,27.25 L45.075,27.25 Z M30.075,27.25 L30.075,23.5 L33.825,23.5 L33.825,27.25 L30.075,27.25 Z M50.7,27.25 L52.575,27.25 C53.61,27.25 54.45,28.09 54.45,29.1919643 L54.45,51.625 C54.45,52.66 53.61,53.5 52.575,53.5 L26.325,53.5 C25.29,53.5 24.45,52.66 24.45,51.625 L24.45,29.125 C24.45,28.09 25.29,27.25 26.325,27.25 L28.2,27.25 L28.2,29.125 L35.7,29.125 L35.7,27.25 L43.2,27.25 L43.2,29.125 L50.7,29.125 L50.7,27.25 Z M28.2,32.875 L28.2,49.75 L50.7,49.75 L50.7,32.875 L28.2,32.875 Z M43.7357143,46.5357143 L43.7357143,42.7857143 L47.4857143,42.7857143 L47.4857143,46.5357143 L43.7357143,46.5357143 Z M30.8785714,46.5357143 L30.8785714,42.7857143 L34.6285714,42.7857143 L34.6285714,46.5357143 L30.8785714,46.5357143 Z M37.3071429,46.5357143 L37.3071429,42.7857143 L41.0571429,42.7857143 L41.0571429,46.5357143 L37.3071429,46.5357143 Z M43.7357143,40.1071429 L43.7357143,36.3571429 L47.4857143,36.3571429 L47.4857143,40.1071429 L43.7357143,40.1071429 Z M30.8785714,40.1071429 L30.8785714,36.3571429 L34.6285714,36.3571429 L34.6285714,40.1071429 L30.8785714,40.1071429 Z M37.3071429,40.1071429 L37.3071429,36.3571429 L41.0571429,36.3571429 L41.0571429,40.1071429 L37.3071429,40.1071429 Z"/></g></g></g></g></svg>