<svg xmlns="http://www.w3.org/2000/svg" xmlns:xlink="http://www.w3.org/1999/xlink" id="Layer_1" x="0" y="0" enable-background="new 0 -4 109.333 117" version="1.1" viewBox="0 -4 109.333 117" xml:space="preserve"><desc>Created with Sketch.</desc><g id="Page-1"><g id="No-Youtube-Videos-2" transform="translate(-313.000000, -188.000000)"><g id="Line-2-_x2B_-Oval-4-_x2B_-Oval-1-_x2B_-Oval-2-_x2B_-Oval-3" transform="translate(318.000000, 188.000000)"><path id="Line-2" fill="none" stroke="#D8D8D8" stroke-linecap="square" stroke-width="8" d="M0.835,106.669l29.892-33.622"/><g id="Oval-4-_x2B_-Oval-1-_x2B_-Oval-2-_x2B_-Oval-3" transform="translate(6.000000, 0.000000)"><g id="Oval-4"><g><path id="path-1" fill="#FFF" d="M44.24,97.081c24.112,0,43.659-19.547,43.659-43.659S68.353,9.762,44.24,9.762 S0.581,29.309,0.581,53.421S20.128,97.081,44.24,97.081z"/></g><g><path id="path-1_1_" fill="none" d="M44.24,97.081c24.112,0,43.659-19.547,43.659-43.659S68.353,9.762,44.24,9.762 S0.581,29.309,0.581,53.421S20.128,97.081,44.24,97.081z"/></g></g><g id="Oval-1"><g><path id="path-2" fill="#FFF" stroke="#EEE" stroke-width="8" d="M50.24,88.081c24.112,0,43.659-19.547,43.659-43.659 S74.353,0.762,50.24,0.762S6.581,20.309,6.581,44.421S26.128,88.081,50.24,88.081z"/></g><g><path id="path-2_1_" fill="none" d="M50.24,88.081c24.112,0,43.659-19.547,43.659-43.659S74.353,0.762,50.24,0.762 S6.581,20.309,6.581,44.421S26.128,88.081,50.24,88.081z"/></g></g><g id="Oval-2-_x2B_-Oval-3" transform="translate(36.037968, 29.166660)"><g id="Oval-2"><g><path id="path-3" fill="#D8D8D8" d="M15.255,30.509c8.425,0,15.255-6.83,15.255-15.255S23.679,0,15.255,0S0,6.83,0,15.255 S6.83,30.509,15.255,30.509z"/></g><g><path id="path-3_1_" fill="none" d="M15.255,30.509c8.425,0,15.255-6.83,15.255-15.255S23.679,0,15.255,0S0,6.83,0,15.255 S6.83,30.509,15.255,30.509z"/></g></g><g id="Oval-3"><g><path id="path-4" fill="#FFF" d="M28.405,14.728c3.486,0,6.312-2.826,6.312-6.312s-2.826-6.312-6.312-6.312 s-6.312,2.826-6.312,6.312S24.919,14.728,28.405,14.728z"/></g><g><path id="path-4_1_" fill="none" d="M28.405,14.728c3.486,0,6.312-2.826,6.312-6.312s-2.826-6.312-6.312-6.312 s-6.312,2.826-6.312,6.312S24.919,14.728,28.405,14.728z"/></g></g></g></g></g></g></g></svg>