<svg xmlns="http://www.w3.org/2000/svg" xmlns:xlink="http://www.w3.org/1999/xlink" id="Layer_1" width="595.279" height="841.891" x="0" y="0" enable-background="new 0 0 595.279 841.891" version="1.1" viewBox="0 0 595.279 841.891" xml:space="preserve"><desc>Created with Sketch.</desc><path fill="#DBDBDB" d="M583.402,561.327v107.535c0,19.777-16.067,35.845-35.845,35.845H404.175c0,0,0,0-0.034,0H189.139	c-0.036,0-0.036,0-0.036,0H45.723c-19.777,0-35.845-16.067-35.845-35.845v35.845V131.183h537.679	c19.777,0,35.845,16.068,35.845,35.845v107.536l0,0V561.327L583.402,561.327z M9.878,131.183v35.845	c0-19.777,16.068-35.845,35.845-35.845H9.878z M511.712,202.874H81.568V525.48h107.536v107.537h215.071V525.48h107.537V202.874z M259.5,479.974l-0.35,0.42l-87.968-94.32l45.734-49.026l49.584,53.156l108.27-116.077l29.405,31.592v4.69h4.377l13.441,14.404	L268.39,489.531L259.5,479.974z"/></svg>