<svg xmlns="http://www.w3.org/2000/svg" xmlns:xlink="http://www.w3.org/1999/xlink" width="192" height="139" version="1.1" viewBox="0 0 192 139"><desc>Created with Sketch.</desc><defs><path id="path-1" d="M0.00968688845,0.0930904033 L164.911204,0.0930904033 L164.911204,115.99032 L0.00968688845,115.99032"/><path id="path-3" d="M4,128.348033 C4,128.348033 5.10246827,127.579947 6.46645925,126.629659 L179.611666,6"/><path id="path-4" d="M0,123.348033 C0,123.348033 1.10246827,122.579947 2.46645925,121.629659 L175.611666,1"/></defs><g id="Page-1" fill="none" fill-rule="evenodd" stroke="none" stroke-width="1"><g id="No-Search-Results" transform="translate(-269.000000, -182.000000)"><g id="Youtube-Logo-+-Line" transform="translate(275.000000, 187.000000)"><g id="Youtube-Logo" transform="translate(6.000000, 0.000000)"><path id="Fill-1" fill="#FFF" d="M65.4228229,79.4222476 L109.98251,56.3513157 L65.4228229,33.1190487 L65.4228229,79.4222476"/><path id="Fill-2" fill="#DFDEDA" d="M104.500054,59.1948484 L104.495856,59.1921057 L109.98251,56.3513157 L104.500054,59.1948484"/><g id="Group-6"><mask id="mask-2" fill="#fff"><use xlink:href="#path-1"/></mask><path id="Fill-5" fill="#EFEFEF" d="M65.430411,79.4222476 L65.4228229,33.1190487 L109.98251,56.3513157 L65.430411,79.4222476 L65.430411,79.4222476 Z M163.264432,25.0976245 C163.264432,25.0976245 161.65318,13.7414019 156.708346,8.74049513 C150.437378,2.17689569 143.408249,2.14430598 140.184775,1.7601669 C117.107862,0.0930904033 82.4912818,0.0930904033 82.4912818,0.0930904033 L82.4195988,0.0930904033 C82.4195988,0.0930904033 47.8038258,0.0930904033 24.7261057,1.7601669 C21.5024706,2.14430598 14.4759247,2.17689569 8.20269569,8.74049513 C3.25818493,13.7414019 1.64919276,25.0976245 1.64919276,25.0976245 C1.64919276,25.0976245 0,38.4335911 0,51.7693964 L0,64.2717441 C0,77.607388 1.64919276,90.9431933 1.64919276,90.9431933 C1.64919276,90.9431933 3.25818493,102.299577 8.20269569,107.300484 C14.4759247,113.864245 22.7162378,113.656606 26.3864384,114.34454 C39.5794961,115.608762 82.4556018,116 82.4556018,116 C82.4556018,116 117.107862,115.947889 140.184775,114.280974 C143.408249,113.896673 150.437378,113.864245 156.708346,107.300484 C161.65318,102.299577 163.264432,90.9431933 163.264432,90.9431933 C163.264432,90.9431933 164.911204,77.607388 164.911204,64.2717441 L164.911204,51.7693964 C164.911204,38.4335911 163.264432,25.0976245 163.264432,25.0976245 L163.264432,25.0976245 Z" mask="url(#mask-2)"/></g></g><g id="Line-2"><use stroke="#FFF" stroke-linecap="square" stroke-width="8" xlink:href="#path-3"/><use stroke="none" xlink:href="#path-3"/></g><g id="Line"><use stroke="#D8D8D8" stroke-linecap="square" stroke-width="8" xlink:href="#path-4"/><use stroke="none" xlink:href="#path-4"/></g></g></g></g></svg>