<svg xmlns="http://www.w3.org/2000/svg" xmlns:xlink="http://www.w3.org/1999/xlink" width="301" height="269" version="1.1" viewBox="0 0 301 269"><desc>Created with Sketch.</desc><defs><path id="path-1" d="M11.9196133,0.641436464 L5.72154696,6.83867403 L3.25359116,4.37071823 C3.07209945,4.18839779 2.77707182,4.18839779 2.59475138,4.37071823 L0.730110497,6.23618785 C0.546961326,6.41767956 0.546961326,6.71270718 0.730110497,6.89502762 L5.39254144,11.5574586 C5.48287293,11.6486188 5.60220994,11.6941989 5.72154696,11.6941989 C5.84088398,11.6941989 5.96022099,11.6486188 6.05138122,11.5574586 L14.4439227,3.16491713 C14.6262431,2.98342541 14.6262431,2.68756906 14.4439227,2.50607735 L12.578453,0.641436464 C12.4872928,0.550276243 12.3687845,0.503867403 12.2494475,0.503867403 C12.1301105,0.503867403 12.0107735,0.550276243 11.9196133,0.641436464 L11.9196133,0.641436464 Z"/><path id="path-3" d="M11.9196133,0.401104972 L5.72154696,6.59917127 L3.25359116,4.13038674 C3.07209945,3.94889503 2.77707182,3.94889503 2.59475138,4.13038674 L0.730110497,5.99585635 C0.546961326,6.1781768 0.546961326,6.47320442 0.730110497,6.65552486 L5.39254144,11.3179558 C5.48287293,11.409116 5.60220994,11.4546961 5.72154696,11.4546961 C5.84088398,11.4546961 5.96022099,11.409116 6.05138122,11.3179558 L14.4439227,2.92541436 C14.6262431,2.74309392 14.6262431,2.4480663 14.4439227,2.26574586 L12.578453,0.401104972 C12.4872928,0.309944751 12.3687845,0.264364641 12.2494475,0.264364641 C12.1301105,0.264364641 12.0107735,0.309944751 11.9196133,0.401104972 L11.9196133,0.401104972 Z"/><path id="path-5" d="M9.1359116,0.833701657 L6.11436464,3.85524862 L3.09198895,0.833701657 C2.93038674,0.672099448 2.66850829,0.672099448 2.50607735,0.833701657 L0.848618785,2.49116022 C0.687016575,2.65359116 0.687016575,2.91464088 0.848618785,3.07790055 L3.87099448,6.09861878 L0.848618785,9.12099448 C0.687016575,9.28342541 0.687016575,9.54530387 0.848618785,9.70690608 L2.50607735,11.3651934 C2.66850829,11.5267956 2.93038674,11.5267956 3.09198895,11.3651934 L6.11436464,8.34281768 L9.1359116,11.3651934 C9.21712707,11.4455801 9.32320442,11.4853591 9.42928177,11.4853591 C9.53535912,11.4853591 9.64060773,11.4455801 9.72265193,11.3651934 L11.3792818,9.70690608 C11.5417127,9.54530387 11.5417127,9.28342541 11.3792818,9.12099448 L8.35773481,6.09861878 L11.3792818,3.07790055 C11.5417127,2.91464088 11.5417127,2.65359116 11.3792818,2.49116022 L9.72265193,0.833701657 C9.64143646,0.753314917 9.53535912,0.712707182 9.42928177,0.712707182 C9.32320442,0.712707182 9.21712707,0.753314917 9.1359116,0.833701657 L9.1359116,0.833701657 Z"/></defs><g id="Marketer" fill="none" fill-rule="evenodd" stroke="none" stroke-width="1"><g id="Pitch-Request-View-Empty-Copy" transform="translate(-727.000000, -238.000000)"><g id="Group-9" transform="translate(728.000000, 239.000000)"><g id="Page-1"><g id="Group-21" transform="translate(0.000000, 12.743370)"><path id="Stroke-1" stroke="#9B9B9B" stroke-linecap="round" d="M161.817182,10.8753315 C161.817182,10.8753315 161.247845,10.3673204 160.209448,9.57256906"/><path id="Stroke-3" stroke="#9B9B9B" stroke-dasharray="4.981 3.985" stroke-linecap="round" d="M157.523785,7.65464088 C149.013564,1.9778453 129.428204,-7.55917127 113.243122,10.8750829 C91.9091436,35.1734254 81.0494751,75.8872376 81.0494751,99.9742541 C81.0494751,99.9742541 81.7770994,129.405746 84.6875967,134.323425 C87.5980939,139.241105 91.9555525,151.115967 113.243122,151.115967 C134.530691,151.115967 187.916602,139.65547 187.916602,139.65547 C187.916602,139.65547 242.220746,125.567072 245.132072,124.738343 C248.042569,123.909613 292.090359,99.6129282 271.703619,85.0347514 C251.316878,70.4565746 216.051133,83.7750829 200.017707,93.1156906 C186.13732,101.202431 147.705,131.782541 147.705,131.782541 C147.705,131.782541 54.8541713,195.594696 57.4008564,224.185856 C59.5596961,248.419558 102.492845,250.02895 115.528757,249.956851"/><path id="Stroke-5" stroke="#9B9B9B" stroke-linecap="round" d="M117.181989,249.937293 C118.506298,249.912431 119.250497,249.876796 119.250497,249.876796"/><path id="Fill-7" fill="#FFF" d="M289.517901,134.32326 L124.572597,134.32326 C119.102983,134.32326 114.627845,129.848122 114.627845,124.378508 L114.627845,109.919669 C114.627845,104.450055 119.102983,99.9749171 124.572597,99.9749171 L289.517901,99.9749171 C294.987514,99.9749171 299.462652,104.450055 299.462652,109.919669 L299.462652,124.378508 C299.462652,129.848122 294.987514,134.32326 289.517901,134.32326"/><path id="Stroke-9" stroke="#9B9B9B" d="M289.517901,134.32326 L124.572597,134.32326 C119.102983,134.32326 114.627845,129.848122 114.627845,124.378508 L114.627845,109.919669 C114.627845,104.450055 119.102983,99.9749171 124.572597,99.9749171 L289.517901,99.9749171 C294.987514,99.9749171 299.462652,104.450055 299.462652,109.919669 L299.462652,124.378508 C299.462652,129.848122 294.987514,134.32326 289.517901,134.32326 L289.517901,134.32326 Z"/><path id="Fill-11" fill="#FFF" d="M175.304088,185.464558 L10.3587845,185.464558 C4.88917127,185.464558 0.414033149,180.98942 0.414033149,175.519807 L0.414033149,161.060967 C0.414033149,155.591354 4.88917127,151.116215 10.3587845,151.116215 L175.304088,151.116215 C180.773702,151.116215 185.24884,155.591354 185.24884,161.060967 L185.24884,175.519807 C185.24884,180.98942 180.773702,185.464558 175.304088,185.464558"/><path id="Stroke-13" stroke="#9B9B9B" d="M175.304088,185.464558 L10.3587845,185.464558 C4.88917127,185.464558 0.414033149,180.98942 0.414033149,175.519807 L0.414033149,161.060967 C0.414033149,155.591354 4.88917127,151.116215 10.3587845,151.116215 L175.304088,151.116215 C180.773702,151.116215 185.24884,155.591354 185.24884,161.060967 L185.24884,175.519807 C185.24884,180.98942 180.773702,185.464558 175.304088,185.464558 L175.304088,185.464558 Z"/><path id="Fill-15" fill="#FFF" d="M175.304088,107.803923 L10.3587845,107.803923 C4.88917127,107.803923 0.414033149,103.328785 0.414033149,97.8591713 L0.414033149,83.4003315 C0.414033149,77.9307182 4.88917127,73.4555801 10.3587845,73.4555801 L175.304088,73.4555801 C180.773702,73.4555801 185.24884,77.9307182 185.24884,83.4003315 L185.24884,97.8591713 C185.24884,103.328785 180.773702,107.803923 175.304088,107.803923"/><path id="Stroke-17" stroke="#9B9B9B" d="M175.304088,107.803923 L10.3587845,107.803923 C4.88917127,107.803923 0.414033149,103.328785 0.414033149,97.8591713 L0.414033149,83.4003315 C0.414033149,77.9307182 4.88917127,73.4555801 10.3587845,73.4555801 L175.304088,73.4555801 C180.773702,73.4555801 185.24884,77.9307182 185.24884,83.4003315 L185.24884,97.8591713 C185.24884,103.328785 180.773702,107.803923 175.304088,107.803923 L175.304088,107.803923 Z"/><path id="Fill-19" fill="#D8D8D8" d="M16.1656077,96.088011 C16.256768,96.1791713 16.376105,96.2247514 16.495442,96.2247514 C16.614779,96.2247514 16.734116,96.1791713 16.8252762,96.088011 L25.216989,87.6954696 C25.3993094,87.5131492 25.3993094,87.2189503 25.216989,87.0366298 L23.3523481,85.1711602 C23.1700276,84.9888398 22.875,84.9888398 22.6926796,85.1711602 L16.495442,91.3692265 L14.0274862,88.9012707 C13.8451657,88.7189503 13.5501381,88.7189503 13.3678177,88.9012707 L11.5031768,90.7659116 C11.3208564,90.948232 11.3208564,91.2432597 11.5031768,91.4255801 L16.1656077,96.088011 Z"/></g><g id="Group-24" transform="translate(10.773481, 97.273757)"><mask id="mask-2" fill="#fff"><use xlink:href="#path-1"/></mask><polygon id="Fill-22" fill="#D8D8D8" points="-1.738 14.025 16.912 14.025 16.912 -1.827 -1.738 -1.827" mask="url(#mask-2)"/></g><path id="Fill-25" fill="#D8D8D8" d="M16.1656077,186.492017 C16.256768,186.583177 16.376105,186.628757 16.495442,186.628757 C16.614779,186.628757 16.734116,186.583177 16.8252762,186.492017 L25.216989,178.099475 C25.3993094,177.917155 25.3993094,177.622956 25.216989,177.440635 L23.3523481,175.575166 C23.1700276,175.392845 22.875,175.392845 22.6926796,175.575166 L16.495442,181.773232 L14.0274862,179.305276 C13.8451657,179.122956 13.5501381,179.122956 13.3678177,179.305276 L11.5031768,181.169917 C11.3208564,181.352238 11.3208564,181.647265 11.5031768,181.829586 L16.1656077,186.492017 Z"/><g id="Group-29" transform="translate(10.773481, 175.174309)"><mask id="mask-4" fill="#fff"><use xlink:href="#path-3"/></mask><polygon id="Fill-27" fill="#D8D8D8" points="-1.738 13.786 16.912 13.786 16.912 -2.067 -1.738 -2.067" mask="url(#mask-4)"/></g><path id="Fill-30" fill="#D8D8D8" d="M137.346464,126.28442 L135.689006,124.626961 C135.527403,124.465359 135.264696,124.465359 135.103094,124.626961 L132.080718,127.648508 L129.059171,124.626961 C128.897569,124.465359 128.634862,124.465359 128.47326,124.626961 L126.815801,126.28442 C126.654199,126.446022 126.654199,126.708729 126.815801,126.870331 L129.837348,129.892707 L126.815801,132.914254 C126.654199,133.075856 126.654199,133.338564 126.815801,133.500166 L128.47326,135.157624 C128.634862,135.319227 128.897569,135.319227 129.059171,135.157624 L132.080718,132.136077 L135.103094,135.157624 C135.184309,135.23884 135.289558,135.279448 135.395635,135.279448 C135.502541,135.279448 135.60779,135.23884 135.689006,135.157624 L137.346464,133.500166 C137.508066,133.338564 137.508066,133.075856 137.346464,132.914254 L134.324917,129.892707 L137.346464,126.870331 C137.508066,126.708729 137.508066,126.446022 137.346464,126.28442"/><g id="Group-34" transform="translate(125.966851, 123.793094)"><mask id="mask-6" fill="#fff"><use xlink:href="#path-5"/></mask><polygon id="Fill-32" fill="#D8D8D8" points="-1.344 13.558 13.573 13.558 13.573 -1.359 -1.344 -1.359" mask="url(#mask-6)"/></g><g id="Group-79" transform="translate(37.292818, 0.312431)"><path id="Fill-35" fill="#D8D8D8" d="M129.922127,105.546713 L2.95168508,105.546713 C1.57930939,105.546713 0.465497238,104.433729 0.465497238,103.060525 C0.465497238,101.68732 1.57930939,100.574337 2.95168508,100.574337 L129.922127,100.574337 C131.295331,100.574337 132.408315,101.68732 132.408315,103.060525 C132.408315,104.433729 131.295331,105.546713 129.922127,105.546713"/><path id="Fill-37" fill="#D8D8D8" d="M129.922127,183.207431 L2.95168508,183.207431 C1.57930939,183.207431 0.465497238,182.094448 0.465497238,180.721243 L0.465497238,180.721243 C0.465497238,179.348039 1.57930939,178.235055 2.95168508,178.235055 L129.922127,178.235055 C131.295331,178.235055 132.408315,179.348039 132.408315,180.721243 L132.408315,180.721243 C132.408315,182.094448 131.295331,183.207431 129.922127,183.207431"/><path id="Fill-39" fill="#D8D8D8" d="M243.872403,132.06605 L116.901961,132.06605 C115.529586,132.06605 114.415773,130.953066 114.415773,129.579862 C114.415773,128.206657 115.529586,127.093674 116.901961,127.093674 L243.872403,127.093674 C245.245608,127.093674 246.358591,128.206657 246.358591,129.579862 C246.358591,130.953066 245.245608,132.06605 243.872403,132.06605"/><path id="Stroke-41" stroke="#9B9B9B" stroke-linecap="round" d="M89.4014917,262.714475 C89.4014917,264.769724 87.7349171,266.436298 85.6796685,266.436298 C83.6235912,266.436298 81.9578453,264.769724 81.9578453,262.714475 C81.9578453,260.659227 83.6235912,258.992652 85.6796685,258.992652 C87.7349171,258.992652 89.4014917,260.659227 89.4014917,262.714475 L89.4014917,262.714475 Z"/><path id="Fill-43" fill="#FFF" d="M119.891934,19.8393646 C120.433094,8.40953039 130.137514,-0.415607735 141.567348,0.125552486 C152.996354,0.666712707 161.823978,10.3727901 161.28116,21.8017956 C160.739171,33.2316298 151.03558,42.0575967 139.605746,41.514779 C128.17674,40.9727901 119.350773,31.2691989 119.891934,19.8393646"/><path id="Stroke-45" stroke="#9B9B9B" d="M119.891934,19.8393646 C120.433094,8.40953039 130.137514,-0.415607735 141.567348,0.125552486 C152.996354,0.666712707 161.823978,10.3727901 161.28116,21.8017956 C160.739171,33.2316298 151.03558,42.0575967 139.605746,41.514779 C128.17674,40.9727901 119.350773,31.2691989 119.891934,19.8393646 L119.891934,19.8393646 Z"/><path id="Stroke-47" stroke="#9B9B9B" d="M153.75,36.7906906 C153.494751,32.2923481 150.929834,30.8942818 147.178177,29.644558 C144.49558,28.7495304 143.632873,26.035442 143.355249,24.3821271"/><path id="Stroke-49" stroke="#9B9B9B" d="M137.818011,24.3833702 C137.540387,26.0366851 136.676851,28.749116 133.995083,29.6441436 C130.243425,30.8946961 127.678508,32.2919337 127.42326,36.7919337"/><path id="Stroke-51" stroke="#9B9B9B" d="M140.586796,24.9640608 L140.586796,24.9640608 C136.772983,24.9640608 133.680994,21.8712431 133.680994,18.0582597 L133.680994,15.2952762 C133.680994,11.4822928 136.772983,8.38947514 140.586796,8.38947514 C144.400608,8.38947514 147.492597,11.4822928 147.492597,15.2952762 L147.492597,18.0582597 C147.492597,21.8712431 144.400608,24.9640608 140.586796,24.9640608 L140.586796,24.9640608 Z"/><path id="Fill-53" fill="#FFF" d="M168.947569,19.8393646 C169.488729,8.40953039 179.193149,-0.415607735 190.622983,0.125552486 C202.051989,0.666712707 210.879613,10.3727901 210.336796,21.8017956 C209.795635,33.2316298 200.091215,42.0575967 188.661381,41.514779 C177.232376,40.9727901 168.406409,31.2691989 168.947569,19.8393646"/><path id="Stroke-55" stroke="#9B9B9B" d="M168.947569,19.8393646 C169.488729,8.40953039 179.193149,-0.415607735 190.622983,0.125552486 C202.051989,0.666712707 210.879613,10.3727901 210.336796,21.8017956 C209.795635,33.2316298 200.091215,42.0575967 188.661381,41.514779 C177.232376,40.9727901 168.406409,31.2691989 168.947569,19.8393646 L168.947569,19.8393646 Z"/><g id="Group-60" transform="translate(192.265193, 24.033149)"><path id="Fill-57" fill="#FFF" d="M10.5403591,12.7575414 C10.2851105,8.2591989 7.72019337,6.8611326 3.96853591,5.61140884 C1.28593923,4.71638122 0.423232044,2.00229282 0.145607735,0.348977901"/><path id="Stroke-59" stroke="#9B9B9B" d="M10.5403591,12.7575414 C10.2851105,8.2591989 7.72019337,6.8611326 3.96853591,5.61140884 C1.28593923,4.71638122 0.423232044,2.00229282 0.145607735,0.348977901"/></g><g id="Group-64" transform="translate(175.690608, 24.033149)"><path id="Fill-61" fill="#FFF" d="M11.1829558,0.350220994 C10.9053315,2.00353591 10.0417956,4.71596685 7.36002762,5.61099448 C3.60837017,6.86154696 1.04345304,8.25878453 0.78820442,12.7587845"/><path id="Stroke-63" stroke="#9B9B9B" d="M11.1829558,0.350220994 C10.9053315,2.00353591 10.0417956,4.71596685 7.36002762,5.61099448 C3.60837017,6.86154696 1.04345304,8.25878453 0.78820442,12.7587845"/></g><path id="Fill-65" fill="#FFF" d="M189.642348,24.9640608 L189.642348,24.9640608 C185.828536,24.9640608 182.736547,21.8712431 182.736547,18.0582597 L182.736547,15.2952762 C182.736547,11.4822928 185.828536,8.38947514 189.642348,8.38947514 C193.45616,8.38947514 196.548149,11.4822928 196.548149,15.2952762 L196.548149,18.0582597 C196.548149,21.8712431 193.45616,24.9640608 189.642348,24.9640608"/><path id="Stroke-67" stroke="#9B9B9B" d="M189.642348,24.9640608 L189.642348,24.9640608 C185.828536,24.9640608 182.736547,21.8712431 182.736547,18.0582597 L182.736547,15.2952762 C182.736547,11.4822928 185.828536,8.38947514 189.642348,8.38947514 C193.45616,8.38947514 196.548149,11.4822928 196.548149,15.2952762 L196.548149,18.0582597 C196.548149,21.8712431 193.45616,24.9640608 189.642348,24.9640608 L189.642348,24.9640608 Z"/><path id="Fill-69" fill="#FFF" d="M217.376685,19.8393646 C217.917845,8.40953039 227.622265,-0.415607735 239.052099,0.125552486 C250.481105,0.666712707 259.308729,10.3727901 258.765912,21.8017956 C258.223923,33.2316298 248.520331,42.0575967 237.090497,41.514779 C225.661492,40.9727901 216.835525,31.2691989 217.376685,19.8393646"/><path id="Stroke-71" stroke="#9B9B9B" d="M217.376685,19.8393646 C217.917845,8.40953039 227.622265,-0.415607735 239.052099,0.125552486 C250.481105,0.666712707 259.308729,10.3727901 258.765912,21.8017956 C258.223923,33.2316298 248.520331,42.0575967 237.090497,41.514779 C225.661492,40.9727901 216.835525,31.2691989 217.376685,19.8393646 L217.376685,19.8393646 Z"/><path id="Stroke-73" stroke="#9B9B9B" d="M251.234751,36.7906906 C250.979503,32.2923481 248.414586,30.8942818 244.662928,29.644558 C241.980331,28.7495304 241.117624,26.035442 240.84,24.3821271"/><path id="Stroke-75" stroke="#9B9B9B" d="M235.302762,24.3833702 C235.025138,26.0366851 234.161602,28.749116 231.479834,29.6441436 C227.728177,30.8946961 225.16326,32.2919337 224.908011,36.7919337"/><path id="Stroke-77" stroke="#9B9B9B" d="M238.071464,24.9640608 L238.071464,24.9640608 C234.257652,24.9640608 231.165663,21.8712431 231.165663,18.0582597 L231.165663,15.2952762 C231.165663,11.4822928 234.257652,8.38947514 238.071464,8.38947514 C241.885276,8.38947514 244.977265,11.4822928 244.977265,15.2952762 L244.977265,18.0582597 C244.977265,21.8712431 241.885276,24.9640608 238.071464,24.9640608 L238.071464,24.9640608 Z"/></g></g></g></g></g></svg>