<svg xmlns="http://www.w3.org/2000/svg" xmlns:xlink="http://www.w3.org/1999/xlink" id="Layer_1" x="0" y="0" version="1.1" viewBox="0 0 50 50" xml:space="preserve" style="enable-background:new 0 0 50 50"><style type="text/css">.st0{fill:none}.st1{opacity:.15;fill:#444}.st2{fill-rule:evenodd;clip-rule:evenodd;fill:url(#New_Pattern_Swatch_1)}.st4{fill:#e3e3e3}</style><pattern id="New_Pattern_Swatch_1" width="38.7" height="38.7" patternUnits="userSpaceOnUse" viewBox="0 -38.7 38.7 38.7" style="overflow:visible"><g><rect width="38.7" height="38.7" y="-38.7" class="st0"/><rect width="38.7" height="38.7" x="0" y="-38.7" class="st1"/></g></pattern><rect width="1440" height="798" x="-881.69" y="-362.55" class="st0"/><path d="M23.09,14.13h-8.61c-0.26,0-0.48,0.21-0.48,0.47v8.51c0,0.26,0.21,0.47,0.48,0.47h8.61	c0.26,0,0.48-0.21,0.48-0.47V14.6C23.57,14.34,23.35,14.13,23.09,14.13 M23.09,26.42h-8.61c-0.26,0-0.48,0.21-0.48,0.47v8.51	c0,0.26,0.21,0.47,0.48,0.47h8.61c0.26,0,0.48-0.21,0.48-0.47v-8.51C23.57,26.63,23.35,26.42,23.09,26.42 M35.52,16.96h-9.57	c-0.26,0-0.48-0.21-0.48-0.47c0-0.26,0.21-0.47,0.48-0.47h9.57c0.26,0,0.48,0.21,0.48,0.47C36,16.75,35.79,16.96,35.52,16.96 M35.52,21.69h-9.57c-0.26,0-0.48-0.21-0.48-0.47c0-0.26,0.21-0.47,0.48-0.47h9.57c0.26,0,0.48,0.21,0.48,0.47	C36,21.48,35.79,21.69,35.52,21.69 M35.52,29.25h-9.57c-0.26,0-0.48-0.21-0.48-0.47c0-0.26,0.21-0.47,0.48-0.47h9.57	c0.26,0,0.48,0.21,0.48,0.47C36,29.04,35.79,29.25,35.52,29.25 M35.52,33.98h-9.57c-0.26,0-0.48-0.21-0.48-0.47	c0-0.26,0.21-0.47,0.48-0.47h9.57c0.26,0,0.48,0.21,0.48,0.47C36,33.77,35.79,33.98,35.52,33.98" class="st2"/><g><path d="M24.99,0c0,0-0.01,0-0.01,0c0,0,0,0,0,0c0,0-0.01,0-0.01,0c0,0,0,0,0,0c0,0-0.01,0-0.01,0c0,0,0,0,0,0 c0,0-0.01,0-0.01,0c0,0,0,0,0,0c0,0-0.01,0-0.01,0c0,0,0,0,0,0c0,0-0.01,0-0.01,0c0,0,0,0,0,0c0,0-0.01,0-0.01,0c0,0,0,0,0,0 c0,0-0.01,0-0.01,0c0,0,0,0,0,0c0,0-0.01,0-0.01,0c0,0,0,0,0,0c-0.01,0-0.01,0-0.01,0c0,0,0,0,0,0c0,0-0.01,0-0.01,0c0,0,0,0,0,0 c0,0-0.01,0-0.01,0c0,0,0,0,0,0c-0.01,0-0.01,0-0.01,0c0,0,0,0,0,0c0,0-0.01,0-0.01,0c0,0,0,0,0,0c0,0-0.01,0-0.01,0c0,0,0,0,0,0 c0,0-0.01,0-0.01,0c0,0,0,0,0,0c0,0-0.01,0-0.01,0c0,0,0,0,0,0c0,0-0.01,0-0.01,0c0,0,0,0,0,0c0,0-0.01,0-0.01,0c0,0,0,0,0,0 c0,0-0.01,0-0.01,0c0,0,0,0,0,0c0,0-0.01,0-0.01,0c0,0,0,0,0,0c0,0-0.01,0-0.01,0c0,0,0,0,0,0c0,0-0.01,0-0.01,0c0,0,0,0,0,0 c0,0-0.01,0-0.01,0c0,0,0,0,0,0c0,0-0.01,0-0.01,0c0,0,0,0,0,0c0,0-0.01,0-0.01,0c0,0,0,0,0,0c0,0-0.01,0-0.01,0c0,0,0,0,0,0 c0,0-0.01,0-0.01,0c0,0,0,0,0,0c0,0-0.01,0-0.01,0c0,0,0,0,0,0c0,0-0.01,0-0.01,0c0,0,0,0-0.01,0c0,0-0.01,0-0.01,0c0,0,0,0,0,0 c0,0-0.01,0-0.01,0c0,0,0,0,0,0c0,0-0.01,0-0.01,0c0,0,0,0-0.01,0c0,0-0.01,0-0.01,0c0,0,0,0,0,0c0,0-0.01,0-0.01,0c0,0,0,0,0,0 c0,0-0.01,0-0.01,0c0,0,0,0-0.01,0c0,0-0.01,0-0.01,0c0,0,0,0,0,0c0,0-0.01,0-0.01,0c0,0,0,0,0,0c0,0-0.01,0-0.01,0c0,0,0,0-0.01,0 c0,0-0.01,0-0.01,0c0,0,0,0-0.01,0c0,0-0.01,0-0.01,0c0,0,0,0,0,0c0,0-0.01,0-0.01,0c0,0,0,0,0,0c0,0-0.01,0-0.01,0c0,0,0,0,0,0 c0,0-0.01,0-0.01,0c0,0,0,0,0,0c0,0-0.01,0-0.01,0c0,0,0,0,0,0c0,0-0.01,0-0.01,0c0,0,0,0-0.01,0c0,0-0.01,0-0.01,0c0,0,0,0,0,0 c0,0-0.01,0-0.01,0c0,0,0,0,0,0c0,0-0.01,0-0.01,0c0,0,0,0,0,0c0,0-0.01,0-0.01,0c0,0,0,0,0,0c0,0-0.01,0-0.01,0c0,0,0,0,0,0 c0,0-0.01,0-0.01,0c0,0,0,0-0.01,0c0,0-0.01,0-0.01,0c0,0,0,0,0,0c0,0-0.01,0-0.01,0c0,0,0,0,0,0c0,0-0.01,0-0.01,0c0,0,0,0-0.01,0 c0,0-0.01,0-0.01,0c0,0,0,0-0.01,0c0,0-0.01,0-0.01,0c0,0,0,0,0,0c0,0-0.01,0-0.01,0c0,0,0,0-0.01,0c0,0,0,0-0.01,0c0,0,0,0-0.01,0 c0,0-0.01,0-0.01,0c0,0-0.01,0-0.01,0c0,0-0.01,0-0.01,0c0,0,0,0-0.01,0c0,0-0.01,0-0.01,0c0,0,0,0-0.01,0c0,0-0.01,0-0.01,0 c0,0-0.01,0-0.01,0c0,0-0.01,0-0.01,0c0,0,0,0-0.01,0c0,0,0,0-0.01,0c0,0,0,0-0.01,0c0,0-0.01,0-0.01,0c0,0,0,0-0.01,0 c0,0-0.01,0-0.01,0c0,0,0,0-0.01,0c0,0-0.01,0-0.01,0c0,0,0,0-0.01,0c0,0-0.01,0-0.01,0c0,0,0,0-0.01,0c0,0-0.01,0-0.01,0 c0,0,0,0-0.01,0c0,0-0.01,0-0.01,0c0,0,0,0-0.01,0c0,0-0.01,0-0.01,0c0,0,0,0-0.01,0c0,0-0.01,0-0.01,0c0,0,0,0-0.01,0 c0,0-0.01,0-0.01,0c0,0,0,0-0.01,0c0,0-0.01,0-0.01,0c0,0,0,0-0.01,0c0,0-0.01,0-0.01,0c0,0,0,0-0.01,0c0,0,0,0-0.01,0 c0,0,0,0-0.01,0c0,0,0,0-0.01,0c0,0,0,0-0.01,0c0,0-0.01,0-0.01,0c0,0-0.01,0-0.01,0c0,0-0.01,0-0.01,0c0,0,0,0-0.01,0 c0,0,0,0-0.01,0c0,0,0,0-0.01,0c0,0,0,0-0.01,0c0,0-0.01,0-0.01,0c0,0-0.01,0-0.01,0c0,0,0,0-0.01,0c0,0,0,0-0.01,0c0,0,0,0-0.01,0 c0,0-0.01,0-0.01,0c0,0-0.01,0-0.01,0c0,0-0.01,0-0.01,0c0,0-0.01,0-0.01,0c0,0,0,0-0.01,0c0,0-0.01,0-0.01,0c0,0,0,0-0.01,0 c-0.01,0-0.01,0-0.02,0c0,0,0,0,0,0c0,0-0.01,0-0.01,0c0,0,0,0-0.01,0c0,0-0.01,0-0.01,0c0,0,0,0-0.01,0c-0.01,0-0.02,0-0.03,0 c0,0,0,0-0.01,0c0,0-0.01,0-0.01,0c0,0,0,0-0.01,0c0,0-0.01,0-0.01,0c0,0,0,0,0,0c-0.01,0-0.01,0-0.02,0c0,0,0,0-0.01,0 c0,0-0.01,0-0.01,0c0,0,0,0-0.01,0c0,0-0.01,0-0.01,0c0,0,0,0-0.01,0c0,0-0.01,0-0.01,0c0,0,0,0-0.01,0c0,0-0.01,0-0.01,0 c0,0,0,0,0,0c0,0-0.01,0-0.01,0c0,0,0,0,0,0c-0.01,0-0.01,0-0.02,0c0,0,0,0,0,0c0,0-0.01,0-0.01,0c0,0,0,0,0,0c0,0-0.01,0-0.01,0 c0,0,0,0,0,0c-0.01,0-0.01,0-0.02,0c0,0,0,0,0,0c0,0-0.01,0-0.01,0c0,0,0,0,0,0c0,0-0.01,0-0.01,0c0,0,0,0,0,0 c-0.01,0-0.01,0-0.02,0c0,0,0,0,0,0c0,0-0.01,0-0.01,0c0,0,0,0,0,0c0,0-0.01,0-0.01,0c0,0,0,0,0,0c-0.01,0-0.02,0-0.03,0 c0,0,0,0,0,0c0,0-0.01,0-0.01,0c0,0,0,0,0,0c-0.01,0-0.02,0-0.03,0c0,0,0,0,0,0c0,0-0.01,0-0.01,0c0,0,0,0,0,0 c-0.01,0-0.02,0-0.03,0c0,0,0,0,0,0c0,0-0.01,0-0.01,0c0,0,0,0,0,0c-0.01,0-0.02,0-0.03,0c0,0,0,0,0,0c0,0-0.01,0-0.01,0 c0,0,0,0,0,0c0,0-0.01,0-0.01,0l0,0c-0.01,0-0.02,0-0.02,0l0,0c0,0-0.01,0-0.01,0c0,0,0,0,0,0c-0.01,0-0.03,0-0.04,0c0,0,0,0,0,0 c-0.02,0-0.03,0-0.05,0c0,0,0,0,0,0c0,0-0.01,0-0.01,0l0,0c-0.01,0-0.02,0-0.03,0c0,0,0,0,0,0c0,0-0.01,0-0.01,0c0,0,0,0,0,0 c-0.01,0-0.02,0-0.03,0l0,0c0,0-0.01,0-0.01,0c0,0,0,0,0,0c-0.02,0-0.03,0-0.05,0l0,0c-0.03,0-0.06,0.01-0.09,0.01l0,0 c-1.24,0.11-2.47,0.32-3.67,0.62l0.48,1.94C21.32,2.22,23.16,2,24.99,2V0L24.99,0L24.99,0z M13.45,2.84c0,0-0.01,0-0.01,0.01 c0,0,0,0,0,0c0,0,0,0-0.01,0c0,0,0,0-0.01,0c0,0,0,0-0.01,0c0,0,0,0,0,0c0,0-0.01,0-0.01,0.01c0,0,0,0,0,0c0,0-0.01,0-0.01,0 c0,0,0,0,0,0c0,0-0.01,0-0.01,0c0,0,0,0,0,0c0,0-0.01,0-0.01,0c0,0,0,0,0,0c0,0-0.01,0-0.01,0.01c0,0,0,0,0,0c0,0-0.01,0-0.01,0 c0,0,0,0,0,0c0,0-0.01,0-0.01,0c0,0,0,0,0,0c0,0-0.01,0-0.01,0.01c0,0,0,0,0,0c0,0-0.01,0-0.01,0.01c0,0,0,0,0,0 c0,0-0.01,0-0.01,0.01c0,0,0,0,0,0c0,0-0.01,0-0.01,0.01c0,0,0,0,0,0c0,0-0.01,0-0.01,0.01c0,0,0,0,0,0c0,0-0.01,0-0.01,0 c0,0,0,0,0,0c0,0-0.01,0-0.01,0.01c0,0,0,0,0,0c0,0-0.01,0-0.01,0.01c0,0,0,0,0,0c0,0-0.01,0-0.01,0.01c0,0,0,0,0,0 c0,0-0.01,0-0.01,0.01c0,0,0,0,0,0c0,0-0.01,0-0.01,0.01c0,0,0,0,0,0c0,0-0.01,0-0.01,0.01c0,0,0,0,0,0c0,0-0.01,0-0.01,0.01 c0,0,0,0,0,0c-0.01,0-0.02,0.01-0.03,0.01c0,0,0,0,0,0c0,0-0.01,0-0.01,0.01c0,0,0,0,0,0c-0.01,0-0.02,0.01-0.03,0.01c0,0,0,0,0,0 c0,0-0.01,0-0.01,0.01c0,0,0,0,0,0c-0.01,0.01-0.03,0.01-0.04,0.02c0,0,0,0,0,0c0,0-0.01,0-0.01,0.01l0,0 c-0.01,0-0.02,0.01-0.03,0.01c0,0,0,0,0,0c0,0-0.01,0-0.01,0.01c0,0,0,0,0,0c-0.01,0.01-0.03,0.01-0.04,0.02l0,0 c-0.01,0.01-0.03,0.01-0.04,0.02l0,0C11.33,4,9.86,5.03,8.51,6.21l1.32,1.5c1.38-1.21,2.91-2.26,4.55-3.11L13.45,2.84L13.45,2.84z M4.51,10.67c-1.13,1.61-2.08,3.38-2.81,5.28l1.87,0.72c0.67-1.72,1.54-3.36,2.59-4.86L4.51,10.67L4.51,10.67z M0.21,21.75 c-0.25,1.86-0.28,3.71-0.11,5.53c0,0,0,0,0,0c0,0,0,0.01,0,0.01c0,0,0,0,0,0c0,0.01,0,0.02,0,0.04c0,0,0,0,0,0 c0,0.02,0,0.04,0.01,0.06c0,0,0,0,0,0c0,0.01,0,0.02,0,0.04l0,0c0,0,0,0.01,0,0.01c0,0,0,0,0,0c0,0,0,0,0,0.01c0,0,0,0,0,0 c0,0.01,0,0.02,0,0.03c0,0,0,0,0,0c0,0,0,0,0,0.01c0,0,0,0,0,0c0,0,0,0,0,0.01c0,0,0,0,0,0c0,0.01,0,0.02,0,0.04c0,0,0,0,0,0 c0,0,0,0.01,0,0.01c0,0,0,0,0,0c0,0,0,0.01,0,0.01c0,0,0,0,0,0c0,0.01,0,0.02,0,0.03c0,0,0,0,0,0c0,0,0,0,0,0.01c0,0,0,0,0,0 c0,0,0,0,0,0.01c0,0,0,0,0,0c0,0,0,0,0,0.01c0,0,0,0,0,0c0,0,0,0.01,0,0.01c0,0,0,0,0,0c0,0,0,0,0,0.01c0,0,0,0,0,0c0,0,0,0,0,0.01 c0,0,0,0,0,0c0,0,0,0,0,0.01c0,0,0,0,0,0c0,0.01,0,0.02,0,0.02c0,0,0,0,0,0c0,0,0,0,0,0.01c0,0,0,0,0,0c0,0,0,0.01,0,0.01 c0,0,0,0,0,0c0,0,0,0,0,0.01c0,0,0,0,0,0c0,0.01,0,0.01,0,0.02l1.99-0.22c-0.2-1.83-0.18-3.68,0.06-5.5L0.21,21.75L0.21,21.75z M3.4,32.88l-1.88,0.69c0.48,1.31,1.07,2.58,1.75,3.79l0,0c0,0,0,0.01,0,0.01c0,0,0,0,0,0c0.01,0.01,0.01,0.02,0.02,0.03 c0,0,0,0,0,0c0,0,0,0.01,0,0.01c0,0,0,0,0,0c0.01,0.01,0.01,0.02,0.02,0.03c0,0,0,0,0,0c0,0,0,0,0,0.01c0,0,0,0,0,0 c0.01,0.01,0.01,0.02,0.02,0.03c0,0,0,0,0,0c0,0,0,0,0,0.01c0,0,0,0,0,0c0,0.01,0.01,0.01,0.01,0.02c0,0,0,0,0,0c0,0,0,0,0,0.01 c0,0,0,0,0,0c0,0,0,0,0,0.01c0,0,0,0,0,0c0,0,0,0,0,0.01c0,0,0,0,0,0c0,0,0.01,0.01,0.01,0.01c0,0,0,0,0,0c0,0,0,0,0,0.01 c0,0,0,0,0,0c0,0,0,0,0,0.01c0,0,0,0,0,0c0,0,0,0,0,0.01c0,0,0,0,0,0c0,0,0,0.01,0.01,0.01c0,0,0,0,0,0c0,0,0,0,0,0.01c0,0,0,0,0,0 c0,0,0,0,0,0c0,0,0,0,0,0c0,0,0,0,0,0.01c0,0,0,0,0,0c0,0,0,0.01,0.01,0.01c0,0,0,0,0,0c0,0,0,0,0,0.01c0,0,0,0,0,0c0,0,0,0,0,0 c0,0,0,0,0,0.01c0,0,0,0,0,0c0,0,0,0.01,0.01,0.01c0,0,0,0,0,0c0,0,0,0,0,0.01c0,0,0,0,0,0c0,0,0,0,0,0.01c0,0,0,0,0,0 c0,0,0,0,0,0.01c0,0,0,0,0,0c0,0,0,0.01,0.01,0.01c0,0,0,0,0,0c0,0,0,0.01,0,0.01c0,0,0,0,0,0c0,0,0,0,0,0.01c0,0,0,0,0,0 c0,0,0,0.01,0,0.01l0,0c0,0.01,0.01,0.01,0.01,0.02c0,0,0,0,0,0c0,0,0,0.01,0,0.01c0,0,0,0,0,0c0,0,0,0.01,0.01,0.01l0,0 c0,0.01,0.01,0.01,0.01,0.02c0,0,0,0,0,0c0,0,0,0.01,0,0.01c0,0,0,0,0,0c0,0,0,0.01,0.01,0.01l0,0c0,0.01,0.01,0.01,0.01,0.02 c0,0,0,0,0,0c0,0,0,0.01,0.01,0.01l0,0c0.01,0.01,0.01,0.02,0.02,0.03l0,0C3.79,38.22,4,38.56,4.23,38.9l1.66-1.11 C4.87,36.26,4.03,34.61,3.4,32.88L3.4,32.88z M9.48,41.97l-1.35,1.47l0,0c0,0,0.01,0,0.01,0.01l0,0c0,0,0,0,0.01,0.01c0,0,0,0,0,0 c0.01,0.01,0.02,0.02,0.03,0.02c0,0,0,0,0,0c0,0,0.01,0,0.01,0.01l0,0c0.01,0.01,0.02,0.02,0.03,0.02l0,0c0,0,0.01,0,0.01,0.01l0,0 c0,0,0,0,0.01,0.01c0,0,0,0,0,0c0,0,0.01,0,0.01,0.01c0,0,0,0,0,0c0.01,0,0.01,0.01,0.02,0.01c0,0,0,0,0,0c0,0,0,0,0.01,0.01 c0,0,0,0,0,0c0,0,0,0,0.01,0c0,0,0,0,0,0c0.01,0,0.01,0.01,0.02,0.01c0,0,0,0,0,0c0,0,0,0,0.01,0.01c0,0,0,0,0,0c0,0,0,0,0.01,0.01 c0,0,0,0,0,0c0,0,0,0,0.01,0.01c0,0,0,0,0,0c0,0,0.01,0,0.01,0.01c0,0,0,0,0,0c0,0,0,0,0.01,0.01c0,0,0,0,0,0c0,0,0,0,0,0 c0,0,0,0,0,0c0,0,0,0,0,0c0,0,0,0,0,0c0,0,0,0,0.01,0.01c0,0,0,0,0,0c0,0,0,0,0.01,0.01c0,0,0,0,0,0c0,0,0,0,0,0c0,0,0,0,0,0 c0,0,0,0,0,0c0,0,0,0,0,0c0,0,0,0,0,0c0,0,0,0,0.01,0c0,0,0,0,0.01,0.01c0,0,0,0,0,0c0,0,0,0,0,0c0,0,0,0,0,0c0,0,0,0,0,0 c0,0,0,0,0,0c0,0,0,0,0,0c0,0,0,0,0,0c0,0,0,0,0,0c0,0,0.01,0.01,0.01,0.01c0,0,0,0,0,0c0,0,0,0,0,0c0,0,0,0,0,0c0,0,0,0,0,0 c0,0,0,0,0,0c0,0,0,0,0,0c0,0,0,0,0,0c0.01,0.01,0.01,0.01,0.02,0.02c0,0,0,0,0,0c0,0,0,0,0.01,0c0,0,0,0,0,0c0,0,0,0,0.01,0 c0,0,0,0,0,0c0,0,0,0,0.01,0c0,0,0,0,0,0c0,0,0.01,0.01,0.01,0.01c0,0,0,0,0,0c0,0,0,0,0.01,0c0,0,0,0,0,0c0,0,0,0,0.01,0 c0,0,0,0,0,0c0,0,0,0,0.01,0c0,0,0,0,0,0c0.01,0.01,0.01,0.01,0.02,0.02c0,0,0,0,0,0c0,0,0,0,0.01,0.01c0,0,0,0,0,0 c0,0,0,0,0.01,0.01c0,0,0,0,0,0c0.01,0.01,0.02,0.02,0.03,0.02c0,0,0,0,0,0c0,0,0,0,0.01,0.01c0,0,0,0,0,0 c0.01,0.01,0.02,0.02,0.03,0.02c0,0,0,0,0,0c0,0,0,0,0.01,0.01c0,0,0,0,0,0c0.03,0.02,0.05,0.05,0.08,0.07l0,0 c0.35,0.3,0.7,0.59,1.06,0.86c0,0,0,0,0,0c0.06,0.04,0.11,0.08,0.17,0.13c0,0,0,0,0,0c0.01,0.01,0.03,0.02,0.04,0.03c0,0,0,0,0,0 c0,0,0,0,0.01,0.01c0,0,0,0,0,0c0.01,0.01,0.02,0.01,0.03,0.02c0,0,0,0,0,0c0,0,0,0,0.01,0.01c0,0,0,0,0,0c0,0,0,0,0.01,0.01 c0,0,0,0,0,0c0.01,0.01,0.01,0.01,0.02,0.02c0,0,0,0,0,0c0,0,0,0,0.01,0c0,0,0,0,0,0c0,0,0,0,0.01,0c0,0,0,0,0,0 c0.01,0.01,0.02,0.01,0.03,0.02c0,0,0,0,0,0c0,0,0,0,0.01,0c0,0,0,0,0,0c0,0,0,0,0.01,0c0,0,0,0,0,0c0.01,0.01,0.01,0.01,0.02,0.02 c0,0,0,0,0,0c0,0,0,0,0.01,0c0,0,0,0,0,0c0,0,0,0,0.01,0c0,0,0,0,0,0c0,0,0,0,0.01,0c0,0,0,0,0,0c0.01,0,0.01,0.01,0.01,0.01l0,0 c0,0,0,0,0.01,0c0,0,0,0,0,0c0,0,0,0,0.01,0c0,0,0,0,0,0c0,0,0,0,0.01,0c0,0,0,0,0,0c0.01,0,0.01,0.01,0.02,0.01c0,0,0,0,0,0 c0,0,0,0,0,0c0,0,0,0,0,0c0,0,0,0,0,0c0,0,0,0,0,0c0,0,0,0,0,0c0,0,0,0,0,0c0,0,0.01,0,0.01,0.01c0,0,0,0,0,0c0,0,0,0,0,0 c0,0,0,0,0,0c0,0,0,0,0,0c0,0,0,0,0,0c0,0,0,0,0,0c0,0,0,0,0.01,0c0,0,0,0,0,0c0,0,0.01,0,0.01,0.01c0,0,0,0,0,0c0,0,0,0,0.01,0 c0,0,0,0,0,0c0,0,0,0,0,0c0,0,0,0,0,0c0,0,0,0,0.01,0c0,0,0,0,0,0c0,0,0,0,0.01,0c0,0,0,0,0,0c0,0,0.01,0,0.01,0.01c0,0,0,0,0,0 c0,0,0,0,0.01,0c0,0,0,0,0,0c0,0,0,0,0.01,0c0,0,0,0,0,0c0,0,0,0,0.01,0c0,0,0,0,0,0c0,0,0.01,0,0.01,0.01c0,0,0,0,0,0 c0,0,0,0,0.01,0c0,0,0,0,0,0c0,0,0,0,0,0c0,0,0,0,0,0c0,0,0,0,0.01,0c0,0,0,0,0,0c0,0,0,0,0.01,0c0,0,0,0,0,0c0,0,0,0,0.01,0.01 c0,0,0,0,0,0c0,0,0,0,0.01,0c0,0,0,0,0,0c0,0,0,0,0.01,0c0,0,0,0,0,0c0,0,0,0,0.01,0c0,0,0,0,0,0c0,0,0.01,0,0.01,0.01c0,0,0,0,0,0 c0,0,0.01,0,0.01,0.01c0,0,0,0,0,0c0,0,0,0,0.01,0c0,0,0,0,0,0c0,0,0,0,0.01,0c0,0,0,0,0,0c0.01,0,0.01,0.01,0.02,0.01l0,0 c0,0,0.01,0,0.01,0.01c0,0,0,0,0,0c0,0,0.01,0,0.01,0.01c0,0,0,0,0,0c0.01,0.01,0.02,0.01,0.03,0.02l0,0c0,0,0.01,0,0.01,0.01 c0,0,0,0,0,0c0,0,0.01,0,0.01,0.01l0,0c0.01,0.01,0.02,0.01,0.03,0.02c0,0,0,0,0,0c0,0,0.01,0,0.01,0.01c0,0,0,0,0,0 c0.01,0.01,0.02,0.01,0.03,0.02l0,0c0.74,0.52,1.52,1,2.33,1.44l0.96-1.76C12.34,44.29,10.83,43.21,9.48,41.97L9.48,41.97z M19.07,47.22l-0.52,1.93l0,0c0,0,0.01,0,0.01,0c0,0,0,0,0,0c0,0,0.01,0,0.01,0c0,0,0,0,0,0c0.01,0,0.02,0.01,0.03,0.01 c0,0,0,0,0,0c0,0,0.01,0,0.01,0c0,0,0,0,0,0c0,0,0.01,0,0.01,0c0,0,0,0,0,0c0.01,0,0.02,0,0.03,0.01c0,0,0,0,0,0c0,0,0.01,0,0.01,0 c0,0,0,0,0.01,0c0,0,0,0,0.01,0c0,0,0,0,0.01,0c0.01,0,0.02,0,0.03,0.01c0,0,0,0,0,0c0,0,0.01,0,0.01,0c0,0,0,0,0.01,0 c0,0,0,0,0.01,0c0,0,0,0,0.01,0c0,0,0.01,0,0.01,0c0,0,0,0,0,0c0,0,0,0,0.01,0c0,0,0,0,0.01,0c0,0,0,0,0.01,0c0,0,0,0,0.01,0 c0,0,0,0,0.01,0c0,0,0,0,0.01,0c0,0,0.01,0,0.01,0c0,0,0.01,0,0.01,0c0,0,0,0,0.01,0c0,0,0,0,0.01,0c0,0,0,0,0.01,0c0,0,0,0,0.01,0 c0,0,0,0,0.01,0c0,0,0,0,0.01,0c0,0,0,0,0.01,0c0,0,0.01,0,0.01,0c0,0,0,0,0.01,0c0,0,0.01,0,0.01,0c0,0,0,0,0.01,0c0,0,0,0,0.01,0 c0,0,0,0,0.01,0c0,0,0.01,0,0.01,0c0,0,0,0,0.01,0c0,0,0.01,0,0.01,0c0,0,0,0,0.01,0c0,0,0,0,0.01,0c0,0,0,0,0.01,0c0,0,0,0,0.01,0 c0,0,0,0,0.01,0c0,0,0.01,0,0.01,0c0,0,0,0,0.01,0c0,0,0.01,0,0.01,0c0,0,0,0,0.01,0c0,0,0.01,0,0.01,0c0,0,0,0,0.01,0 c0,0,0.01,0,0.01,0c0,0,0,0,0,0c0,0,0.01,0,0.01,0c0,0,0,0,0,0c0,0,0.01,0,0.01,0c0,0,0,0,0,0c0,0,0.01,0,0.01,0c0,0,0,0,0.01,0 c0,0,0.01,0,0.01,0c0,0,0,0,0,0c0.01,0,0.02,0,0.03,0.01c0,0,0,0,0,0c0,0,0.01,0,0.01,0c0,0,0,0,0,0c0,0,0.01,0,0.01,0c0,0,0,0,0,0 c0.01,0,0.02,0,0.03,0.01c0,0,0,0,0,0c0,0,0.01,0,0.01,0c0,0,0,0,0,0c0,0,0.01,0,0.01,0c0,0,0,0,0,0c0.01,0,0.02,0,0.03,0.01 c0,0,0,0,0,0c0,0,0.01,0,0.01,0c0,0,0,0,0,0c0,0,0.01,0,0.01,0c0,0,0,0,0,0c0.01,0,0.02,0,0.03,0.01c0,0,0,0,0,0c0,0,0.01,0,0.01,0 c0,0,0,0,0,0c0.01,0,0.03,0.01,0.04,0.01c0,0,0,0,0,0c0,0,0.01,0,0.01,0c0,0,0,0,0,0c0.01,0,0.03,0.01,0.04,0.01c0,0,0,0,0,0 c0,0,0.01,0,0.01,0c0,0,0,0,0,0c0.01,0,0.03,0.01,0.04,0.01c0,0,0,0,0,0c0,0,0.01,0,0.01,0c0,0,0,0,0,0c0.01,0,0.03,0.01,0.04,0.01 c0,0,0,0,0,0c0,0,0.01,0,0.01,0c0,0,0,0,0,0c1.65,0.37,3.3,0.57,4.93,0.6l0.04-2C22.69,47.96,20.86,47.69,19.07,47.22L19.07,47.22z M35.19,45.61c-1.65,0.82-3.4,1.44-5.19,1.84l0.44,1.95c0.43-0.1,0.85-0.2,1.27-0.32l0,0c0.01,0,0.02-0.01,0.03-0.01c0,0,0,0,0,0 c0,0,0.01,0,0.01,0c0,0,0,0,0,0c0.01,0,0.03-0.01,0.04-0.01c0,0,0,0,0,0c0,0,0.01,0,0.01,0c0,0,0,0,0,0c0,0,0.01,0,0.01,0 c0,0,0,0,0,0c0,0,0.01,0,0.01,0c0,0,0,0,0,0c0,0,0.01,0,0.01,0c0,0,0,0,0,0c0.01,0,0.02-0.01,0.03-0.01c0,0,0,0,0,0 c0,0,0.01,0,0.01,0c0,0,0,0,0,0c0,0,0.01,0,0.01,0c0,0,0,0,0,0c0,0,0.01,0,0.01,0c0,0,0,0,0,0c0,0,0.01,0,0.01,0c0,0,0,0,0,0 c0,0,0.01,0,0.01,0c0,0,0,0,0,0c0,0,0.01,0,0.01,0c0,0,0,0,0,0c0,0,0.01,0,0.01,0c0,0,0,0,0,0c0,0,0.01,0,0.01,0c0,0,0,0,0.01,0 c0,0,0.01,0,0.01,0c0,0,0,0,0,0c0,0,0.01,0,0.01,0c0,0,0,0,0.01,0c0,0,0.01,0,0.01,0c0,0,0,0,0.01,0c0,0,0,0,0.01,0 c0,0,0.01,0,0.01,0c0,0,0.01,0,0.01,0c0,0,0,0,0.01,0c0,0,0,0,0.01,0c0,0,0,0,0.01,0c0,0,0.01,0,0.01,0c0,0,0,0,0.01,0 c0,0,0.01,0,0.01,0c0,0,0.01,0,0.01,0c0,0,0,0,0.01,0c0,0,0,0,0.01,0c0,0,0,0,0.01,0c0,0,0,0,0.01,0c0,0,0,0,0.01,0 c0,0,0.01,0,0.01,0c0,0,0,0,0,0c0,0,0.01,0,0.01,0c0,0,0,0,0,0c0,0,0.01,0,0.01,0c0,0,0,0,0,0c0.01,0,0.01,0,0.02-0.01c0,0,0,0,0,0 c0,0,0.01,0,0.01,0c0,0,0,0,0,0c0,0,0.01,0,0.01,0c0,0,0,0,0,0c0.01,0,0.02-0.01,0.03-0.01c0,0,0,0,0,0c0,0,0.01,0,0.01,0 c0,0,0,0,0,0c0.01,0,0.02-0.01,0.03-0.01l0,0c0,0,0.01,0,0.01,0c0,0,0,0,0,0c0,0,0.01,0,0.01,0l0,0c0.01,0,0.02-0.01,0.03-0.01 c0,0,0,0,0,0c0,0,0.01,0,0.01,0l0,0c0.01,0,0.02-0.01,0.03-0.01l0,0c0,0,0.01,0,0.01,0c0,0,0,0,0,0c0.01,0,0.03-0.01,0.04-0.01l0,0 c0.01,0,0.03-0.01,0.04-0.01l0,0c0.63-0.2,1.24-0.42,1.85-0.67l0,0c0.03-0.01,0.06-0.03,0.1-0.04l0,0 c0.01-0.01,0.03-0.01,0.04-0.02c0,0,0,0,0,0c0,0,0.01,0,0.01,0l0,0c0.01,0,0.02-0.01,0.03-0.01l0,0c0,0,0.01,0,0.01,0c0,0,0,0,0,0 c0.01-0.01,0.03-0.01,0.04-0.02c0,0,0,0,0,0c0.01-0.01,0.03-0.01,0.04-0.02c0,0,0,0,0,0c0,0,0.01,0,0.01,0c0,0,0,0,0,0 c0.01,0,0.02-0.01,0.03-0.01c0,0,0,0,0,0c0,0,0.01,0,0.01,0c0,0,0,0,0,0c0,0,0.01,0,0.01,0c0,0,0,0,0,0c0.01,0,0.01,0,0.02-0.01 c0,0,0,0,0,0c0,0,0.01,0,0.01,0c0,0,0,0,0,0c0,0,0.01,0,0.01,0c0,0,0,0,0,0c0,0,0.01,0,0.01-0.01c0,0,0,0,0,0c0,0,0,0,0.01,0 c0,0,0,0,0.01,0c0,0,0,0,0.01,0c0,0,0,0,0.01,0c0,0,0.01,0,0.01-0.01c0,0,0,0,0,0c0,0,0,0,0.01,0c0,0,0,0,0.01,0c0,0,0,0,0.01,0 c0,0,0,0,0.01,0c0,0,0,0,0.01,0c0,0,0.01,0,0.01,0c0,0,0,0,0.01,0c0,0,0,0,0.01,0c0,0,0,0,0.01,0c0,0,0,0,0.01,0c0,0,0,0,0.01,0 c0,0,0.01,0,0.01,0c0,0,0,0,0.01,0c0,0,0,0,0.01,0c0,0,0,0,0.01,0c0,0,0,0,0.01,0c0,0,0,0,0.01,0c0,0,0.01,0,0.01,0c0,0,0,0,0,0 c0,0,0.01,0,0.01-0.01c0,0,0,0,0,0c0,0,0.01,0,0.01,0c0,0,0,0,0.01,0c0,0,0.01,0,0.01,0c0,0,0,0,0,0c0,0,0.01,0,0.01-0.01 c0,0,0,0,0,0c0,0,0.01,0,0.01,0c0,0,0,0,0,0c0,0,0.01,0,0.01,0c0,0,0,0,0,0c0,0,0.01,0,0.01-0.01c0,0,0,0,0,0c0,0,0.01,0,0.01,0 c0,0,0,0,0,0c0,0,0.01,0,0.01,0c0,0,0,0,0,0c0,0,0.01,0,0.01-0.01c0,0,0,0,0,0c0,0,0.01,0,0.01-0.01c0,0,0,0,0,0c0,0,0.01,0,0.01,0 c0,0,0,0,0,0c0,0,0.01,0,0.01,0c0,0,0,0,0,0c0,0,0.01,0,0.01-0.01c0,0,0,0,0,0c0,0,0.01,0,0.01,0c0,0,0,0,0,0c0,0,0.01,0,0.01,0 c0,0,0,0,0,0c0.01,0,0.02-0.01,0.03-0.01c0,0,0,0,0,0c0,0,0.01,0,0.01-0.01c0,0,0,0,0,0c0.01,0,0.02-0.01,0.03-0.01c0,0,0,0,0,0 c0,0,0.01,0,0.01-0.01c0,0,0,0,0,0c0.01,0,0.02-0.01,0.03-0.01c0,0,0,0,0,0c0,0,0.01,0,0.01-0.01c0,0,0,0,0,0 c0.01-0.01,0.03-0.01,0.04-0.02c0,0,0,0,0,0c0.25-0.11,0.49-0.23,0.73-0.35L35.19,45.61L35.19,45.61z M43.56,38.58 c-1.08,1.48-2.35,2.83-3.76,4.02l1.29,1.53c0.01,0,0.01-0.01,0.02-0.01c0,0,0,0,0,0c0,0,0.01,0,0.01-0.01l0,0 c1.04-0.88,2.01-1.84,2.91-2.89c0,0,0,0,0,0c0.01-0.01,0.02-0.02,0.03-0.04l0,0c0.01-0.01,0.02-0.02,0.03-0.03c0,0,0,0,0,0 c0,0,0-0.01,0.01-0.01l0,0c0.01-0.01,0.01-0.02,0.02-0.03c0,0,0,0,0,0c0,0,0-0.01,0.01-0.01c0,0,0,0,0,0 c0.01-0.01,0.01-0.02,0.02-0.02c0,0,0,0,0,0c0,0,0,0,0.01-0.01c0,0,0,0,0,0c0.01-0.01,0.01-0.02,0.02-0.02c0,0,0,0,0,0 c0,0,0,0,0.01-0.01c0,0,0,0,0,0c0,0,0,0,0.01-0.01c0,0,0,0,0,0c0,0,0.01-0.01,0.01-0.01c0,0,0,0,0,0c0,0,0,0,0-0.01c0,0,0,0,0,0 c0,0,0,0,0-0.01c0,0,0,0,0-0.01c0,0,0-0.01,0.01-0.01c0,0,0,0,0-0.01c0,0,0,0,0-0.01c0,0,0,0,0-0.01c0,0,0,0,0,0 c0,0,0-0.01,0.01-0.01c0,0,0,0,0,0c0,0,0-0.01,0.01-0.01c0,0,0,0,0,0c0,0,0,0,0.01-0.01c0,0,0,0,0,0c0,0,0,0,0.01-0.01c0,0,0,0,0,0 c0,0,0.01-0.01,0.01-0.01c0,0,0,0,0,0c0,0,0,0,0.01-0.01c0,0,0,0,0,0c0,0,0,0,0.01-0.01c0,0,0,0,0,0c0,0,0.01-0.01,0.01-0.01 c0,0,0,0,0,0c0,0,0-0.01,0.01-0.01c0,0,0,0,0,0c0,0,0-0.01,0.01-0.01c0,0,0,0,0,0c0,0,0.01-0.01,0.01-0.01c0,0,0,0,0,0 c0,0,0-0.01,0.01-0.01c0,0,0,0,0,0c0,0,0-0.01,0.01-0.01c0,0,0,0,0,0c0.01-0.01,0.01-0.02,0.02-0.02c0,0,0,0,0,0 c0,0,0-0.01,0.01-0.01c0,0,0,0,0,0c0.01-0.01,0.01-0.02,0.02-0.02c0,0,0,0,0,0c0,0,0.01-0.01,0.01-0.01c0,0,0,0,0,0 c0.01-0.01,0.01-0.02,0.02-0.02c0,0,0,0,0,0c0,0,0.01-0.01,0.01-0.01c0,0,0,0,0,0c0.01-0.01,0.02-0.02,0.03-0.04c0,0,0,0,0,0 c0.01-0.01,0.02-0.02,0.03-0.04c0,0,0,0,0,0c0.01-0.01,0.02-0.02,0.03-0.04l0,0c0.21-0.27,0.42-0.54,0.63-0.82L43.56,38.58 L43.56,38.58z M47.73,28.47c-0.17,1.13-0.44,2.27-0.78,3.37c-0.2,0.66-0.44,1.31-0.7,1.94l1.85,0.76c0,0,0-0.01,0-0.01c0,0,0,0,0,0 c0,0,0-0.01,0.01-0.01c0,0,0,0,0,0c0,0,0-0.01,0.01-0.01c0,0,0,0,0,0c0,0,0-0.01,0-0.01c0,0,0,0,0,0c0,0,0-0.01,0-0.01c0,0,0,0,0,0 c0,0,0-0.01,0-0.01c0,0,0,0,0,0c0,0,0-0.01,0-0.01c0,0,0,0,0,0c0,0,0-0.01,0.01-0.01c0,0,0,0,0,0c0.01-0.03,0.02-0.06,0.03-0.09 c0,0,0,0,0,0c0,0,0-0.01,0-0.01c0,0,0,0,0,0c0,0,0-0.01,0-0.01c0,0,0,0,0,0c0,0,0-0.01,0-0.01c0,0,0,0,0,0c0,0,0-0.01,0-0.01 c0,0,0,0,0,0c0,0,0-0.01,0-0.01c0,0,0,0,0,0c0,0,0-0.01,0-0.01c0,0,0,0,0-0.01c0,0,0-0.01,0-0.01c0,0,0,0,0,0c0,0,0-0.01,0-0.01 c0,0,0,0,0,0c0,0,0-0.01,0-0.01c0,0,0,0,0,0c0.01-0.02,0.01-0.04,0.02-0.06c0,0,0,0,0,0c0,0,0-0.01,0-0.01c0,0,0,0,0,0 c0,0,0-0.01,0-0.01c0,0,0,0,0-0.01c0,0,0-0.01,0-0.01c0,0,0,0,0-0.01c0,0,0-0.01,0-0.01c0,0,0,0,0-0.01c0,0,0-0.01,0-0.01 c0,0,0,0,0-0.01c0,0,0-0.01,0-0.01c0,0,0,0,0-0.01c0,0,0-0.01,0-0.01c0,0,0,0,0-0.01c0,0,0-0.01,0-0.01c0,0,0,0,0-0.01 c0,0,0-0.01,0-0.01c0,0,0,0,0-0.01c0,0,0-0.01,0-0.01c0,0,0,0,0-0.01c0,0,0-0.01,0-0.01c0,0,0,0,0,0c0-0.01,0.01-0.02,0.01-0.02 c0,0,0,0,0,0c0,0,0-0.01,0-0.01c0,0,0,0,0-0.01c0,0,0,0,0-0.01c0,0,0-0.01,0-0.01c0,0,0-0.01,0-0.01c0,0,0-0.01,0-0.01 c0,0,0-0.01,0-0.01c0,0,0-0.01,0-0.01c0,0,0,0,0-0.01c0,0,0-0.01,0-0.01c0,0,0-0.01,0-0.01c0,0,0-0.01,0-0.01c0,0,0-0.01,0-0.01 c0,0,0-0.01,0-0.01c0,0,0-0.01,0-0.01c0,0,0-0.01,0-0.01c0,0,0-0.01,0-0.01c0,0,0-0.01,0-0.01c0,0,0,0,0-0.01c0,0,0-0.01,0-0.01 c0,0,0,0,0-0.01c0,0,0-0.01,0-0.01c0,0,0,0,0-0.01c0,0,0-0.01,0-0.01c0,0,0,0,0-0.01c0-0.01,0-0.01,0.01-0.02c0,0,0,0,0,0 c0,0,0-0.01,0-0.01c0,0,0,0,0-0.01c0,0,0-0.01,0-0.01c0,0,0,0,0-0.01c0,0,0-0.01,0-0.01c0,0,0,0,0-0.01c0,0,0-0.01,0-0.01 c0,0,0,0,0-0.01c0,0,0-0.01,0-0.01c0,0,0,0,0-0.01c0,0,0-0.01,0-0.01c0,0,0,0,0-0.01c0,0,0-0.01,0-0.01c0,0,0,0,0-0.01 c0,0,0-0.01,0-0.01c0,0,0,0,0-0.01c0,0,0-0.01,0-0.01c0,0,0,0,0-0.01c0,0,0-0.01,0-0.01c0,0,0,0,0-0.01c0,0,0-0.01,0-0.01 c0,0,0,0,0,0c0,0,0-0.01,0.01-0.01c0,0,0,0,0,0c0-0.01,0-0.01,0.01-0.02c0,0,0,0,0,0c0,0,0-0.01,0.01-0.01c0,0,0,0,0,0 c0,0,0-0.01,0-0.01c0,0,0,0,0-0.01c0,0,0-0.01,0-0.01c0,0,0,0,0-0.01c0,0,0-0.01,0-0.01c0,0,0,0,0-0.01c0,0,0-0.01,0-0.01 c0,0,0,0,0-0.01c0,0,0-0.01,0-0.01c0,0,0,0,0-0.01c0,0,0-0.01,0-0.01c0,0,0,0,0-0.01c0,0,0-0.01,0-0.01c0,0,0,0,0-0.01 c0,0,0-0.01,0-0.01c0,0,0,0,0,0c0,0,0-0.01,0-0.01c0,0,0,0,0,0c0,0,0-0.01,0-0.01c0,0,0,0,0,0c0.01-0.02,0.01-0.03,0.02-0.05l0,0 c0,0,0-0.01,0.01-0.01c0,0,0,0,0,0c0,0,0-0.01,0-0.01c0,0,0,0,0,0c0,0,0-0.01,0-0.01c0,0,0,0,0-0.01c0,0,0-0.01,0-0.01 c0,0,0,0,0-0.01c0,0,0-0.01,0-0.01c0,0,0,0,0-0.01c0,0,0-0.01,0-0.01c0,0,0,0,0,0c0,0,0-0.01,0-0.01c0,0,0,0,0,0c0,0,0-0.01,0-0.01 c0,0,0,0,0,0c0,0,0-0.01,0-0.01c0,0,0,0,0,0c0,0,0-0.01,0-0.01c0,0,0,0,0,0c0.01-0.02,0.01-0.03,0.02-0.05l0,0 c0,0,0-0.01,0.01-0.01c0,0,0,0,0,0c0,0,0-0.01,0-0.01c0,0,0,0,0,0c0,0,0-0.01,0-0.01c0,0,0,0,0,0c0,0,0-0.01,0-0.01c0,0,0,0,0,0 c0,0,0-0.01,0-0.01c0,0,0,0,0-0.01c0,0,0-0.01,0-0.01c0,0,0,0,0-0.01c0,0,0-0.01,0-0.01c0,0,0,0,0,0c0,0,0-0.01,0-0.01c0,0,0,0,0,0 c0,0,0-0.01,0-0.01c0,0,0,0,0,0c0,0,0-0.01,0-0.01c0,0,0,0,0,0c0-0.01,0-0.01,0.01-0.02l0,0c0-0.01,0.01-0.02,0.01-0.03 c0,0,0,0,0,0c0,0,0-0.01,0-0.01c0,0,0,0,0,0c0,0,0-0.01,0-0.01c0,0,0,0,0,0c0,0,0-0.01,0-0.01c0,0,0,0,0,0c0,0,0-0.01,0-0.01 c0,0,0,0,0-0.01c0,0,0-0.01,0-0.01c0,0,0,0,0-0.01c0,0,0-0.01,0-0.01c0,0,0,0,0-0.01c0,0,0-0.01,0-0.01c0,0,0,0,0-0.01 c0,0,0-0.01,0-0.01c0,0,0,0,0-0.01c0,0,0-0.01,0-0.01c0,0,0,0,0-0.01c0,0,0-0.01,0-0.01c0,0,0,0,0,0c0-0.01,0-0.01,0.01-0.02l0,0 c0-0.01,0.01-0.02,0.01-0.03c0,0,0,0,0,0c0,0,0-0.01,0-0.01c0,0,0,0,0,0c0,0,0-0.01,0-0.01c0,0,0,0,0-0.01c0,0,0-0.01,0-0.01 c0,0,0,0,0-0.01c0,0,0-0.01,0-0.01c0,0,0,0,0-0.01c0,0,0-0.01,0-0.01c0,0,0,0,0-0.01c0,0,0-0.01,0-0.01c0,0,0,0,0-0.01 c0,0,0-0.01,0-0.01c0,0,0,0,0-0.01c0,0,0-0.01,0-0.01c0,0,0,0,0-0.01c0,0,0-0.01,0-0.01c0,0,0,0,0-0.01c0,0,0-0.01,0-0.01 c0,0,0,0,0-0.01c0,0,0-0.01,0-0.01c0,0,0,0,0,0c0-0.01,0-0.01,0.01-0.02c0,0,0-0.01,0-0.01c0,0,0,0,0,0c0,0,0-0.01,0-0.01l0,0 c0,0,0-0.01,0-0.01c0,0,0,0,0,0c0,0,0-0.01,0-0.01l0,0c0,0,0-0.01,0-0.01c0,0,0,0,0,0c0-0.01,0.01-0.02,0.01-0.03l0,0 c0.36-1.16,0.62-2.32,0.81-3.49l0,0c0-0.01,0-0.02,0-0.03c0,0,0,0,0,0c0-0.01,0-0.02,0-0.03c0,0,0,0,0,0c0,0,0-0.01,0-0.01l0,0 L47.73,28.47L47.73,28.47z M48.66,16.93l-1.89,0.65c0.6,1.74,0.98,3.56,1.14,5.39l1.99-0.18c-0.03-0.29-0.06-0.58-0.09-0.86 c0,0,0,0,0,0c0,0,0-0.01,0-0.01c0,0,0,0,0,0c0-0.01,0-0.02,0-0.04c0,0,0,0,0,0c0,0,0-0.01,0-0.01c0,0,0,0,0,0c0-0.01,0-0.02,0-0.04 c0,0,0,0,0,0c0,0,0-0.01,0-0.01c0,0,0,0,0,0c0,0,0-0.01,0-0.01c0,0,0,0,0,0c0-0.01,0-0.02,0-0.02c0,0,0,0,0,0c0,0,0,0,0-0.01 c0,0,0,0,0,0c0,0,0,0,0-0.01c0,0,0,0,0,0c0-0.01,0-0.02,0-0.02c0,0,0,0,0,0c0,0,0,0,0-0.01c0,0,0,0,0,0c0,0,0,0,0-0.01c0,0,0,0,0,0 c0,0,0,0,0-0.01c0,0,0,0,0,0c0,0,0-0.01,0-0.01c0,0,0,0,0,0c0,0,0,0,0-0.01c0,0,0,0,0,0c0,0,0,0,0-0.01c0,0,0,0,0,0c0,0,0,0,0-0.01 c0,0,0,0,0,0c0,0,0-0.01,0-0.01c0,0,0,0,0-0.01c0,0,0,0,0-0.01c0,0,0,0,0-0.01c0,0,0,0,0-0.01c0,0,0,0,0-0.01c0,0,0,0,0-0.01 c0,0,0,0,0-0.01c0,0,0,0,0-0.01c0,0,0,0,0-0.01c0,0,0,0,0,0c0,0,0,0,0-0.01c0,0,0,0,0,0c0,0,0,0,0-0.01c0,0,0,0,0,0c0,0,0,0,0-0.01 c0,0,0,0,0,0c0,0,0-0.01,0-0.01c0,0,0,0,0,0c0,0,0,0,0-0.01c0,0,0,0,0,0c0,0,0,0,0-0.01c0,0,0,0,0,0c0,0,0-0.01,0-0.01c0,0,0,0,0,0 c0,0,0-0.01,0-0.01c0,0,0,0,0,0c0,0,0-0.01,0-0.01c0,0,0,0,0,0c0,0,0,0,0-0.01c0,0,0,0,0,0c0,0,0-0.01,0-0.01c0,0,0,0,0,0 c0,0,0-0.01,0-0.01c0,0,0,0,0,0c0,0,0-0.01,0-0.01c0,0,0,0,0,0c0,0,0-0.01,0-0.01c0,0,0,0,0,0c0,0,0-0.01,0-0.01c0,0,0,0,0,0 c0,0,0-0.01,0-0.01c0,0,0,0,0,0c0,0,0-0.01,0-0.01c0,0,0,0,0,0c0,0,0-0.01,0-0.01c0,0,0,0,0,0c0,0,0-0.01,0-0.01l0,0 c0-0.01,0-0.01,0-0.02l0,0c0,0,0-0.01,0-0.01c0,0,0,0,0,0c0,0,0-0.01,0-0.01l0,0c0-0.01,0-0.01,0-0.02c0,0,0,0,0,0 c0,0,0-0.01,0-0.01c0,0,0,0,0,0c0,0,0-0.01,0-0.01c0,0,0,0,0,0c0-0.01,0-0.01,0-0.02l0,0c0,0,0-0.01,0-0.01c0,0,0,0,0,0 c0,0,0-0.01,0-0.01c0,0,0,0,0,0c0-0.01,0-0.01,0-0.02l0,0c0,0,0-0.01,0-0.01c0,0,0,0,0,0c0,0,0-0.01,0-0.01c0,0,0,0,0,0 c0-0.01,0-0.02-0.01-0.03c0,0,0,0,0,0c0,0,0-0.01,0-0.01c0,0,0,0,0,0c0-0.01,0-0.02-0.01-0.03c0,0,0,0,0,0c0,0,0-0.01,0-0.01 c0,0,0,0,0,0c0-0.01,0-0.02-0.01-0.03l0,0c0,0,0-0.01,0-0.01l0,0c0,0,0-0.01,0-0.01l0,0c0-0.01,0-0.02,0-0.02l0,0 c0,0,0-0.01,0-0.01l0,0c0,0,0-0.01,0-0.01l0,0c0-0.01,0-0.02,0-0.02l0,0c0,0,0-0.01,0-0.01l0,0c0,0,0-0.01,0-0.01l0,0 c0-0.01,0-0.02,0-0.02l0,0c0,0,0-0.01,0-0.01l0,0c0,0,0-0.01,0-0.01c0,0,0,0,0,0c0-0.01,0-0.02-0.01-0.03c0,0,0,0,0,0 c0,0,0-0.01,0-0.01c0,0,0,0,0,0c0-0.01,0-0.02-0.01-0.03c0,0,0,0,0,0c0,0,0-0.01,0-0.01c0,0,0,0,0,0c0-0.02-0.01-0.03-0.01-0.05 l0,0c0-0.01,0-0.02-0.01-0.03l0,0c0,0,0-0.01,0-0.01l0,0c0-0.02-0.01-0.03-0.01-0.05l0,0c0,0,0-0.01,0-0.01l0,0 c0-0.01,0-0.02-0.01-0.03l0,0c0,0,0-0.01,0-0.01l0,0c0-0.01,0-0.02-0.01-0.03c0,0,0,0,0,0c0,0,0-0.01,0-0.01c0,0,0,0,0,0 c0-0.01,0-0.02-0.01-0.03c0,0,0,0,0,0c0,0,0-0.01,0-0.01c0,0,0,0,0,0c0-0.01,0-0.02-0.01-0.03c0,0,0,0,0,0c0,0,0-0.01,0-0.01 c0,0,0,0,0,0c0-0.01,0-0.02-0.01-0.03l0,0c0,0,0-0.01,0-0.01l0,0c0-0.01,0-0.02-0.01-0.03l0,0c0,0,0-0.01,0-0.01l0,0 c0,0,0-0.01,0-0.01l0,0c0-0.01,0-0.02,0-0.02l0,0c0,0,0-0.01,0-0.01l0,0c0,0,0-0.01,0-0.01l0,0c0-0.01,0-0.02-0.01-0.03l0,0 c0,0,0-0.01,0-0.01c0,0,0,0,0,0c0-0.01,0-0.02-0.01-0.03c0,0,0,0,0,0c0,0,0-0.01,0-0.01c0,0,0,0,0,0c0-0.01,0-0.02-0.01-0.03 c0,0,0,0,0,0c0,0,0-0.01,0-0.01c0,0,0,0,0,0c0-0.01,0-0.02-0.01-0.03c0,0,0,0,0,0c0,0,0-0.01,0-0.01c0,0,0,0,0,0 c0-0.01,0-0.02-0.01-0.03c0,0,0,0,0,0c0,0,0-0.01,0-0.01c0,0,0,0,0,0c0,0,0-0.01,0-0.01l0,0c0-0.01,0-0.01,0-0.02l0,0 c0,0,0-0.01,0-0.01c0,0,0,0,0,0c0,0,0-0.01,0-0.01c0,0,0,0,0,0c0-0.01,0-0.01,0-0.02l0,0c0,0,0-0.01,0-0.01c0,0,0,0,0,0 c0,0,0-0.01,0-0.01c0,0,0,0,0,0c0-0.01,0-0.01,0-0.02l0,0c0,0,0-0.01,0-0.01c0,0,0,0,0,0c0,0,0-0.01,0-0.01c0,0,0,0,0,0 c0,0,0-0.01,0-0.01c0,0,0,0,0,0c0,0,0-0.01,0-0.01c0,0,0,0,0,0c0,0,0-0.01,0-0.01c0,0,0,0,0,0c0,0,0-0.01,0-0.01c0,0,0,0,0,0 c0,0,0-0.01,0-0.01c0,0,0,0,0,0c0,0,0-0.01,0-0.01c0,0,0,0,0,0c0,0,0-0.01,0-0.01c0,0,0,0,0,0c0,0,0-0.01,0-0.01c0,0,0,0,0,0 c0,0,0-0.01,0-0.01c0,0,0,0,0,0c0,0,0-0.01,0-0.01l0,0c0,0,0-0.01,0-0.01c0,0,0,0,0,0c0,0,0,0,0-0.01c0,0,0,0,0,0 c0,0,0-0.01,0-0.01c0,0,0,0,0,0c0,0,0-0.01,0-0.01c0,0,0,0,0,0c0,0,0-0.01,0-0.01c0,0,0,0,0,0c0,0,0,0,0-0.01c0,0,0,0,0,0 c0,0,0-0.01,0-0.01c0,0,0,0,0,0c0-0.01,0-0.01,0-0.02c0,0,0,0,0,0c0,0,0,0,0-0.01c0,0,0,0,0,0c0,0,0,0,0-0.01c0,0,0,0,0,0 c0,0,0-0.01,0-0.01l0,0c0,0,0-0.01,0-0.01c0,0,0,0,0,0c0,0,0,0,0-0.01c0,0,0,0,0,0c0,0,0,0,0-0.01c0,0,0,0,0,0c0,0,0-0.01,0-0.01 c0,0,0,0,0,0c0,0,0-0.01,0-0.01c0,0,0,0,0,0c0,0,0,0,0-0.01c0,0,0,0,0,0c0,0,0,0,0-0.01c0,0,0,0,0,0c0,0,0-0.01,0-0.01c0,0,0,0,0,0 c0,0,0-0.01,0-0.01c0,0,0,0,0,0c0,0,0-0.01,0-0.01c0,0,0,0,0,0c0,0,0,0,0-0.01c0,0,0,0,0,0c0,0,0,0,0-0.01c0,0,0,0,0,0 c0,0,0-0.01,0-0.01c0,0,0,0,0,0c0,0,0,0,0-0.01c0,0,0,0,0,0c0,0,0,0,0-0.01c0,0,0,0,0,0c0,0,0,0,0-0.01c0,0,0,0,0,0 c0,0,0-0.01,0-0.01c0,0,0,0,0,0c0,0,0,0,0-0.01c0,0,0,0,0,0c0,0,0,0,0-0.01c0,0,0,0,0-0.01c0,0,0,0,0-0.01c0,0,0,0,0,0 c0,0,0,0,0-0.01c0,0,0-0.01,0-0.01c0,0,0,0,0-0.01c0,0,0,0,0,0c0,0,0,0,0-0.01c0,0,0,0,0,0c0,0,0,0,0-0.01c0,0,0,0,0,0 c0,0,0,0,0-0.01c0,0,0-0.01,0-0.01c0,0,0,0,0-0.01c0,0,0,0,0,0c0,0,0,0,0-0.01c0,0,0,0,0,0c0,0,0,0,0-0.01c0,0,0,0,0,0 c0,0,0,0,0-0.01c0,0,0-0.01,0-0.01c0,0,0,0,0-0.01c0,0,0,0,0,0c0,0,0,0,0-0.01c0,0,0,0,0,0c0,0,0,0,0-0.01c0,0,0,0,0-0.01 c0,0,0,0,0-0.01c0,0,0,0,0-0.01c0,0,0-0.01,0-0.01c0,0,0,0,0,0c0,0,0,0,0-0.01c0,0,0,0,0,0c0,0,0,0,0-0.01c0,0,0,0,0,0 c0,0,0,0,0-0.01c0,0,0,0,0,0c0,0,0-0.01,0-0.01c0,0,0,0,0,0c0,0,0,0,0-0.01c0,0,0,0,0-0.01c0,0,0,0,0-0.01c0,0,0,0,0-0.01 c0,0,0,0,0,0c0,0,0,0,0-0.01c0,0,0,0,0,0c0,0,0-0.01,0-0.01c0,0,0,0,0,0c0,0,0,0,0-0.01c0,0,0,0,0,0c0,0,0,0,0-0.01c0,0,0,0,0,0 c0-0.01,0-0.01-0.01-0.02c0,0,0,0,0,0c0,0,0,0,0-0.01c0,0,0,0,0,0c0,0,0,0,0-0.01c0,0,0,0,0,0c0,0,0,0,0-0.01c0,0,0,0,0,0 c0,0,0-0.01,0-0.01c0,0,0,0,0,0c0,0,0,0,0-0.01c0,0,0,0,0,0c0,0,0,0,0-0.01c0,0,0,0,0,0c0,0,0,0,0-0.01c0,0,0,0,0,0 c0,0,0-0.01,0-0.01c0,0,0,0,0,0c0,0,0,0,0-0.01c0,0,0,0,0,0c0,0,0,0,0-0.01c0,0,0,0,0,0c0,0,0,0,0-0.01c0,0,0,0,0,0 c0,0,0-0.01,0-0.01c0,0,0,0,0,0c0,0,0,0,0-0.01c0,0,0,0,0,0c0,0,0,0,0-0.01c0,0,0,0,0,0c0,0,0,0,0-0.01c0,0,0,0,0-0.01c0,0,0,0,0,0 c0,0,0-0.01,0-0.01c0,0,0,0,0-0.01c0,0,0,0,0,0c0,0,0,0,0-0.01c0,0,0,0,0,0c0,0,0,0,0-0.01c0,0,0,0,0,0c0-0.01,0-0.01-0.01-0.02 c0,0,0,0,0,0c0,0,0,0,0-0.01c0,0,0,0,0,0c0,0,0,0,0-0.01c0,0,0,0,0,0c0,0,0,0,0-0.01c0,0,0,0,0,0c0-0.01,0-0.01,0-0.01c0,0,0,0,0,0 c0,0,0,0,0-0.01c0,0,0,0,0,0c0,0,0,0,0-0.01c0,0,0,0,0,0c0,0,0,0,0-0.01c0,0,0,0,0,0c0-0.01,0-0.01,0-0.02c0,0,0,0,0,0 c0,0,0,0,0-0.01c0,0,0,0,0,0c0,0,0,0,0-0.01c0,0,0,0,0,0c0,0,0-0.01,0-0.01c0,0,0,0,0,0c0-0.01,0-0.01,0-0.02c0,0,0,0,0,0 c0,0,0,0,0-0.01c0,0,0,0,0,0c0,0,0,0,0-0.01c0,0,0,0,0,0c0,0,0,0,0-0.01c0,0,0,0,0,0c0-0.01,0-0.01,0-0.02c0,0,0,0,0,0 c0,0,0,0,0-0.01c0,0,0,0,0,0c0,0,0,0,0-0.01c0,0,0,0,0,0c0,0,0,0,0-0.01c0,0,0,0,0,0c0-0.01,0-0.01,0-0.02c0,0,0,0,0,0 c0,0,0,0,0-0.01c0,0,0,0,0,0c0,0,0,0,0-0.01c0,0,0,0,0,0c0,0,0,0,0-0.01c0,0,0,0,0,0c0-0.01,0-0.02-0.01-0.02c0,0,0,0,0,0 c0,0,0,0,0-0.01c0,0,0,0,0,0c0,0,0,0,0-0.01c0,0,0,0,0,0c0-0.01,0-0.02-0.01-0.02c0,0,0,0,0,0c0,0,0-0.01,0-0.01c0,0,0,0,0,0 c0,0,0,0,0-0.01c0,0,0,0,0,0c0-0.01,0-0.02-0.01-0.02c0,0,0,0,0,0c0,0,0,0,0-0.01c0,0,0,0,0,0c0,0,0,0,0-0.01c0,0,0,0,0,0 c0-0.01-0.01-0.02-0.01-0.03c0,0,0,0,0,0c0,0,0,0,0-0.01c0,0,0,0,0,0c0,0,0-0.01,0-0.01c0,0,0,0,0,0c0-0.01,0-0.02-0.01-0.02 c0,0,0,0,0,0c0,0,0,0,0-0.01c0,0,0,0,0,0c0,0,0,0,0-0.01c0,0,0,0,0,0c0-0.01,0-0.02-0.01-0.02c0,0,0,0,0,0c0,0,0,0,0-0.01 c0,0,0,0,0,0c0,0,0,0,0-0.01c0,0,0,0,0,0c0-0.01,0-0.02-0.01-0.02c0,0,0,0,0,0c0,0,0-0.01,0-0.01c0,0,0,0,0,0c0,0,0-0.01,0-0.01 c0,0,0,0,0,0c0-0.01,0-0.02-0.01-0.02c0,0,0,0,0,0c0,0,0-0.01,0-0.01c0,0,0,0,0,0c0,0,0,0,0-0.01c0,0,0,0,0,0 c0-0.01,0-0.02-0.01-0.02c0,0,0,0,0,0c0,0,0,0,0-0.01c0,0,0,0,0,0c0,0,0,0,0-0.01c0,0,0,0,0,0c0-0.01,0-0.02-0.01-0.02c0,0,0,0,0,0 c0,0,0-0.01,0-0.01c0,0,0,0,0,0c0,0,0,0,0-0.01c0,0,0,0,0,0c0-0.01-0.01-0.02-0.01-0.03c0,0,0,0,0,0c0,0,0,0,0-0.01c0,0,0,0,0,0 c0,0,0-0.01,0-0.01c0,0,0,0,0,0c0,0,0-0.01,0-0.02c0,0,0,0,0,0c0,0,0,0,0-0.01c0,0,0,0,0,0c0,0,0,0,0-0.01c0,0,0,0,0,0 c0,0,0,0,0-0.01c0,0,0,0,0,0c0-0.01,0-0.02-0.01-0.02c0,0,0,0,0,0c0,0,0,0,0-0.01c0,0,0,0,0,0c0,0,0,0,0-0.01c0,0,0,0,0,0 c0-0.01,0-0.01,0-0.02c0,0,0,0,0,0c0,0,0,0,0-0.01c0,0,0,0,0,0c0,0,0,0,0-0.01c0,0,0,0,0,0c0,0,0,0,0-0.01c0,0,0,0,0,0 c0-0.01,0-0.02-0.01-0.02c0,0,0,0,0,0c0,0,0,0,0-0.01c0,0,0,0,0,0c0,0,0,0,0-0.01c0,0,0,0,0,0c0-0.01,0-0.01-0.01-0.02c0,0,0,0,0,0 c0,0,0,0,0-0.01c0,0,0,0,0,0c0,0,0,0,0-0.01c0,0,0,0,0,0c0,0,0,0,0-0.01c0,0,0,0,0,0c0,0,0-0.01,0-0.01c0,0,0,0,0,0c0,0,0,0,0-0.01 c0,0,0,0,0,0c0,0,0,0,0-0.01c0,0,0,0,0,0c0,0,0,0,0-0.01c0,0,0,0,0-0.01c0,0,0,0,0-0.01c0,0,0,0,0-0.01c0,0,0,0,0,0c0,0,0,0,0-0.01 c0,0,0,0,0,0c0,0,0,0,0-0.01c0,0,0,0,0,0c0,0,0,0,0-0.01c0,0,0,0,0-0.01c0,0,0,0,0-0.01c0,0,0,0,0-0.01c0,0,0,0,0,0c0,0,0,0,0-0.01 c0,0,0,0,0-0.01c0,0,0,0,0-0.01c0,0,0,0,0,0c0,0,0,0,0,0c0,0,0-0.01,0-0.01c0,0,0,0,0,0c0,0,0,0,0-0.01c0,0,0,0,0-0.01c0,0,0,0,0,0 c0,0,0,0,0-0.01c0,0,0,0,0,0c0,0,0-0.01,0-0.01c0,0,0,0,0-0.01c0,0,0,0,0-0.01c0,0,0,0,0,0c0,0,0,0,0-0.01c0,0,0,0,0,0 c0,0,0,0,0-0.01c0,0,0,0,0-0.01c0,0,0,0,0,0c0,0,0-0.01,0-0.01c0,0,0,0,0-0.01c0,0,0,0,0,0c0,0,0,0,0-0.01c0,0,0,0,0,0 c0,0,0,0,0-0.01c0,0,0,0,0,0c0,0,0,0,0-0.01c0,0,0,0,0,0c0-0.01,0-0.01,0-0.01c0,0,0,0,0,0c0,0,0,0,0-0.01c0,0,0,0,0,0 c0,0,0,0,0-0.01c0,0,0,0,0,0c0,0,0,0,0,0c0,0,0,0,0-0.01c0,0,0-0.01,0-0.01c0,0,0,0,0-0.01c0,0,0,0,0-0.01c0,0,0,0,0,0 c0,0,0,0,0-0.01c0,0,0,0,0-0.01c0,0,0,0,0,0c0,0,0-0.01,0-0.01c0,0,0,0,0,0c0,0,0-0.01,0-0.01c0,0,0,0,0,0c0,0,0,0,0-0.01 c0,0,0,0,0,0c0,0,0,0,0-0.01c0,0,0,0,0,0c0,0,0-0.01,0-0.01c0,0,0,0,0,0c0,0,0-0.01,0-0.01c0,0,0,0,0,0c0,0,0,0,0-0.01c0,0,0,0,0,0 c0,0,0,0,0-0.01c0,0,0,0,0,0c0,0,0,0,0-0.01c0,0,0,0,0,0c0,0,0-0.01,0-0.01c0,0,0,0,0,0c0,0,0,0,0-0.01c0,0,0,0,0,0c0,0,0,0,0-0.01 c0,0,0,0,0,0c0,0,0,0,0-0.01c0,0,0,0,0,0c0,0,0-0.01,0-0.01c0,0,0,0,0,0c0,0,0-0.01,0-0.01c0,0,0,0,0,0c0,0,0,0,0-0.01c0,0,0,0,0,0 c0,0,0-0.01,0-0.01c0,0,0,0,0,0c0,0,0-0.01,0-0.01c0,0,0,0,0,0c0,0,0-0.01,0-0.01c0,0,0,0,0,0c0,0,0,0,0-0.01c0,0,0,0,0,0 c0,0,0-0.01,0-0.01c0,0,0,0,0,0c0,0,0-0.01,0-0.01l0,0c0,0,0-0.01,0-0.01c0,0,0,0,0,0c0,0,0,0,0-0.01c0,0,0,0,0,0 c0,0,0-0.01,0-0.01c0,0,0,0,0,0c0-0.01,0-0.01-0.01-0.02l0,0c0,0,0-0.01,0-0.01l0,0c0,0,0-0.01,0-0.01c0,0,0,0,0,0 c0-0.01,0-0.01-0.01-0.02l0,0c0,0,0-0.01,0-0.01c0,0,0,0,0,0c0,0,0-0.01,0-0.01c0,0,0,0,0,0c0-0.01-0.01-0.02-0.01-0.03 c0,0,0,0,0,0c0,0,0-0.01,0-0.01c0,0,0,0,0,0c0-0.01-0.01-0.02-0.01-0.03c0,0,0,0,0,0c0,0,0-0.01,0-0.01c0,0,0,0,0,0 c0-0.01-0.01-0.02-0.01-0.03c0,0,0,0,0,0c0,0,0-0.01,0-0.01l0,0c0-0.01-0.01-0.03-0.01-0.04l0,0c0-0.01-0.01-0.03-0.01-0.04l0,0 C48.66,16.95,48.66,16.94,48.66,16.93L48.66,16.93z M42.26,6.92l-1.38,1.45c1.33,1.27,2.5,2.7,3.5,4.25l1.69-1.08 c-1.04-1.63-2.27-3.14-3.66-4.49l0,0c-0.01-0.01-0.02-0.02-0.03-0.03l0,0C42.35,7,42.34,7,42.34,6.99l0,0c0,0-0.01,0-0.01-0.01 c0,0,0,0,0,0c-0.01-0.01-0.02-0.02-0.02-0.02l0,0c0,0,0,0-0.01-0.01c0,0,0,0,0,0c0,0,0,0-0.01-0.01l0,0 C42.28,6.93,42.27,6.93,42.26,6.92L42.26,6.92C42.26,6.92,42.26,6.92,42.26,6.92L42.26,6.92L42.26,6.92z M31.95,0.99L31.4,2.91 c0.15,0.04,0.29,0.09,0.44,0.13c1.62,0.5,3.18,1.18,4.64,2.02l1-1.73c-1.51-0.86-3.12-1.58-4.84-2.13c0,0,0,0,0,0 c0,0-0.01,0-0.01,0c0,0,0,0,0,0c0,0-0.01,0-0.01,0c0,0,0,0,0,0c0,0-0.01,0-0.01,0c0,0,0,0,0,0c0,0-0.01,0-0.01,0c0,0,0,0,0,0 c0,0-0.01,0-0.01,0c0,0,0,0,0,0c-0.02,0-0.03-0.01-0.05-0.01c0,0,0,0,0,0c0,0,0,0-0.01,0c0,0,0,0,0,0c0,0,0,0-0.01,0c0,0,0,0,0,0 c0,0,0,0-0.01,0c0,0,0,0,0,0c0,0,0,0-0.01,0c0,0,0,0,0,0c0,0,0,0-0.01,0c0,0,0,0,0,0c0,0,0,0-0.01,0c0,0,0,0,0,0c0,0,0,0-0.01,0 c0,0,0,0,0,0c0,0,0,0-0.01,0c0,0,0,0-0.01,0c0,0,0,0-0.01,0c0,0-0.01,0-0.01,0l0,0c-0.09-0.03-0.17-0.05-0.26-0.08c0,0,0,0,0,0 c0,0-0.01,0-0.01,0c0,0,0,0,0,0c0,0-0.01,0-0.01,0c0,0,0,0-0.01,0c0,0-0.01,0-0.01,0c0,0-0.01,0-0.01,0c0,0,0,0-0.01,0 c0,0-0.01,0-0.01,0c0,0,0,0,0,0c0,0-0.01,0-0.01,0l0,0C32.04,1.02,32,1.01,31.95,0.99L31.95,0.99z M24.99,0v2 c0.32,0,0.65,0.01,0.97,0.02l0.09-2c-0.01,0-0.02,0-0.03,0c0,0,0,0,0,0c0,0-0.01,0-0.01,0c0,0,0,0-0.01,0c0,0-0.01,0-0.01,0 c0,0,0,0-0.01,0c0,0-0.01,0-0.01,0c0,0-0.01,0-0.01,0c0,0,0,0-0.01,0c0,0-0.01,0-0.01,0c0,0,0,0-0.01,0c0,0-0.01,0-0.01,0 c0,0,0,0,0,0c-0.01,0-0.02,0-0.03,0c0,0,0,0,0,0c0,0-0.01,0-0.01,0c0,0,0,0,0,0c0,0-0.01,0-0.01,0c0,0,0,0,0,0c0,0-0.01,0-0.01,0 c0,0,0,0,0,0C25.7,0.01,25.55,0.01,25.4,0c0,0,0,0,0,0c-0.01,0-0.01,0-0.02,0c0,0,0,0,0,0c-0.01,0-0.01,0-0.02,0c0,0,0,0,0,0 c-0.02,0-0.04,0-0.07,0c0,0,0,0,0,0c0,0-0.01,0-0.01,0c0,0,0,0,0,0c0,0-0.01,0-0.01,0c0,0,0,0,0,0c0,0-0.01,0-0.01,0c0,0,0,0,0,0 c0,0-0.01,0-0.01,0c0,0,0,0,0,0c-0.01,0-0.02,0-0.03,0c0,0,0,0,0,0c0,0-0.01,0-0.01,0c0,0,0,0,0,0c0,0-0.01,0-0.01,0 c0,0,0,0-0.01,0c0,0-0.01,0-0.01,0c0,0,0,0-0.01,0c0,0-0.01,0-0.01,0c0,0,0,0-0.01,0c0,0-0.01,0-0.01,0c0,0,0,0,0,0 c-0.01,0-0.02,0-0.03,0c0,0,0,0-0.01,0c0,0-0.01,0-0.01,0c0,0,0,0-0.01,0c0,0-0.01,0-0.01,0c0,0,0,0-0.01,0c0,0-0.01,0-0.01,0 c0,0,0,0-0.01,0c0,0-0.01,0-0.01,0c0,0,0,0-0.01,0c0,0-0.01,0-0.01,0c0,0,0,0,0,0C25,0,25,0,24.99,0L24.99,0L24.99,0z" class="st4"/></g></svg>