<?xml version="1.0" encoding="utf-8"?>
<!-- Generator: Adobe Illustrator 23.0.1, SVG Export Plug-In . SVG Version: 6.00 Build 0)  -->
<svg version="1.1" id="Layer_1" xmlns="http://www.w3.org/2000/svg" xmlns:xlink="http://www.w3.org/1999/xlink" x="0px" y="0px"
	 viewBox="0 0 50 50" style="enable-background:new 0 0 50 50;" xml:space="preserve">
<style type="text/css">
	.st0{fill:none;}
	.st1{opacity:0.15;fill:#444444;}
	.st2{fill-rule:evenodd;clip-rule:evenodd;fill:url(#New_Pattern_Swatch_1);}
	.st3{fill:url(#New_Pattern_Swatch_1);}
	.st4{fill:#E3E3E3;}
	.st5{fill-rule:evenodd;clip-rule:evenodd;fill:#E3E3E3;}
</style>
<pattern  x="-73.35" width="38.7" height="38.7" patternUnits="userSpaceOnUse" id="New_Pattern_Swatch_1" viewBox="0 -38.7 38.7 38.7" style="overflow:visible;">
	<g>
		<rect y="-38.7" class="st0" width="38.7" height="38.7"/>
		<rect x="0" y="-38.7" class="st1" width="38.7" height="38.7"/>
	</g>
</pattern>
<rect x="-955.04" y="-362.55" class="st0" width="1440" height="798"/>
<path class="st3" d="M25,39.13c-1.8,0-3.26-1.46-3.26-3.26s1.46-3.26,3.26-3.26c1.8,0,3.26,1.46,3.26,3.26S26.8,39.13,25,39.13z
	 M27.48,11.96l-1.24,18.01h-2.48l-1.24-18.01H27.48z M25,0C11.22,0,0,11.22,0,25s11.22,25,25,25s25-11.22,25-25S38.78,0,25,0z"/>
</svg>
