<svg xmlns="http://www.w3.org/2000/svg" xmlns:xlink="http://www.w3.org/1999/xlink" id="Layer_1" x="0" y="0" version="1.1" viewBox="0 0 50 50" xml:space="preserve" style="enable-background:new 0 0 50 50"><style type="text/css">.st0{fill:none}.st1{opacity:.15;fill:#444}.st3{fill:url(#New_Pattern_Swatch_1)}</style><pattern id="New_Pattern_Swatch_1" width="38.7" height="38.7" x="-73.35" patternUnits="userSpaceOnUse" viewBox="0 -38.7 38.7 38.7" style="overflow:visible"><g><rect width="38.7" height="38.7" y="-38.7" class="st0"/><rect width="38.7" height="38.7" x="0" y="-38.7" class="st1"/></g></pattern><rect width="1440" height="798" x="-955.04" y="-362.55" class="st0"/><path d="M25,39.13c-1.8,0-3.26-1.46-3.26-3.26s1.46-3.26,3.26-3.26c1.8,0,3.26,1.46,3.26,3.26S26.8,39.13,25,39.13z M27.48,11.96l-1.24,18.01h-2.48l-1.24-18.01H27.48z M25,0C11.22,0,0,11.22,0,25s11.22,25,25,25s25-11.22,25-25S38.78,0,25,0z" class="st3"/></svg>